<?xml version="1.0" encoding="UTF-8"?>
<!DOCTYPE svg PUBLIC "-//W3C//DTD SVG 1.1//EN" "http://www.w3.org/Graphics/SVG/1.1/DTD/svg11.dtd">
<!-- Creator: CorelDRAW 2021 (64-Bit) -->
<svg xmlns="http://www.w3.org/2000/svg" xml:space="preserve" width="6.66667in" height="6.66667in" version="1.1" style="shape-rendering:geometricPrecision; text-rendering:geometricPrecision; image-rendering:optimizeQuality; fill-rule:evenodd; clip-rule:evenodd"
viewBox="0 0 413.58 413.58"
 xmlns:xlink="http://www.w3.org/1999/xlink"
 xmlns:xodm="http://www.corel.com/coreldraw/odm/2003">
 <defs>
  <style type="text/css">
   <![CDATA[
    .fil25 {fill:none}
    .fil22 {fill:#FBAE17}
    .fil19 {fill:#FFC40D}
    .fil24 {fill:#FFDE00}
    .fil20 {fill:#FFE200}
    .fil21 {fill:#51009E;fill-rule:nonzero}
    .fil16 {fill:#5C00A4;fill-rule:nonzero}
    .fil4 {fill:#6400C2;fill-rule:nonzero}
    .fil15 {fill:#6500B3;fill-rule:nonzero}
    .fil23 {fill:#7000D9;fill-rule:nonzero}
    .fil18 {fill:#7500CF;fill-rule:nonzero}
    .fil3 {fill:#8400FF;fill-rule:nonzero}
    .fil11 {fill:#8400FF;fill-rule:nonzero}
    .fil10 {fill:#A42A56;fill-rule:nonzero}
    .fil7 {fill:#A72A63;fill-rule:nonzero}
    .fil8 {fill:#AF3360;fill-rule:nonzero}
    .fil14 {fill:#B08B52;fill-rule:nonzero}
    .fil6 {fill:#B2336D;fill-rule:nonzero}
    .fil9 {fill:#C53A6A;fill-rule:nonzero}
    .fil5 {fill:#C73A76;fill-rule:nonzero}
    .fil12 {fill:#C83A7A;fill-rule:nonzero}
    .fil13 {fill:#C93A7E;fill-rule:nonzero}
    .fil17 {fill:#F4CE5E;fill-rule:nonzero}
    .fil1 {fill:#FBAE17;fill-rule:nonzero}
    .fil0 {fill:#FFDE00;fill-rule:nonzero}
    .fil2 {fill:white;fill-rule:nonzero}
   ]]>
  </style>
 </defs>
 <g id="Layer_x0020_1">
  <metadata id="CorelCorpID_0Corel-Layer"/>
  <g id="_1689650491664">
   <path class="fil0" d="M203.65 189.82c-7.32,-15.58 -14.75,-31.33 -25.64,-44.65 -4.31,-5.27 -9.38,-10.29 -15.83,-12.51 -8.25,-2.84 -17.66,-0.55 -24.86,4.38 -5.66,3.87 -10.13,9.18 -13.88,14.95 -2.21,3.4 -2.2,7.87 0.2,11.15 3.29,4.48 8.3,7.79 13.54,10.05 16.61,7.15 33.83,12.88 51.4,17.13 5.22,1.26 9.72,0.09 15.06,-0.5z"/>
   <path class="fil1" d="M188.59 190.32c2.89,0.7 5.56,0.64 8.27,0.36 -7.97,-4.47 -15.08,-10.66 -21.9,-16.84 -9.6,-8.69 -19.32,-17.76 -31.31,-22.64 -3.47,-1.41 -7.16,-2.46 -10.9,-2.29 -3.74,0.17 -7.54,1.71 -9.81,4.68 -0.27,0.36 -0.52,0.74 -0.73,1.14 -0.81,2.84 -0.35,5.95 1.44,8.4 3.28,4.48 8.3,7.79 13.54,10.05 16.61,7.15 33.83,12.88 51.4,17.13z"/>
   <path class="fil2" d="M141.29 142.18c-1.73,-0.63 -2.48,-2.56 -0.78,-3.76 1.47,-1.04 4.63,-1.66 6.39,-2.11 4.87,-1.24 10.06,-0.89 14.91,0.27 0.53,0.13 1.07,0.28 1.59,0.47 1.43,0.52 2.73,1.33 3.24,2.72 0.66,1.8 -0.44,3.9 -2.11,4.84 -1.67,0.94 -3.73,0.91 -5.59,0.47 -0.84,-0.2 -1.65,-0.47 -2.46,-0.77 -0.3,-0.11 -0.6,-0.22 -0.9,-0.33 -0.3,-0.11 -0.6,-0.22 -0.9,-0.33 -0.39,-0.14 -0.79,-0.28 -1.18,-0.41 -2.82,-0.9 -5.82,-1.24 -8.77,-0.98 -0.94,0.08 -1.89,0.22 -2.82,0.07 -0.22,-0.04 -0.43,-0.09 -0.62,-0.16z"/>
   <path class="fil2" d="M171.78 154.7c-0.44,-0.16 -0.84,-0.39 -1.2,-0.68 -1.47,-1.23 -1.99,-3.39 -1.49,-5.24 0.5,-1.85 1.9,-3.38 3.59,-4.29 0.32,0.05 0.64,0.14 0.96,0.25 1.84,0.67 3.56,2.33 4.04,4.13 0.56,2.12 -0.25,3.61 -1.83,5.12 -1.05,1 -2.69,1.21 -4.06,0.71z"/>
   <path class="fil0" d="M194.36 189.54c5.56,-12.76 11.21,-25.67 19.71,-36.69 3.37,-4.36 7.35,-8.53 12.51,-10.47 6.61,-2.49 14.26,-0.84 20.2,2.97 4.66,3 8.4,7.19 11.56,11.77 1.86,2.7 1.96,6.31 0.09,9.02 -2.55,3.7 -6.53,6.49 -10.72,8.44 -13.27,6.16 -27.06,11.19 -41.17,15.02 -4.19,1.14 -7.85,0.3 -12.18,-0.06z"/>
   <path class="fil1" d="M206.54 189.6c-2.32,0.63 -4.48,0.65 -6.67,0.48 6.34,-3.8 11.95,-8.96 17.33,-14.11 7.56,-7.25 15.21,-14.8 24.8,-19.02 2.77,-1.22 5.73,-2.15 8.76,-2.1 3.03,0.05 6.13,1.21 8.04,3.56 0.23,0.28 0.43,0.59 0.62,0.9 0.72,2.28 0.42,4.8 -0.98,6.82 -2.55,3.7 -6.53,6.49 -10.72,8.44 -13.27,6.16 -27.06,11.19 -41.17,15.02z"/>
   <path class="fil2" d="M225.49 152.34c-0.19,-0.07 -0.37,-0.15 -0.55,-0.24 -1.37,-0.72 -2.31,-2.4 -1.81,-3.87 0.52,-1.54 2.27,-2.26 3.84,-2.69 3.89,-1.05 8.08,-1.45 12.05,-0.56 1.07,0.24 2.78,0.54 4.08,1.01 0.44,0.16 0.83,0.34 1.14,0.54 1.55,1.04 0.69,2.87 -1.05,3.2 -0.75,0.14 -1.52,0.05 -2.28,0.01 -2.39,-0.14 -4.81,0.2 -7.07,0.99 -1.46,0.51 -2.86,1.21 -4.36,1.61 -1.3,0.35 -2.73,0.44 -3.99,-0.01z"/>
   <path class="fil2" d="M216.93 160.47c-0.33,-0.12 -0.64,-0.3 -0.9,-0.54 -1.31,-1.18 -2,-2.37 -1.6,-4.09 0.4,-1.72 2.2,-3.33 3.94,-3.66 1.38,0.7 2.55,1.9 3,3.39 0.44,1.49 0.07,3.24 -1.09,4.27 -0.89,0.79 -2.25,1.04 -3.35,0.64z"/>
   <polygon class="fil3" points="90.48,241.72 245.83,216.75 246.42,408.02 106.38,398.3 "/>
   <polygon class="fil4" points="335.49,246.03 245.89,213.29 245.83,407.73 321.96,388.19 "/>
   <line class="fil5" x1="100.01" y1="331.66" x2="100.01" y2= "331.66" />
   <line class="fil6" x1="102.2" y1="354.52" x2="102.2" y2= "354.52" />
   <line class="fil5" x1="97.83" y1="308.8" x2="97.83" y2= "308.8" />
   <polygon class="fil7" points="108.36,398.43 106.38,398.3 "/>
   <line class="fil7" x1="131.82" y1="400.02" x2="131.82" y2= "400.02" />
   <polygon class="fil8" points="323.68,367.82 324.77,355.01 324.77,355.01 "/>
   <line class="fil9" x1="327.32" y1="324.91" x2="327.32" y2= "324.91" />
   <polygon class="fil10" points="276.72,399.8 281.69,398.53 281.69,398.53 "/>
   <line class="fil9" x1="329.84" y1="295.21" x2="329.84" y2= "295.21" />
   <polygon class="fil11" points="80.94,196.45 85.62,242.59 251.55,216.71 248.88,172.18 "/>
   <polygon class="fil4" points="343.06,205.65 248.47,171.93 250.98,216.8 339.8,247.76 "/>
   <polygon class="fil12" points="333.3,234.95 333.37,226.22 333.37,226.22 "/>
   <polygon class="fil12" points="333.5,210.2 333.56,202.99 333.5,210.2 "/>
   <polygon class="fil13" points="163.15,184.52 163.15,184.52 166.28,184.07 166.28,184.07 163.15,184.52 "/>
   <polygon class="fil14" points="166.28,184.07 171.1,183.38 166.28,184.07 "/>
   <polygon class="fil15" points="135.39,231.32 135.39,231.32 143.26,230.3 143.26,230.3 138.54,230.91 "/>
   <polygon class="fil16" points="138.54,230.91 143.26,230.3 143.26,230.3 "/>
   <path class="fil13" d="M94.98 236.6l-0.56 -5.62 0.56 5.62zm23.15 -45.61l0 0 7.94 -1.14 -7.94 1.14 0 -0z"/>
   <polygon class="fil13" points="140.65,187.76 140.65,187.76 148.59,186.61 140.64,187.76 "/>
   <polygon class="fil15" points="113.07,234.24 113.07,234.24 120.95,233.21 120.95,233.21 "/>
   <polygon class="fil16" points="113.07,234.24 113.07,234.24 120.95,233.21 120.95,233.21 "/>
   <polygon class="fil17" points="185.66,181.28 185.66,181.28 193.61,180.14 185.66,181.28 "/>
   <polygon class="fil15" points="157.7,228.41 157.7,228.41 165.58,227.38 165.58,227.38 "/>
   <polygon class="fil18" points="249.94,189.3 249.93,189.21 "/>
   <polygon class="fil15" points="231.61,218.76 232.53,218.64 232.53,218.64 "/>
   <polygon class="fil15" points="180.5,225.43 187.9,224.47 187.9,224.47 "/>
   <polygon class="fil14" points="230.68,174.8 230.68,174.8 237.26,173.86 230.68,174.81 "/>
   <polygon class="fil19" points="272.6,401.99 298.44,395.09 305.58,192.11 279.1,182.51 "/>
   <polygon class="fil20" points="192.46,405.43 161.45,402.85 151.18,186.3 191.56,180.71 "/>
   <polygon class="fil21" points="334.8,252.56 245.88,221.94 245.88,216.75 251.55,216.16 335.48,246.21 339.8,247.76 335.04,250.32 "/>
   <polygon class="fil22" points="303.89,242.6 304.14,234.99 277.77,225.55 277.52,233.44 "/>
   <polygon class="fil19" points="306.73,235.91 308.78,192.61 275.18,180.55 274.54,224.39 "/>
   <polygon class="fil23" points="91,246.88 90.74,244.31 85.57,242.1 245.88,216.75 245.88,221.94 "/>
   <polygon class="fil1" points="153.27,231.39 191.64,225.32 191.65,231.42 153.55,237.42 "/>
   <polygon class="fil24" points="148.87,232.1 146.95,186.49 194.76,179.58 194.83,224.93 "/>
  </g>
  <polygon class="fil25" points="-0,413.58 413.58,413.58 413.58,0 -0,0 "/>
 </g>
</svg>
