<?xml version="1.0" encoding="UTF-8"?>
<!DOCTYPE svg PUBLIC "-//W3C//DTD SVG 1.1//EN" "http://www.w3.org/Graphics/SVG/1.1/DTD/svg11.dtd">
<!-- Creator: CorelDRAW 2021 (64-Bit) -->
<svg xmlns="http://www.w3.org/2000/svg" xml:space="preserve" width="443px" height="29px" version="1.1" style="shape-rendering:geometricPrecision; text-rendering:geometricPrecision; image-rendering:optimizeQuality; fill-rule:evenodd; clip-rule:evenodd"
viewBox="0 0 21.394 1.412"
 xmlns:xlink="http://www.w3.org/1999/xlink"
 xmlns:xodm="http://www.corel.com/coreldraw/odm/2003">
 <defs>
  <style type="text/css">
   <![CDATA[
    .fil5 {fill:white}
    .fil0 {fill:black;fill-rule:nonzero}
    .fil2 {fill:#005128;fill-rule:nonzero}
    .fil1 {fill:#00B67A;fill-rule:nonzero}
    .fil3 {fill:#DCDCE6;fill-rule:nonzero}
    .fil4 {fill:white;fill-rule:nonzero}
   ]]>
  </style>
 </defs>
 <g id="Layer_x0020_1">
  <metadata id="CorelCorpID_0Corel-Layer"/>
  <g id="_1639991086688">
   <path class="fil0" d="M1.315 0.435l0.506 0 0 0.095 -0.199 0 0 0.531 -0.109 0 0 -0.531 -0.199 0 0 -0.095 0.001 0zm0.485 0.173l0.093 0 0 0.088 0.002 0c0.003,-0.013 0.009,-0.025 0.017,-0.036 0.009,-0.012 0.019,-0.023 0.031,-0.032 0.012,-0.01 0.025,-0.017 0.04,-0.023 0.014,-0.006 0.029,-0.009 0.044,-0.009 0.012,0 0.02,0 0.025,0.001 0.004,0 0.008,0.001 0.013,0.001l0 0.097c-0.007,-0.002 -0.014,-0.002 -0.021,-0.003 -0.008,-0.001 -0.015,-0.002 -0.022,-0.002 -0.017,0 -0.033,0.004 -0.048,0.01 -0.015,0.007 -0.028,0.017 -0.039,0.03 -0.011,0.013 -0.019,0.029 -0.026,0.049 -0.007,0.019 -0.01,0.041 -0.01,0.066l0 0.216 -0.1 0 0 -0.453 0.001 0zm0.724 0.453l-0.098 0 0 -0.063 -0.002 0c-0.012,0.023 -0.03,0.041 -0.054,0.055 -0.025,0.014 -0.049,0.021 -0.075,0.021 -0.059,0 -0.103,-0.015 -0.129,-0.044 -0.027,-0.03 -0.04,-0.075 -0.04,-0.134l0 -0.288 0.1 0 0 0.278c0,0.04 0.008,0.068 0.023,0.084 0.015,0.017 0.037,0.025 0.064,0.025 0.021,0 0.038,-0.003 0.053,-0.01 0.014,-0.006 0.025,-0.015 0.034,-0.026 0.008,-0.01 0.015,-0.024 0.019,-0.039 0.004,-0.015 0.005,-0.031 0.005,-0.049l0 -0.262 0.1 0 0 0.452zm0.17 -0.145c0.003,0.029 0.014,0.049 0.033,0.061 0.02,0.012 0.043,0.018 0.07,0.018 0.009,0 0.02,-0.001 0.031,-0.002 0.012,-0.001 0.024,-0.005 0.034,-0.009 0.011,-0.004 0.019,-0.01 0.026,-0.018 0.007,-0.008 0.01,-0.018 0.009,-0.031 0,-0.012 -0.005,-0.023 -0.014,-0.031 -0.009,-0.008 -0.02,-0.014 -0.033,-0.02 -0.014,-0.005 -0.03,-0.009 -0.047,-0.013 -0.018,-0.003 -0.036,-0.007 -0.054,-0.011 -0.018,-0.004 -0.036,-0.009 -0.053,-0.015 -0.018,-0.006 -0.033,-0.014 -0.047,-0.024 -0.014,-0.01 -0.025,-0.022 -0.033,-0.038 -0.008,-0.015 -0.012,-0.034 -0.012,-0.057 0,-0.025 0.006,-0.045 0.018,-0.062 0.012,-0.017 0.028,-0.03 0.046,-0.04 0.018,-0.011 0.039,-0.018 0.061,-0.022 0.023,-0.004 0.044,-0.006 0.065,-0.006 0.023,0 0.045,0.002 0.067,0.007 0.021,0.005 0.04,0.013 0.058,0.025 0.017,0.011 0.031,0.025 0.042,0.043 0.012,0.018 0.019,0.039 0.022,0.064l-0.104 0c-0.005,-0.023 -0.016,-0.04 -0.033,-0.048 -0.017,-0.008 -0.037,-0.012 -0.059,-0.012 -0.007,0 -0.016,0 -0.025,0.002 -0.01,0.001 -0.019,0.003 -0.028,0.006 -0.008,0.003 -0.015,0.008 -0.021,0.014 -0.006,0.007 -0.009,0.015 -0.009,0.025 0,0.012 0.004,0.022 0.013,0.029 0.008,0.008 0.019,0.014 0.033,0.019 0.014,0.005 0.029,0.01 0.047,0.013 0.017,0.004 0.035,0.008 0.054,0.012 0.018,0.004 0.036,0.009 0.053,0.015 0.018,0.005 0.034,0.013 0.047,0.023 0.014,0.011 0.025,0.023 0.033,0.038 0.009,0.015 0.013,0.034 0.013,0.056 0,0.027 -0.006,0.05 -0.018,0.069 -0.013,0.018 -0.029,0.034 -0.048,0.045 -0.02,0.011 -0.042,0.02 -0.065,0.026 -0.024,0.005 -0.048,0.008 -0.072,0.008 -0.028,0 -0.055,-0.004 -0.079,-0.01 -0.024,-0.007 -0.046,-0.016 -0.063,-0.029 -0.018,-0.014 -0.032,-0.03 -0.042,-0.049 -0.01,-0.02 -0.016,-0.043 -0.017,-0.07l0.101 0 0 -0.001zm0.33 -0.308l0.075 0 0 -0.136 0.1 0 0 0.136 0.09 0 0 0.075 -0.09 0 0 0.242c0,0.01 0,0.019 0.001,0.027 0.001,0.008 0.003,0.014 0.007,0.02 0.003,0.005 0.007,0.009 0.014,0.012 0.007,0.002 0.015,0.004 0.027,0.004 0.007,0 0.014,0 0.021,-0.001 0.007,0 0.014,-0.001 0.021,-0.003l0 0.077c-0.011,0.002 -0.022,0.003 -0.032,0.004 -0.011,0.001 -0.021,0.002 -0.032,0.002 -0.027,0 -0.048,-0.003 -0.064,-0.008 -0.016,-0.005 -0.029,-0.012 -0.038,-0.022 -0.009,-0.01 -0.015,-0.022 -0.018,-0.036 -0.003,-0.015 -0.005,-0.032 -0.006,-0.05l0 -0.267 -0.075 0 0 -0.076 -0.001 0zm0.336 0l0.094 0 0 0.062 0.002 0c0.014,-0.027 0.034,-0.045 0.059,-0.057 0.025,-0.011 0.052,-0.017 0.082,-0.017 0.035,0 0.066,0.006 0.093,0.019 0.026,0.012 0.048,0.029 0.066,0.051 0.018,0.023 0.03,0.048 0.039,0.077 0.009,0.029 0.014,0.061 0.014,0.094 0,0.03 -0.004,0.06 -0.012,0.088 -0.008,0.029 -0.02,0.054 -0.036,0.076 -0.016,0.022 -0.036,0.04 -0.061,0.053 -0.025,0.013 -0.054,0.02 -0.087,0.02 -0.015,0 -0.029,-0.002 -0.044,-0.004 -0.014,-0.003 -0.029,-0.007 -0.042,-0.013 -0.013,-0.006 -0.026,-0.013 -0.037,-0.023 -0.011,-0.009 -0.021,-0.019 -0.029,-0.031l-0.001 0 0 0.226 -0.1 0 0 -0.621zm0.349 0.227c0,-0.02 -0.003,-0.04 -0.008,-0.059 -0.006,-0.02 -0.014,-0.037 -0.024,-0.052 -0.011,-0.015 -0.024,-0.027 -0.039,-0.035 -0.016,-0.009 -0.034,-0.014 -0.055,-0.014 -0.042,0 -0.073,0.014 -0.095,0.044 -0.021,0.029 -0.031,0.068 -0.031,0.116 0,0.023 0.002,0.044 0.008,0.064 0.006,0.019 0.014,0.036 0.025,0.05 0.011,0.014 0.024,0.025 0.04,0.033 0.015,0.009 0.033,0.013 0.054,0.013 0.023,0 0.042,-0.005 0.058,-0.014 0.015,-0.01 0.028,-0.022 0.038,-0.037 0.011,-0.015 0.018,-0.032 0.023,-0.05 0.003,-0.019 0.006,-0.039 0.006,-0.059l0 0zm0.176 -0.4l0.1 0 0 0.095 -0.1 0 0 -0.095zm0 0.173l0.1 0 0 0.453 -0.1 0 0 -0.453zm0.189 -0.173l0.1 0 0 0.626 -0.1 0 0 -0.626zm0.406 0.639c-0.036,0 -0.069,-0.006 -0.097,-0.018 -0.028,-0.012 -0.052,-0.029 -0.072,-0.05 -0.019,-0.021 -0.034,-0.046 -0.044,-0.075 -0.011,-0.03 -0.016,-0.062 -0.016,-0.097 0,-0.034 0.005,-0.066 0.016,-0.095 0.01,-0.029 0.025,-0.054 0.044,-0.076 0.02,-0.021 0.044,-0.037 0.072,-0.049 0.028,-0.012 0.061,-0.018 0.097,-0.018 0.036,0 0.068,0.006 0.097,0.018 0.028,0.012 0.052,0.029 0.072,0.049 0.019,0.022 0.034,0.047 0.044,0.076 0.01,0.029 0.016,0.061 0.016,0.095 0,0.035 -0.006,0.067 -0.016,0.097 -0.01,0.029 -0.025,0.054 -0.044,0.075 -0.02,0.021 -0.044,0.038 -0.072,0.05 -0.029,0.012 -0.061,0.018 -0.097,0.018zm0 -0.079c0.022,0 0.041,-0.005 0.058,-0.015 0.016,-0.009 0.029,-0.021 0.04,-0.036 0.011,-0.015 0.018,-0.032 0.023,-0.051 0.005,-0.019 0.008,-0.039 0.008,-0.059 0,-0.019 -0.003,-0.038 -0.008,-0.058 -0.005,-0.019 -0.012,-0.036 -0.023,-0.051 -0.011,-0.015 -0.024,-0.027 -0.04,-0.036 -0.017,-0.009 -0.036,-0.014 -0.058,-0.014 -0.022,0 -0.042,0.005 -0.058,0.014 -0.016,0.009 -0.03,0.022 -0.04,0.036 -0.011,0.015 -0.018,0.032 -0.024,0.051 -0.004,0.02 -0.007,0.039 -0.007,0.058 0,0.02 0.003,0.04 0.007,0.059 0.005,0.019 0.013,0.036 0.024,0.051 0.01,0.015 0.024,0.027 0.04,0.036 0.016,0.01 0.036,0.015 0.058,0.015zm0.258 -0.387l0.075 0 0 -0.136 0.1 0 0 0.136 0.09 0 0 0.075 -0.09 0 0 0.242c0,0.01 0.001,0.019 0.001,0.027 0.001,0.008 0.004,0.014 0.007,0.02 0.003,0.005 0.008,0.009 0.014,0.012 0.007,0.002 0.015,0.004 0.027,0.004 0.007,0 0.014,0 0.021,-0.001 0.007,0 0.014,-0.001 0.021,-0.003l0 0.077c-0.011,0.002 -0.022,0.003 -0.032,0.004 -0.011,0.001 -0.021,0.002 -0.032,0.002 -0.027,0 -0.048,-0.003 -0.064,-0.008 -0.016,-0.005 -0.029,-0.012 -0.038,-0.022 -0.009,-0.01 -0.015,-0.022 -0.018,-0.036 -0.003,-0.015 -0.005,-0.032 -0.006,-0.05l0 -0.267 -0.075 0 0 -0.076 -0.001 0z"/>
   <polygon class="fil1" points="1.198,0.435 0.741,0.435 0.599,0 0.458,0.435 0,0.435 0.371,0.704 0.229,1.14 0.599,0.871 0.969,1.14 0.828,0.704 1.198,0.435 "/>
   <polygon class="fil2" points="0.86,0.803 0.828,0.704 0.599,0.871 "/>
  </g>
  <g id="_1639991090240">
   <polygon id="Rectangle-path" class="fil1" points="5.922,1.174 6.846,1.174 6.846,0.25 5.922,0.25 "/>
   <polygon class="fil1" points="6.923,1.174 7.847,1.174 7.847,0.25 6.923,0.25 "/>
   <polygon class="fil1" points="7.924,1.174 8.848,1.174 8.848,0.25 7.924,0.25 "/>
   <polygon class="fil1" points="8.925,1.174 9.849,1.174 9.849,0.25 8.925,0.25 "/>
   <g id="Half">
    <polygon class="fil3" points="10.388,1.174 10.85,1.174 10.85,0.25 10.388,0.25 "/>
    <polygon class="fil1" points="9.926,1.174 10.388,1.174 10.388,0.25 9.926,0.25 "/>
   </g>
   <path id="Shape" class="fil4" d="M6.384 0.873l0.141 -0.036 0.058 0.181 -0.199 -0.145zm0.324 -0.234l-0.248 0 -0.076 -0.233 -0.076 0.233 -0.247 0 0.2 0.144 -0.076 0.233 0.2 -0.144 0.123 -0.089 0.2 -0.144 0 0 0 0 0 0z"/>
   <path class="fil4" d="M7.385 0.873l0.141 -0.036 0.058 0.181 -0.199 -0.145zm0.324 -0.234l-0.248 0 -0.076 -0.233 -0.076 0.233 -0.247 0 0.2 0.144 -0.076 0.233 0.2 -0.144 0.123 -0.089 0.2 -0.144 0 0 0 0 0 0z"/>
   <path class="fil4" d="M8.386 0.873l0.141 -0.036 0.058 0.181 -0.199 -0.145zm0.324 -0.234l-0.248 0 -0.076 -0.233 -0.076 0.233 -0.247 0 0.2 0.144 -0.076 0.233 0.2 -0.144 0.123 -0.089 0.2 -0.144 0 0 0 0 0 0z"/>
   <path class="fil4" d="M9.387 0.873l0.141 -0.036 0.059 0.181 -0.2 -0.145zm0.324 -0.234l-0.248 0 -0.076 -0.233 -0.076 0.233 -0.247 0 0.2 0.144 -0.076 0.233 0.2 -0.144 0.123 -0.089 0.2 -0.144 0 0 0 0 0 0z"/>
   <path class="fil4" d="M10.388 0.873l0.141 -0.036 0.059 0.181 -0.2 -0.145zm0.324 -0.234l-0.248 0 -0.076 -0.233 -0.076 0.233 -0.247 0 0.2 0.144 -0.076 0.233 0.2 -0.144 0.123 -0.089 0.2 -0.144 0 0 0 0 0 0z"/>
  </g>
  <g id="_1639991099600">
   <path class="fil1" d="M17.891 0.229l0 0c0.027,-0.018 0.063,-0.013 0.083,0.013l0 0c0.016,0.02 0.041,0.028 0.065,0.021l0 0c0.031,-0.009 0.063,0.008 0.074,0.038l0 0c0.009,0.023 0.031,0.039 0.056,0.04l0 0c0.032,0.001 0.058,0.027 0.059,0.059l0 0c0.001,0.025 0.017,0.047 0.04,0.055l0 0c0.03,0.011 0.047,0.044 0.038,0.075l0 0c-0.007,0.024 0.002,0.049 0.021,0.065l0 0c0.025,0.02 0.031,0.056 0.013,0.083l0 0c-0.014,0.02 -0.014,0.047 0,0.068l0 0c0.018,0.027 0.012,0.063 -0.013,0.083l0 0c-0.02,0.015 -0.028,0.041 -0.021,0.065l0 0c0.009,0.031 -0.008,0.063 -0.038,0.074l0 0c-0.023,0.009 -0.039,0.031 -0.04,0.056l0 0c-0.001,0.031 -0.027,0.058 -0.059,0.059l0 0c-0.025,0.001 -0.047,0.017 -0.056,0.04l0 0c-0.011,0.03 -0.043,0.046 -0.074,0.038l0 0c-0.024,-0.007 -0.049,0.001 -0.065,0.021l0 0c-0.02,0.025 -0.056,0.031 -0.083,0.013l0 0c-0.021,-0.014 -0.047,-0.014 -0.068,0l0 0c-0.027,0.018 -0.063,0.012 -0.083,-0.013l0 0c-0.016,-0.02 -0.041,-0.028 -0.065,-0.021l0 0c-0.031,0.008 -0.063,-0.008 -0.075,-0.038l0 0c-0.008,-0.023 -0.03,-0.039 -0.055,-0.04l0 0c-0.032,-0.001 -0.058,-0.028 -0.059,-0.059l0 0c-0.001,-0.025 -0.017,-0.047 -0.04,-0.056l0 0c-0.03,-0.011 -0.047,-0.043 -0.038,-0.074l0 0c0.007,-0.024 -0.002,-0.05 -0.021,-0.065l0 0c-0.025,-0.02 -0.031,-0.056 -0.013,-0.083l0 0c0.014,-0.021 0.014,-0.048 0,-0.068l0 0c-0.018,-0.027 -0.013,-0.063 0.013,-0.083l0 0c0.02,-0.016 0.028,-0.041 0.021,-0.065l0 0c-0.009,-0.031 0.008,-0.064 0.038,-0.075l0 0c0.023,-0.008 0.039,-0.03 0.04,-0.055l0 0c0.001,-0.032 0.027,-0.058 0.059,-0.059l0 0c0.025,-0.001 0.047,-0.017 0.055,-0.04l0 0c0.012,-0.031 0.044,-0.047 0.075,-0.038l0 0c0.024,0.007 0.049,-0.002 0.065,-0.021l0 0c0.02,-0.025 0.056,-0.031 0.083,-0.013l0 0c0.021,0.013 0.048,0.013 0.068,0z"/>
   <path class="fil5" d="M17.528 0.742l0.087 -0.086 0.146 0.146 0.32 -0.319 0.087 0.086c-0.136,0.136 -0.271,0.271 -0.407,0.407l-0.233 -0.234z"/>
  </g>
  <path class="fil0" d="M11.604 0.175l0.067 0 0 0.178c0,0.029 0.001,0.047 0.002,0.055 0.003,0.014 0.01,0.025 0.02,0.033 0.011,0.008 0.026,0.012 0.044,0.012 0.019,0 0.033,-0.004 0.042,-0.011 0.01,-0.008 0.015,-0.018 0.017,-0.029 0.002,-0.011 0.003,-0.03 0.003,-0.056l0 -0.182 0.067 0 0 0.173c0,0.04 -0.002,0.068 -0.006,0.084 -0.003,0.016 -0.01,0.03 -0.02,0.041 -0.009,0.011 -0.022,0.02 -0.038,0.027 -0.016,0.007 -0.037,0.01 -0.063,0.01 -0.031,0 -0.055,-0.004 -0.071,-0.011 -0.016,-0.007 -0.029,-0.017 -0.039,-0.028 -0.009,-0.012 -0.015,-0.024 -0.018,-0.037 -0.004,-0.018 -0.007,-0.046 -0.007,-0.083l0 -0.176zm0.548 0.329l-0.063 0 0 -0.121c0,-0.026 -0.001,-0.043 -0.004,-0.05 -0.003,-0.008 -0.007,-0.014 -0.013,-0.018 -0.006,-0.004 -0.014,-0.006 -0.022,-0.006 -0.011,0 -0.021,0.003 -0.03,0.009 -0.009,0.006 -0.014,0.014 -0.018,0.024 -0.003,0.01 -0.005,0.028 -0.005,0.054l0 0.108 -0.062 0 0 -0.238 0.058 0 0 0.035c0.021,-0.027 0.047,-0.04 0.079,-0.04 0.014,0 0.026,0.002 0.038,0.007 0.012,0.005 0.02,0.012 0.026,0.019 0.006,0.008 0.01,0.017 0.013,0.027 0.002,0.01 0.003,0.024 0.003,0.042l0 0.148zm0.041 -0.067l0.064 -0.01c0.002,0.013 0.008,0.022 0.016,0.028 0.008,0.006 0.02,0.01 0.035,0.01 0.016,0 0.028,-0.003 0.036,-0.009 0.006,-0.005 0.009,-0.01 0.009,-0.017 0,-0.005 -0.002,-0.009 -0.005,-0.012 -0.003,-0.003 -0.01,-0.006 -0.021,-0.008 -0.051,-0.012 -0.083,-0.022 -0.097,-0.031 -0.019,-0.013 -0.028,-0.031 -0.028,-0.054 0,-0.021 0.008,-0.038 0.025,-0.052 0.016,-0.014 0.041,-0.021 0.075,-0.021 0.033,0 0.057,0.005 0.073,0.016 0.016,0.01 0.027,0.026 0.033,0.047l-0.06 0.011c-0.002,-0.009 -0.007,-0.016 -0.014,-0.021 -0.007,-0.005 -0.017,-0.008 -0.031,-0.008 -0.016,0 -0.028,0.003 -0.035,0.007 -0.005,0.003 -0.008,0.008 -0.008,0.013 0,0.004 0.002,0.008 0.007,0.011 0.005,0.005 0.025,0.011 0.059,0.018 0.033,0.008 0.057,0.017 0.07,0.028 0.013,0.011 0.02,0.027 0.02,0.047 0,0.022 -0.009,0.041 -0.027,0.056 -0.019,0.016 -0.046,0.024 -0.081,0.024 -0.033,0 -0.059,-0.007 -0.078,-0.02 -0.018,-0.013 -0.031,-0.03 -0.037,-0.053zm0.416 -0.008l0.063 0.01c-0.008,0.023 -0.021,0.041 -0.039,0.053 -0.017,0.012 -0.039,0.018 -0.065,0.018 -0.041,0 -0.072,-0.014 -0.092,-0.041 -0.015,-0.021 -0.023,-0.049 -0.023,-0.082 0,-0.039 0.01,-0.07 0.031,-0.093 0.02,-0.022 0.046,-0.033 0.078,-0.033 0.035,0 0.063,0.011 0.084,0.035 0.02,0.023 0.03,0.059 0.029,0.108l-0.158 0c0.001,0.018 0.006,0.033 0.016,0.043 0.009,0.011 0.021,0.016 0.036,0.016 0.01,0 0.018,-0.003 0.025,-0.008 0.006,-0.006 0.011,-0.014 0.015,-0.026zm0.003 -0.064c0,-0.018 -0.005,-0.032 -0.014,-0.042 -0.009,-0.009 -0.019,-0.014 -0.032,-0.014 -0.014,0 -0.025,0.005 -0.034,0.015 -0.009,0.01 -0.014,0.024 -0.013,0.041l0.093 0zm0.174 0.139l-0.062 0 0 -0.238 0.058 0 0 0.034c0.01,-0.016 0.019,-0.027 0.027,-0.032 0.008,-0.005 0.017,-0.007 0.027,-0.007 0.015,0 0.029,0.004 0.042,0.012l-0.02 0.055c-0.01,-0.007 -0.02,-0.011 -0.029,-0.011 -0.009,0 -0.017,0.003 -0.023,0.007 -0.006,0.005 -0.011,0.014 -0.014,0.027 -0.004,0.013 -0.006,0.039 -0.006,0.08l0 0.073zm0.257 -0.075l0.063 0.01c-0.008,0.023 -0.021,0.041 -0.039,0.053 -0.017,0.012 -0.039,0.018 -0.065,0.018 -0.041,0 -0.072,-0.014 -0.092,-0.041 -0.015,-0.021 -0.023,-0.049 -0.023,-0.082 0,-0.039 0.01,-0.07 0.031,-0.093 0.02,-0.022 0.046,-0.033 0.078,-0.033 0.035,0 0.063,0.011 0.083,0.035 0.021,0.023 0.031,0.059 0.03,0.108l-0.158 0c0.001,0.018 0.006,0.033 0.016,0.043 0.009,0.011 0.021,0.016 0.036,0.016 0.01,0 0.018,-0.003 0.024,-0.008 0.007,-0.006 0.012,-0.014 0.016,-0.026zm0.003 -0.064c0,-0.018 -0.005,-0.032 -0.014,-0.042 -0.009,-0.009 -0.02,-0.014 -0.032,-0.014 -0.014,0 -0.025,0.005 -0.034,0.015 -0.009,0.01 -0.014,0.024 -0.013,0.041l0.093 0zm0.219 0.072l0.064 -0.01c0.002,0.013 0.008,0.022 0.016,0.028 0.008,0.006 0.02,0.01 0.035,0.01 0.016,0 0.028,-0.003 0.036,-0.009 0.006,-0.005 0.009,-0.01 0.009,-0.017 0,-0.005 -0.002,-0.009 -0.005,-0.012 -0.003,-0.003 -0.01,-0.006 -0.021,-0.008 -0.051,-0.012 -0.083,-0.022 -0.097,-0.031 -0.019,-0.013 -0.028,-0.031 -0.028,-0.054 0,-0.021 0.008,-0.038 0.024,-0.052 0.017,-0.014 0.042,-0.021 0.076,-0.021 0.033,0 0.057,0.005 0.073,0.016 0.016,0.01 0.027,0.026 0.033,0.047l-0.06 0.011c-0.002,-0.009 -0.007,-0.016 -0.014,-0.021 -0.007,-0.005 -0.017,-0.008 -0.031,-0.008 -0.016,0 -0.028,0.003 -0.035,0.007 -0.005,0.003 -0.008,0.008 -0.008,0.013 0,0.004 0.002,0.008 0.007,0.011 0.005,0.005 0.025,0.011 0.059,0.018 0.033,0.008 0.057,0.017 0.07,0.028 0.013,0.011 0.02,0.027 0.02,0.047 0,0.022 -0.009,0.041 -0.027,0.056 -0.019,0.016 -0.046,0.024 -0.081,0.024 -0.033,0 -0.059,-0.007 -0.078,-0.02 -0.018,-0.013 -0.031,-0.03 -0.037,-0.053zm0.276 -0.171l0.059 0 0 0.035c0.008,-0.012 0.018,-0.022 0.031,-0.029 0.013,-0.008 0.027,-0.011 0.043,-0.011 0.028,0 0.051,0.011 0.071,0.032 0.019,0.022 0.028,0.052 0.028,0.091 0,0.04 -0.009,0.071 -0.029,0.093 -0.019,0.022 -0.043,0.033 -0.07,0.033 -0.014,0 -0.025,-0.003 -0.036,-0.008 -0.011,-0.005 -0.022,-0.014 -0.034,-0.027l0 0.119 -0.063 0 0 -0.328zm0.062 0.115c0,0.027 0.005,0.047 0.016,0.06 0.011,0.013 0.024,0.019 0.039,0.019 0.014,0 0.027,-0.006 0.036,-0.018 0.01,-0.011 0.015,-0.031 0.015,-0.058 0,-0.025 -0.005,-0.043 -0.015,-0.055 -0.01,-0.013 -0.023,-0.019 -0.037,-0.019 -0.016,0 -0.028,0.006 -0.039,0.018 -0.01,0.012 -0.015,0.03 -0.015,0.053zm0.22 -0.147l0 -0.059 0.063 0 0 0.059 -0.063 0zm0 0.27l0 -0.238 0.063 0 0 0.238 -0.063 0zm0.266 -0.075l0.063 0.01c-0.008,0.023 -0.021,0.041 -0.039,0.053 -0.017,0.012 -0.039,0.018 -0.065,0.018 -0.041,0 -0.072,-0.014 -0.092,-0.041 -0.016,-0.021 -0.023,-0.049 -0.023,-0.082 0,-0.039 0.01,-0.07 0.03,-0.093 0.021,-0.022 0.047,-0.033 0.079,-0.033 0.035,0 0.063,0.011 0.083,0.035 0.021,0.023 0.031,0.059 0.03,0.108l-0.158 0c0.001,0.018 0.006,0.033 0.016,0.043 0.009,0.011 0.021,0.016 0.036,0.016 0.01,0 0.018,-0.003 0.024,-0.008 0.007,-0.006 0.012,-0.014 0.016,-0.026zm0.003 -0.064c0,-0.018 -0.005,-0.032 -0.014,-0.042 -0.009,-0.009 -0.02,-0.014 -0.032,-0.014 -0.014,0 -0.025,0.005 -0.034,0.015 -0.009,0.01 -0.014,0.024 -0.014,0.041l0.094 0zm0.114 0.139l0 -0.329 0.063 0 0 0.329 -0.063 0zm0.265 -0.075l0.063 0.01c-0.008,0.023 -0.02,0.041 -0.038,0.053 -0.017,0.012 -0.039,0.018 -0.065,0.018 -0.042,0 -0.072,-0.014 -0.092,-0.041 -0.016,-0.021 -0.024,-0.049 -0.024,-0.082 0,-0.039 0.011,-0.07 0.031,-0.093 0.021,-0.022 0.047,-0.033 0.078,-0.033 0.036,0 0.064,0.011 0.084,0.035 0.021,0.023 0.03,0.059 0.03,0.108l-0.158 0c0.001,0.018 0.006,0.033 0.015,0.043 0.01,0.011 0.022,0.016 0.036,0.016 0.01,0 0.019,-0.003 0.025,-0.008 0.007,-0.006 0.012,-0.014 0.015,-0.026zm0.004 -0.064c0,-0.018 -0.005,-0.032 -0.014,-0.042 -0.009,-0.009 -0.02,-0.014 -0.033,-0.014 -0.013,0 -0.025,0.005 -0.034,0.015 -0.009,0.01 -0.013,0.024 -0.013,0.041l0.094 0zm0.174 0.139l-0.063 0 0 -0.238 0.059 0 0 0.034c0.01,-0.016 0.019,-0.027 0.027,-0.032 0.008,-0.005 0.017,-0.007 0.027,-0.007 0.014,0 0.028,0.004 0.042,0.012l-0.02 0.055c-0.011,-0.007 -0.021,-0.011 -0.03,-0.011 -0.008,0 -0.016,0.003 -0.022,0.007 -0.006,0.005 -0.011,0.014 -0.015,0.027 -0.003,0.013 -0.005,0.039 -0.005,0.08l0 0.073zm0.224 -0.067l0.063 -0.01c0.003,0.013 0.008,0.022 0.016,0.028 0.009,0.006 0.02,0.01 0.035,0.01 0.016,0 0.028,-0.003 0.037,-0.009 0.005,-0.005 0.008,-0.01 0.008,-0.017 0,-0.005 -0.002,-0.009 -0.005,-0.012 -0.003,-0.003 -0.01,-0.006 -0.021,-0.008 -0.05,-0.012 -0.083,-0.022 -0.096,-0.031 -0.019,-0.013 -0.029,-0.031 -0.029,-0.054 0,-0.021 0.009,-0.038 0.025,-0.052 0.016,-0.014 0.041,-0.021 0.076,-0.021 0.032,0 0.056,0.005 0.072,0.016 0.016,0.01 0.027,0.026 0.033,0.047l-0.059 0.011c-0.003,-0.009 -0.008,-0.016 -0.015,-0.021 -0.007,-0.005 -0.017,-0.008 -0.03,-0.008 -0.017,0 -0.029,0.003 -0.036,0.007 -0.005,0.003 -0.007,0.008 -0.007,0.013 0,0.004 0.002,0.008 0.006,0.011 0.006,0.005 0.025,0.011 0.059,0.018 0.034,0.008 0.057,0.017 0.07,0.028 0.014,0.011 0.02,0.027 0.02,0.047 0,0.022 -0.009,0.041 -0.027,0.056 -0.018,0.016 -0.045,0.024 -0.081,0.024 -0.033,0 -0.058,-0.007 -0.077,-0.02 -0.019,-0.013 -0.031,-0.03 -0.037,-0.053zm0.324 -0.098l-0.057 -0.01c0.007,-0.023 0.018,-0.04 0.034,-0.051 0.015,-0.012 0.039,-0.017 0.069,-0.017 0.029,0 0.05,0.003 0.063,0.01 0.014,0.006 0.024,0.015 0.029,0.025 0.006,0.01 0.009,0.029 0.009,0.056l-0.001 0.074c0,0.021 0.001,0.036 0.003,0.046 0.002,0.01 0.005,0.021 0.011,0.032l-0.062 0c-0.002,-0.004 -0.004,-0.01 -0.006,-0.018 -0.001,-0.004 -0.002,-0.007 -0.003,-0.008 -0.01,0.011 -0.022,0.019 -0.034,0.024 -0.012,0.005 -0.025,0.008 -0.039,0.008 -0.025,0 -0.044,-0.007 -0.058,-0.02 -0.014,-0.013 -0.021,-0.03 -0.021,-0.05 0,-0.014 0.003,-0.026 0.01,-0.036 0.006,-0.011 0.015,-0.019 0.027,-0.024 0.011,-0.006 0.028,-0.011 0.05,-0.015 0.029,-0.006 0.049,-0.011 0.061,-0.016l0 -0.006c0,-0.012 -0.003,-0.021 -0.009,-0.026 -0.006,-0.005 -0.018,-0.008 -0.034,-0.008 -0.011,0 -0.02,0.002 -0.026,0.007 -0.007,0.004 -0.012,0.012 -0.016,0.023zm0.085 0.051c-0.008,0.003 -0.021,0.006 -0.039,0.01 -0.017,0.004 -0.029,0.007 -0.034,0.011 -0.008,0.006 -0.012,0.013 -0.012,0.022 0,0.009 0.003,0.016 0.01,0.023 0.006,0.006 0.015,0.009 0.025,0.009 0.011,0 0.022,-0.003 0.032,-0.011 0.008,-0.005 0.013,-0.012 0.015,-0.021 0.002,-0.005 0.003,-0.015 0.003,-0.03l0 -0.013zm0.118 0.129l0.072 0.009c0.001,0.008 0.004,0.014 0.008,0.017 0.006,0.005 0.016,0.007 0.028,0.007 0.017,0 0.029,-0.002 0.037,-0.007 0.006,-0.003 0.01,-0.009 0.013,-0.016 0.002,-0.005 0.003,-0.015 0.003,-0.029l0 -0.035c-0.019,0.026 -0.043,0.039 -0.071,0.039 -0.032,0 -0.058,-0.013 -0.076,-0.04 -0.015,-0.022 -0.022,-0.048 -0.022,-0.08 0,-0.04 0.009,-0.071 0.028,-0.092 0.02,-0.021 0.043,-0.031 0.072,-0.031 0.03,0 0.054,0.013 0.073,0.039l0 -0.034 0.059 0 0 0.213c0,0.028 -0.003,0.05 -0.007,0.063 -0.005,0.014 -0.011,0.025 -0.02,0.033 -0.008,0.008 -0.019,0.014 -0.033,0.019 -0.014,0.004 -0.032,0.006 -0.053,0.006 -0.041,0 -0.069,-0.007 -0.086,-0.02 -0.017,-0.014 -0.025,-0.032 -0.025,-0.053 0,-0.002 0,-0.005 0,-0.008zm0.056 -0.139c0,0.025 0.005,0.044 0.015,0.055 0.01,0.012 0.022,0.018 0.036,0.018 0.015,0 0.028,-0.006 0.039,-0.018 0.011,-0.012 0.016,-0.03 0.016,-0.053 0,-0.025 -0.005,-0.043 -0.015,-0.055 -0.011,-0.012 -0.023,-0.018 -0.039,-0.018 -0.015,0 -0.027,0.006 -0.037,0.018 -0.01,0.011 -0.015,0.029 -0.015,0.053zm0.368 0.049l0.063 0.01c-0.008,0.023 -0.021,0.041 -0.038,0.053 -0.018,0.012 -0.04,0.018 -0.066,0.018 -0.041,0 -0.072,-0.014 -0.092,-0.041 -0.015,-0.021 -0.023,-0.049 -0.023,-0.082 0,-0.039 0.01,-0.07 0.031,-0.093 0.02,-0.022 0.046,-0.033 0.078,-0.033 0.035,0 0.063,0.011 0.084,0.035 0.02,0.023 0.03,0.059 0.029,0.108l-0.158 0c0.001,0.018 0.006,0.033 0.016,0.043 0.009,0.011 0.021,0.016 0.036,0.016 0.01,0 0.018,-0.003 0.025,-0.008 0.006,-0.006 0.011,-0.014 0.015,-0.026zm0.003 -0.064c0,-0.018 -0.005,-0.032 -0.014,-0.042 -0.009,-0.009 -0.019,-0.014 -0.032,-0.014 -0.014,0 -0.025,0.005 -0.034,0.015 -0.009,0.01 -0.014,0.024 -0.013,0.041l0.093 0zm0.331 0.139l-0.063 0 0 -0.121c0,-0.026 -0.001,-0.043 -0.004,-0.05 -0.003,-0.008 -0.007,-0.014 -0.013,-0.018 -0.006,-0.004 -0.014,-0.006 -0.022,-0.006 -0.011,0 -0.021,0.003 -0.03,0.009 -0.009,0.006 -0.015,0.014 -0.018,0.024 -0.003,0.01 -0.005,0.028 -0.005,0.054l0 0.108 -0.063 0 0 -0.238 0.059 0 0 0.035c0.021,-0.027 0.047,-0.04 0.079,-0.04 0.014,0 0.026,0.002 0.038,0.007 0.012,0.005 0.02,0.012 0.026,0.019 0.006,0.008 0.01,0.017 0.013,0.027 0.002,0.01 0.003,0.024 0.003,0.042l0 0.148z"/>
  <path class="fil0" d="M12.105 1.245l-0.125 0 -0.049 -0.13 -0.229 0 -0.047 0.13 -0.123 0 0.222 -0.571 0.122 0 0.229 0.571zm-0.211 -0.227l-0.08 -0.211 -0.077 0.211 0.157 0zm0.523 0.227l0 -0.062c-0.015,0.022 -0.035,0.039 -0.06,0.053 -0.024,0.013 -0.05,0.019 -0.077,0.019 -0.028,0 -0.053,-0.006 -0.075,-0.018 -0.023,-0.013 -0.038,-0.03 -0.048,-0.052 -0.01,-0.022 -0.015,-0.053 -0.015,-0.092l0 -0.262 0.109 0 0 0.19c0,0.059 0.002,0.094 0.006,0.108 0.004,0.013 0.011,0.023 0.022,0.031 0.011,0.007 0.024,0.011 0.041,0.011 0.019,0 0.035,-0.005 0.05,-0.015 0.015,-0.01 0.025,-0.023 0.031,-0.038 0.005,-0.016 0.008,-0.053 0.008,-0.112l0 -0.175 0.109 0 0 0.414 -0.101 0zm0.152 -0.117l0.11 -0.016c0.005,0.021 0.014,0.037 0.029,0.048 0.014,0.011 0.034,0.016 0.06,0.016 0.028,0 0.049,-0.005 0.063,-0.015 0.01,-0.008 0.015,-0.018 0.015,-0.03 0,-0.008 -0.003,-0.015 -0.008,-0.02 -0.005,-0.006 -0.018,-0.01 -0.037,-0.015 -0.088,-0.019 -0.144,-0.037 -0.168,-0.053 -0.032,-0.023 -0.049,-0.054 -0.049,-0.094 0,-0.036 0.015,-0.066 0.043,-0.09 0.028,-0.025 0.072,-0.037 0.131,-0.037 0.057,0 0.099,0.009 0.127,0.028 0.027,0.019 0.046,0.046 0.056,0.082l-0.102 0.019c-0.005,-0.016 -0.013,-0.028 -0.026,-0.037 -0.012,-0.009 -0.03,-0.013 -0.053,-0.013 -0.029,0 -0.049,0.004 -0.062,0.012 -0.008,0.006 -0.012,0.013 -0.012,0.022 0,0.008 0.003,0.015 0.01,0.02 0.01,0.008 0.045,0.018 0.103,0.031 0.058,0.013 0.099,0.03 0.122,0.049 0.023,0.019 0.035,0.047 0.035,0.081 0,0.038 -0.016,0.071 -0.048,0.098 -0.031,0.027 -0.078,0.041 -0.14,0.041 -0.057,0 -0.101,-0.011 -0.134,-0.034 -0.033,-0.023 -0.055,-0.054 -0.065,-0.093zm0.45 0.143l0.125 0.015c0.002,0.015 0.007,0.025 0.015,0.031 0.01,0.007 0.026,0.011 0.049,0.011 0.028,0 0.05,-0.004 0.064,-0.013 0.01,-0.005 0.017,-0.014 0.022,-0.027 0.003,-0.009 0.005,-0.026 0.005,-0.05l0 -0.061c-0.033,0.045 -0.074,0.068 -0.124,0.068 -0.055,0 -0.1,-0.024 -0.132,-0.071 -0.025,-0.037 -0.038,-0.083 -0.038,-0.138 0,-0.07 0.016,-0.122 0.05,-0.159 0.033,-0.037 0.075,-0.055 0.124,-0.055 0.052,0 0.094,0.023 0.127,0.068l0 -0.059 0.102 0 0 0.371c0,0.049 -0.004,0.085 -0.012,0.109 -0.008,0.024 -0.019,0.043 -0.034,0.057 -0.014,0.014 -0.034,0.025 -0.058,0.032 -0.024,0.008 -0.055,0.012 -0.092,0.012 -0.07,0 -0.12,-0.012 -0.149,-0.036 -0.03,-0.024 -0.044,-0.055 -0.044,-0.092 0,-0.003 0,-0.008 0,-0.013zm0.098 -0.242c0,0.044 0.009,0.076 0.026,0.097 0.017,0.02 0.038,0.03 0.062,0.03 0.027,0 0.05,-0.01 0.068,-0.031 0.018,-0.021 0.028,-0.052 0.028,-0.093 0,-0.043 -0.009,-0.074 -0.027,-0.095 -0.017,-0.021 -0.04,-0.031 -0.067,-0.031 -0.026,0 -0.047,0.01 -0.064,0.03 -0.017,0.021 -0.026,0.052 -0.026,0.093zm0.616 0.085l0.11 0.018c-0.014,0.04 -0.036,0.071 -0.067,0.092 -0.03,0.021 -0.068,0.031 -0.113,0.031 -0.072,0 -0.125,-0.023 -0.16,-0.071 -0.027,-0.037 -0.041,-0.085 -0.041,-0.142 0,-0.069 0.018,-0.123 0.054,-0.162 0.036,-0.038 0.081,-0.058 0.136,-0.058 0.061,0 0.11,0.02 0.145,0.061 0.036,0.041 0.053,0.103 0.051,0.187l-0.273 0c0.001,0.033 0.009,0.058 0.026,0.076 0.017,0.018 0.038,0.027 0.063,0.027 0.017,0 0.031,-0.005 0.043,-0.014 0.012,-0.009 0.02,-0.024 0.026,-0.045zm0.007 -0.111c-0.001,-0.032 -0.009,-0.056 -0.025,-0.072 -0.015,-0.017 -0.034,-0.025 -0.056,-0.025 -0.024,0 -0.044,0.009 -0.059,0.026 -0.016,0.017 -0.023,0.041 -0.023,0.071l0.163 0zm0.131 0.242l0 -0.086 0.155 -0.178c0.025,-0.029 0.044,-0.049 0.056,-0.062 -0.013,0.001 -0.029,0.002 -0.05,0.002l-0.146 0.001 0 -0.091 0.342 0 0 0.077 -0.158 0.182 -0.056 0.061c0.031,-0.002 0.05,-0.003 0.057,-0.003l0.169 0 0 0.097 -0.369 0zm0.66 -0.131l0.109 0.018c-0.014,0.04 -0.036,0.071 -0.066,0.092 -0.03,0.021 -0.068,0.031 -0.113,0.031 -0.072,0 -0.126,-0.023 -0.16,-0.071 -0.027,-0.037 -0.041,-0.085 -0.041,-0.142 0,-0.069 0.018,-0.123 0.054,-0.162 0.035,-0.038 0.081,-0.058 0.136,-0.058 0.061,0 0.109,0.02 0.145,0.061 0.035,0.041 0.053,0.103 0.051,0.187l-0.274 0c0.001,0.033 0.01,0.058 0.027,0.076 0.017,0.018 0.038,0.027 0.063,0.027 0.017,0 0.031,-0.005 0.043,-0.014 0.011,-0.009 0.02,-0.024 0.026,-0.045zm0.006 -0.111c0,-0.032 -0.008,-0.056 -0.024,-0.072 -0.016,-0.017 -0.034,-0.025 -0.057,-0.025 -0.023,0 -0.043,0.009 -0.059,0.026 -0.015,0.017 -0.023,0.041 -0.023,0.071l0.163 0zm0.176 -0.228l0 -0.101 0.109 0 0 0.101 -0.109 0zm0 0.47l0 -0.414 0.109 0 0 0.414 -0.109 0zm0.56 -0.291l-0.108 0.019c-0.003,-0.022 -0.012,-0.038 -0.024,-0.049 -0.013,-0.01 -0.03,-0.016 -0.05,-0.016 -0.028,0 -0.049,0.01 -0.066,0.029 -0.016,0.018 -0.024,0.05 -0.024,0.094 0,0.049 0.008,0.084 0.025,0.104 0.016,0.021 0.038,0.031 0.066,0.031 0.021,0 0.038,-0.006 0.051,-0.018 0.013,-0.012 0.022,-0.032 0.028,-0.061l0.107 0.018c-0.011,0.05 -0.032,0.087 -0.064,0.112 -0.031,0.025 -0.074,0.038 -0.127,0.038 -0.06,0 -0.109,-0.019 -0.144,-0.057 -0.036,-0.038 -0.054,-0.091 -0.054,-0.159 0,-0.068 0.018,-0.122 0.054,-0.16 0.036,-0.038 0.084,-0.057 0.146,-0.057 0.05,0 0.09,0.011 0.12,0.033 0.03,0.021 0.051,0.054 0.064,0.099zm0.168 -0.28l0 0.211c0.036,-0.042 0.078,-0.063 0.128,-0.063 0.025,0 0.048,0.005 0.068,0.014 0.021,0.01 0.036,0.021 0.046,0.036 0.011,0.014 0.018,0.031 0.021,0.048 0.004,0.018 0.006,0.045 0.006,0.082l0 0.243 -0.109 0 0 -0.218c0,-0.044 -0.002,-0.071 -0.006,-0.083 -0.005,-0.012 -0.012,-0.021 -0.023,-0.028 -0.01,-0.007 -0.024,-0.01 -0.04,-0.01 -0.018,0 -0.034,0.004 -0.049,0.013 -0.014,0.009 -0.025,0.022 -0.032,0.04 -0.006,0.018 -0.01,0.044 -0.01,0.079l0 0.207 -0.109 0 0 -0.571 0.109 0zm0.734 0.571l-0.109 0 0 -0.211c0,-0.045 -0.003,-0.074 -0.007,-0.087 -0.005,-0.013 -0.013,-0.023 -0.023,-0.03 -0.011,-0.008 -0.024,-0.011 -0.039,-0.011 -0.019,0 -0.036,0.005 -0.051,0.015 -0.015,0.011 -0.026,0.025 -0.031,0.042 -0.006,0.017 -0.009,0.048 -0.009,0.095l0 0.187 -0.109 0 0 -0.414 0.101 0 0 0.061c0.036,-0.047 0.082,-0.07 0.137,-0.07 0.024,0 0.047,0.005 0.067,0.013 0.02,0.009 0.035,0.02 0.045,0.033 0.011,0.014 0.018,0.029 0.022,0.046 0.004,0.018 0.006,0.042 0.006,0.074l0 0.257zm0.328 -0.131l0.109 0.018c-0.014,0.04 -0.036,0.071 -0.067,0.092 -0.03,0.021 -0.068,0.031 -0.113,0.031 -0.072,0 -0.125,-0.023 -0.16,-0.071 -0.027,-0.037 -0.041,-0.085 -0.041,-0.142 0,-0.069 0.018,-0.123 0.054,-0.162 0.036,-0.038 0.081,-0.058 0.136,-0.058 0.061,0 0.11,0.02 0.145,0.061 0.036,0.041 0.053,0.103 0.051,0.187l-0.273 0c0.001,0.033 0.009,0.058 0.026,0.076 0.017,0.018 0.038,0.027 0.063,0.027 0.017,0 0.032,-0.005 0.043,-0.014 0.012,-0.009 0.021,-0.024 0.027,-0.045zm0.006 -0.111c-0.001,-0.032 -0.009,-0.056 -0.025,-0.072 -0.015,-0.017 -0.034,-0.025 -0.056,-0.025 -0.024,0 -0.044,0.009 -0.059,0.026 -0.016,0.017 -0.023,0.041 -0.023,0.071l0.163 0zm0.365 -0.172l0 0.087 -0.075 0 0 0.167c0,0.034 0,0.054 0.002,0.06 0.001,0.005 0.004,0.01 0.01,0.014 0.005,0.003 0.011,0.005 0.018,0.005 0.01,0 0.025,-0.003 0.044,-0.01l0.009 0.085c-0.025,0.011 -0.054,0.016 -0.086,0.016 -0.02,0 -0.037,-0.003 -0.053,-0.01 -0.016,-0.007 -0.027,-0.015 -0.035,-0.026 -0.007,-0.01 -0.012,-0.025 -0.015,-0.043 -0.002,-0.012 -0.004,-0.038 -0.004,-0.077l0 -0.181 -0.05 0 0 -0.087 0.05 0 0 -0.082 0.11 -0.065 0 0.147 0.075 0z"/>
  <path class="fil0" d="M18.926 0.785l0 -0.094 0.241 0 0 0.221c-0.024,0.023 -0.057,0.043 -0.102,0.06 -0.044,0.018 -0.089,0.026 -0.135,0.026 -0.058,0 -0.108,-0.012 -0.151,-0.036 -0.043,-0.024 -0.075,-0.059 -0.097,-0.105 -0.022,-0.045 -0.032,-0.094 -0.032,-0.147 0,-0.058 0.012,-0.109 0.036,-0.154 0.024,-0.045 0.059,-0.08 0.106,-0.104 0.035,-0.018 0.079,-0.027 0.132,-0.027 0.069,0 0.123,0.014 0.161,0.043 0.039,0.029 0.064,0.069 0.075,0.12l-0.112 0.021c-0.007,-0.027 -0.022,-0.049 -0.043,-0.065 -0.022,-0.016 -0.049,-0.023 -0.081,-0.023 -0.049,0 -0.087,0.015 -0.116,0.046 -0.029,0.031 -0.043,0.077 -0.043,0.138 0,0.066 0.014,0.115 0.043,0.148 0.03,0.033 0.068,0.049 0.115,0.049 0.023,0 0.047,-0.004 0.07,-0.013 0.024,-0.009 0.044,-0.021 0.061,-0.034l0 -0.07 -0.128 0zm0.575 0.076l0.106 0.018c-0.013,0.039 -0.035,0.069 -0.064,0.089 -0.029,0.02 -0.066,0.03 -0.11,0.03 -0.07,0 -0.121,-0.022 -0.155,-0.068 -0.026,-0.037 -0.04,-0.083 -0.04,-0.139 0,-0.066 0.018,-0.118 0.053,-0.156 0.034,-0.038 0.078,-0.056 0.131,-0.056 0.06,0 0.107,0.019 0.141,0.059 0.035,0.039 0.051,0.1 0.05,0.181l-0.266 0c0.001,0.031 0.01,0.056 0.026,0.073 0.016,0.018 0.037,0.027 0.061,0.027 0.017,0 0.03,-0.005 0.042,-0.014 0.011,-0.009 0.02,-0.023 0.025,-0.044zm0.007 -0.107c-0.001,-0.031 -0.009,-0.054 -0.024,-0.07 -0.015,-0.016 -0.034,-0.024 -0.055,-0.024 -0.023,0 -0.042,0.008 -0.057,0.025 -0.015,0.017 -0.023,0.04 -0.023,0.069l0.159 0zm0.188 -0.167l0.099 0 0 0.059c0.013,-0.02 0.03,-0.036 0.052,-0.049 0.022,-0.012 0.047,-0.018 0.073,-0.018 0.047,0 0.086,0.018 0.119,0.054 0.032,0.037 0.048,0.088 0.048,0.153 0,0.067 -0.016,0.119 -0.049,0.157 -0.032,0.037 -0.072,0.055 -0.119,0.055 -0.022,0 -0.042,-0.004 -0.06,-0.013 -0.018,-0.009 -0.037,-0.024 -0.057,-0.045l0 0.201 -0.106 0 0 -0.554zm0.105 0.194c0,0.046 0.009,0.079 0.026,0.101 0.018,0.021 0.04,0.032 0.065,0.032 0.025,0 0.046,-0.01 0.062,-0.03 0.016,-0.02 0.024,-0.052 0.024,-0.097 0,-0.043 -0.008,-0.074 -0.025,-0.094 -0.017,-0.021 -0.037,-0.031 -0.062,-0.031 -0.026,0 -0.048,0.01 -0.065,0.03 -0.017,0.02 -0.025,0.05 -0.025,0.089zm0.472 0.207l-0.106 0 0 -0.401 0.098 0 0 0.057c0.017,-0.027 0.032,-0.045 0.046,-0.053 0.013,-0.008 0.029,-0.012 0.046,-0.012 0.024,0 0.047,0.006 0.07,0.02l-0.033 0.092c-0.018,-0.012 -0.035,-0.017 -0.05,-0.017 -0.015,0 -0.028,0.004 -0.038,0.012 -0.01,0.008 -0.018,0.023 -0.024,0.044 -0.006,0.022 -0.009,0.066 -0.009,0.135l0 0.123zm0.465 0l0 -0.06c-0.015,0.022 -0.034,0.039 -0.058,0.051 -0.024,0.013 -0.049,0.019 -0.076,0.019 -0.027,0 -0.051,-0.006 -0.072,-0.017 -0.022,-0.012 -0.037,-0.029 -0.047,-0.05 -0.009,-0.022 -0.014,-0.052 -0.014,-0.089l0 -0.255 0.106 0 0 0.185c0,0.056 0.002,0.091 0.006,0.104 0.004,0.012 0.011,0.023 0.021,0.03 0.01,0.007 0.024,0.011 0.04,0.011 0.018,0 0.034,-0.005 0.048,-0.015 0.015,-0.01 0.025,-0.022 0.03,-0.037 0.005,-0.015 0.008,-0.051 0.008,-0.108l0 -0.17 0.106 0 0 0.401 -0.098 0zm-0.207 -0.453l0 -0.091 0.091 0 0 0.091 -0.091 0zm0.162 0l0 -0.091 0.092 0 0 0.091 -0.092 0zm0.205 0.052l0.059 0 0 -0.03c0,-0.034 0.004,-0.059 0.011,-0.076 0.007,-0.017 0.02,-0.03 0.04,-0.041 0.019,-0.01 0.044,-0.015 0.073,-0.015 0.03,0 0.06,0.004 0.089,0.013l-0.013 0.074c-0.017,-0.004 -0.034,-0.006 -0.05,-0.006 -0.016,0 -0.027,0.003 -0.034,0.011 -0.007,0.007 -0.01,0.021 -0.01,0.041l0 0.029 0.08 0 0 0.084 -0.08 0 0 0.317 -0.106 0 0 -0.317 -0.059 0 0 -0.084zm0.487 0l0 0.084 -0.072 0 0 0.163c0,0.033 0,0.052 0.002,0.057 0.001,0.006 0.004,0.01 0.009,0.014 0.005,0.003 0.011,0.005 0.018,0.005 0.01,0 0.024,-0.003 0.043,-0.01l0.009 0.082c-0.025,0.011 -0.053,0.016 -0.084,0.016 -0.019,0 -0.036,-0.003 -0.051,-0.009 -0.016,-0.007 -0.027,-0.015 -0.034,-0.025 -0.007,-0.011 -0.012,-0.024 -0.015,-0.042 -0.002,-0.012 -0.003,-0.037 -0.003,-0.075l0 -0.176 -0.049 0 0 -0.084 0.049 0 0 -0.08 0.106 -0.062 0 0.142 0.072 0z"/>
 </g>
</svg>
