<?xml version="1.0" encoding="UTF-8"?>
<!-- Generator: Adobe Illustrator 24.0.1, SVG Export Plug-In . SVG Version: 6.00 Build 0)  -->
<svg version="1.1" id="Layer_1" xmlns="http://www.w3.org/2000/svg" xmlns:xlink="http://www.w3.org/1999/xlink" x="0px" y="0px" viewBox="0 0 157.3 185" style="enable-background:new 0 0 157.3 185;" xml:space="preserve">
<style type="text/css">
	.st0{fill:#27AA43;}
	.st1{opacity:0.2;fill:#ED8B18;}
	.st2{filter:url(#Adobe_OpacityMaskFilter);}
	.st3{filter:url(#Adobe_OpacityMaskFilter_1_);}
	.st4{mask:url(#SVGID_1_);fill:url(#SVGID_2_);}
	.st5{opacity:0.1;fill:url(#SVGID_3_);}
	.st6{filter:url(#Adobe_OpacityMaskFilter_2_);}
	.st7{filter:url(#Adobe_OpacityMaskFilter_3_);}
	.st8{mask:url(#SVGID_4_);fill:url(#SVGID_5_);}
	.st9{opacity:0.1;fill:url(#SVGID_6_);}
	.st10{fill:#CFA081;}
	.st11{fill:#29C150;}
	.st12{fill:#228735;}
	.st13{fill:url(#SVGID_7_);}
	.st14{fill:url(#SVGID_8_);}
	.st15{filter:url(#Adobe_OpacityMaskFilter_4_);}
	.st16{filter:url(#Adobe_OpacityMaskFilter_5_);}
	.st17{mask:url(#SVGID_9_);fill:url(#SVGID_10_);}
	.st18{opacity:0.3;fill:url(#SVGID_11_);}
	.st19{fill:url(#SVGID_12_);}
	.st20{fill:url(#SVGID_13_);}
	.st21{fill:url(#SVGID_14_);}
	.st22{filter:url(#Adobe_OpacityMaskFilter_6_);}
	.st23{filter:url(#Adobe_OpacityMaskFilter_7_);}
	.st24{mask:url(#SVGID_15_);fill:url(#SVGID_16_);}
	.st25{opacity:0.2;fill:url(#SVGID_17_);}
	.st26{filter:url(#Adobe_OpacityMaskFilter_8_);}
	.st27{filter:url(#Adobe_OpacityMaskFilter_9_);}
	.st28{mask:url(#SVGID_18_);fill:url(#SVGID_19_);}
	.st29{opacity:0.2;fill:url(#SVGID_20_);}
	.st30{filter:url(#Adobe_OpacityMaskFilter_10_);}
	.st31{filter:url(#Adobe_OpacityMaskFilter_11_);}
	.st32{mask:url(#SVGID_21_);fill:url(#SVGID_22_);}
	.st33{opacity:0.2;fill:url(#SVGID_23_);}
</style>
<g>
	<path class="st0" d="M0,47.3c0,0,77-26.6,85.8-25.8c8.8,0.9,71.3,24.3,70.8,25.9C156,49,81.2,81.5,81.2,81.5L2.5,50.7L0,47.3z"/>
	<path class="st1" d="M38.8,63.8l82.9-30.7c-1.5-0.6-0.9-0.3-2.4-0.8l-83,30.6L38.8,63.8z"/>
	<defs>
		<filter id="Adobe_OpacityMaskFilter" filterUnits="userSpaceOnUse" x="0.8" y="21.6" width="115.8" height="40.6">
			<feFlood style="flood-color:white;flood-opacity:1" result="back"/>
			<feBlend in="SourceGraphic" in2="back" mode="normal"/>
		</filter>
	</defs>
	<mask maskUnits="userSpaceOnUse" x="0.8" y="21.6" width="115.8" height="40.6" id="SVGID_1_">
		<g class="st2">
			<defs>
				<filter id="Adobe_OpacityMaskFilter_1_" filterUnits="userSpaceOnUse" x="0.8" y="21.6" width="115.8" height="40.6">
					<feFlood style="flood-color:white;flood-opacity:1" result="back"/>
					<feBlend in="SourceGraphic" in2="back" mode="normal"/>
				</filter>
			</defs>
			<mask maskUnits="userSpaceOnUse" x="0.8" y="21.6" width="115.8" height="40.6" id="SVGID_1_">
				<g class="st3">
				</g>
			</mask>
			<linearGradient id="SVGID_2_" gradientUnits="userSpaceOnUse" x1="0.8125" y1="41.9364" x2="116.6524" y2="41.9364">
				<stop offset="0.2488" style="stop-color:#FFFFFF"/>
				<stop offset="1" style="stop-color:#000000"/>
			</linearGradient>
			<path class="st4" d="M1,47.6c0,0,35.4,14.7,36.8,14.7c1.2,0,60.1-23.5,78.8-31.1c-13.7-4.9-26.5-9.2-30.2-9.5     C77.9,20.8,3.8,46.4,0.8,47.4C0.9,47.4,0.9,47.5,1,47.6z"/>
		</g>
	</mask>
	<linearGradient id="SVGID_3_" gradientUnits="userSpaceOnUse" x1="0.8125" y1="41.9364" x2="116.6524" y2="41.9364">
		<stop offset="0.2488" style="stop-color:#FFFFFF"/>
		<stop offset="1" style="stop-color:#F0BC49"/>
	</linearGradient>
	<path class="st5" d="M1,47.6c0,0,35.4,14.7,36.8,14.7c1.2,0,60.1-23.5,78.8-31.1c-13.7-4.9-26.5-9.2-30.2-9.5   C77.9,20.8,3.8,46.4,0.8,47.4C0.9,47.4,0.9,47.5,1,47.6z"/>
	<defs>
		<filter id="Adobe_OpacityMaskFilter_2_" filterUnits="userSpaceOnUse" x="39.5" y="33.4" width="117.7" height="48.2">
			<feFlood style="flood-color:white;flood-opacity:1" result="back"/>
			<feBlend in="SourceGraphic" in2="back" mode="normal"/>
		</filter>
	</defs>
	<mask maskUnits="userSpaceOnUse" x="39.5" y="33.4" width="117.7" height="48.2" id="SVGID_4_">
		<g class="st6">
			<defs>
				<filter id="Adobe_OpacityMaskFilter_3_" filterUnits="userSpaceOnUse" x="39.5" y="33.4" width="117.7" height="48.2">
					<feFlood style="flood-color:white;flood-opacity:1" result="back"/>
					<feBlend in="SourceGraphic" in2="back" mode="normal"/>
				</filter>
			</defs>
			<mask maskUnits="userSpaceOnUse" x="39.5" y="33.4" width="117.7" height="48.2" id="SVGID_4_">
				<g class="st7">
				</g>
			</mask>
			<linearGradient id="SVGID_5_" gradientUnits="userSpaceOnUse" x1="39.523" y1="57.4536" x2="157.2656" y2="57.4536">
				<stop offset="0.2488" style="stop-color:#FFFFFF"/>
				<stop offset="1" style="stop-color:#000000"/>
			</linearGradient>
			<path class="st8" d="M84.5,80.6c13-5.7,72.3-31.6,72.8-33c0.3-0.8-16.9-7.7-34.5-14.2L39.5,63.9l0.7,1.4l41.4,16.2L84.5,80.6z"/>
		</g>
	</mask>
	<linearGradient id="SVGID_6_" gradientUnits="userSpaceOnUse" x1="39.523" y1="57.4536" x2="157.2656" y2="57.4536">
		<stop offset="0.2488" style="stop-color:#FFFFFF"/>
		<stop offset="1" style="stop-color:#F0BC49"/>
	</linearGradient>
	<path class="st9" d="M84.5,80.6c13-5.7,72.3-31.6,72.8-33c0.3-0.8-16.9-7.7-34.5-14.2L39.5,63.9l0.7,1.4l41.4,16.2L84.5,80.6z"/>
	<path class="st10" d="M78.4,185c-6.8,0.9-58.2-29.3-62.8-33.1C10.9,148.1,0.3,47.4,0.3,47.4S56.3,72.9,78,77.2   c0,0,2.1,4.9,78.6-29.7c0,0-10.6,100.6-15.3,104.5C136.6,155.7,85.2,185.9,78.4,185"/>
	<path class="st11" d="M78.4,185c-6.8,0.9-58.2-29.3-62.8-33.1C10.9,148.1,0.3,47.4,0.3,47.4S56.3,72.9,78,77.2   c0,0,2.1,4.9,78.6-29.7c0,0-10.6,100.6-15.3,104.5C136.6,155.7,85.2,185.9,78.4,185"/>
	<path class="st12" d="M141.3,151.9c4.7-3.8,15.3-104.5,15.3-104.5C80.1,82,78,77.2,78,77.2c0,0-0.1,0-0.1,0l0,0l1.7,107.8   C89.5,183.3,136.8,155.6,141.3,151.9z"/>
	<linearGradient id="SVGID_7_" gradientUnits="userSpaceOnUse" x1="75.9417" y1="28.9409" x2="75.9417" y2="170.1714">
		<stop offset="0" style="stop-color:#B82028"/>
		<stop offset="5.274013e-02" style="stop-color:#BC272C"/>
		<stop offset="0.1279" style="stop-color:#C83938"/>
		<stop offset="0.1784" style="stop-color:#D24A43"/>
		<stop offset="0.4113" style="stop-color:#CF4640"/>
		<stop offset="0.6614" style="stop-color:#C73938"/>
		<stop offset="0.9187" style="stop-color:#BA232A"/>
		<stop offset="1" style="stop-color:#B51B25"/>
	</linearGradient>
	<path class="st13" d="M33.4,162.8c0,1.2-6.5-100.2-4.8-101c1.7-0.8,81.3-32.9,81.3-32.9l13.8,4.9c0,0-80.2,33.7-81.7,34.5   c-1.7,0.9,4.4,101.8,4.4,101.8L33.4,162.8z"/>
	
		<linearGradient id="SVGID_8_" gradientUnits="userSpaceOnUse" x1="2166.3569" y1="29.6655" x2="2166.3569" y2="168.6167" gradientTransform="matrix(-1 0 0 1 2251.3801 0)">
		<stop offset="0" style="stop-color:#D24A43"/>
		<stop offset="0.1373" style="stop-color:#C63E3B"/>
		<stop offset="0.417" style="stop-color:#B32A2F"/>
		<stop offset="0.7024" style="stop-color:#A81F27"/>
		<stop offset="1" style="stop-color:#A41B25"/>
	</linearGradient>
	<path class="st14" d="M126.3,161.2c0,1.2,6.5-100.2,4.9-101.1c-1.7-0.8-77.4-30.5-77.4-30.5l-15.1,4.7c0,0,77.6,30.8,79.1,31.6   c1.7,0.9-4.1,102.7-4.1,102.7L126.3,161.2z"/>
	<defs>
		<filter id="Adobe_OpacityMaskFilter_4_" filterUnits="userSpaceOnUse" x="0.8" y="47.8" width="152" height="134.7">
			<feFlood style="flood-color:white;flood-opacity:1" result="back"/>
			<feBlend in="SourceGraphic" in2="back" mode="normal"/>
		</filter>
	</defs>
	<mask maskUnits="userSpaceOnUse" x="0.8" y="47.8" width="152" height="134.7" id="SVGID_9_">
		<g class="st15">
			<defs>
				<filter id="Adobe_OpacityMaskFilter_5_" filterUnits="userSpaceOnUse" x="0.8" y="47.8" width="152" height="134.7">
					<feFlood style="flood-color:white;flood-opacity:1" result="back"/>
					<feBlend in="SourceGraphic" in2="back" mode="normal"/>
				</filter>
			</defs>
			<mask maskUnits="userSpaceOnUse" x="0.8" y="47.8" width="152" height="134.7" id="SVGID_9_">
				<g class="st16">
				</g>
			</mask>
			<linearGradient id="SVGID_10_" gradientUnits="userSpaceOnUse" x1="76.7517" y1="47.7778" x2="76.7517" y2="182.4702">
				<stop offset="0.4977" style="stop-color:#FFFFFF"/>
				<stop offset="0.5514" style="stop-color:#F9F9F9"/>
				<stop offset="0.6219" style="stop-color:#E9E9E9"/>
				<stop offset="0.7018" style="stop-color:#CECECE"/>
				<stop offset="0.7885" style="stop-color:#A8A8A8"/>
				<stop offset="0.8808" style="stop-color:#777777"/>
				<stop offset="0.9764" style="stop-color:#3C3C3C"/>
				<stop offset="1" style="stop-color:#2D2D2D"/>
			</linearGradient>
			<path class="st17" d="M107.7,67c-28.8,13.2-46.6,5.2-60.6,0C30.7,60.9,1,47.1,0.8,47.8c-0.3,0.7,29.1,16,45.8,21.3     c27.1,8.5,27.7,5.7,29.6,62c1,28.6,1.8,51.4,3.1,51.4c1.3,0,2.2-22.8,1.6-51.4c-1.3-55.9,3.4-52.8,27.8-61.6     c15.8-5.7,44.4-19.7,44.1-20.4C152.5,48.4,123,59.9,107.7,67z"/>
		</g>
	</mask>
	<linearGradient id="SVGID_11_" gradientUnits="userSpaceOnUse" x1="76.7517" y1="47.7778" x2="76.7517" y2="182.4702">
		<stop offset="0.4977" style="stop-color:#FFFFFF"/>
		<stop offset="0.5453" style="stop-color:#F9FBFB"/>
		<stop offset="0.6079" style="stop-color:#E9F1EE"/>
		<stop offset="0.6787" style="stop-color:#CDE0D9"/>
		<stop offset="0.7557" style="stop-color:#A8C9BC"/>
		<stop offset="0.8377" style="stop-color:#77AB96"/>
		<stop offset="0.9224" style="stop-color:#3C8669"/>
		<stop offset="1" style="stop-color:#00613B"/>
	</linearGradient>
	<path class="st18" d="M107.7,67c-28.8,13.2-46.6,5.2-60.6,0C30.7,60.9,1,47.1,0.8,47.8c-0.3,0.7,29.1,16,45.8,21.3   c27.1,8.5,27.7,5.7,29.6,62c1,28.6,1.8,51.4,3.1,51.4c1.3,0,2.2-22.8,1.6-51.4c-1.3-55.9,3.4-52.8,27.8-61.6   c15.8-5.7,44.4-19.7,44.1-20.4C152.5,48.4,123,59.9,107.7,67z"/>
	
		<linearGradient id="SVGID_12_" gradientUnits="userSpaceOnUse" x1="29.8269" y1="-480.0728" x2="29.8269" y2="-419.617" gradientTransform="matrix(0.8961 -0.4438 0.4438 0.8961 223.3202 445.4369)">
		<stop offset="0.1784" style="stop-color:#D24A43"/>
		<stop offset="0.4113" style="stop-color:#CF4640"/>
		<stop offset="0.6614" style="stop-color:#C73938"/>
		<stop offset="0.9187" style="stop-color:#BA232A"/>
		<stop offset="1" style="stop-color:#B51B25"/>
	</linearGradient>
	<path class="st19" d="M76.6,26.9C69.5,15.5,55.4-3.1,41,0.4c-1.1,0.3-2.1,0.6-3,1.1C24.8,8,28.5,28.8,30.7,41.1   c0.2,1,0.4,2.1,0.5,2.7c0.1,2.8,1.3,5.5,3.5,7.4c4,3.6,9.1,3.5,22.3,1.6c6.6-1,12.9-2.2,13.1-2.2l8.2-1.6l-0.2-19.7L76.6,26.9z    M68.2,40.8c0,0-23.7,2.7-24.6,0.8c-1-2.3-5.8-29,0.8-29.6c9.8-0.9,23.8,23.2,23.8,23.2L68.2,40.8z"/>
	
		<linearGradient id="SVGID_13_" gradientUnits="userSpaceOnUse" x1="1824.4363" y1="408.7205" x2="1824.4363" y2="469.1765" gradientTransform="matrix(-0.8961 -0.4438 -0.4438 0.8961 1941.2113 445.4369)">
		<stop offset="0.1784" style="stop-color:#D24A43"/>
		<stop offset="0.4113" style="stop-color:#CF4640"/>
		<stop offset="0.6614" style="stop-color:#C73938"/>
		<stop offset="0.9187" style="stop-color:#BA232A"/>
		<stop offset="1" style="stop-color:#B51B25"/>
	</linearGradient>
	<path class="st20" d="M83.9,29.3L83.6,49l8.2,1.6c0.3,0,6.5,1.2,13.1,2.2c13.2,2,18.2,2,22.3-1.6c2.2-1.9,3.4-4.6,3.5-7.4   c0.1-0.5,0.3-1.7,0.5-2.7c2.2-12.4,5.9-33.1-7.2-39.6c-1-0.5-2-0.8-3-1.1c-14.4-3.5-28.5,15.1-35.6,26.5L83.9,29.3z M93.6,35.2   c0,0,14-24.1,23.8-23.2c6.6,0.6,1.8,27.4,0.8,29.6c-0.8,1.9-24.6-0.8-24.6-0.8L93.6,35.2z"/>
	
		<linearGradient id="SVGID_14_" gradientUnits="userSpaceOnUse" x1="2074.6284" y1="-530.1955" x2="2074.6284" y2="-553.8804" gradientTransform="matrix(-1 0 0 -1 2155.2522 -502.2907)">
		<stop offset="0" style="stop-color:#D24A43"/>
		<stop offset="0.3089" style="stop-color:#D04641"/>
		<stop offset="0.5843" style="stop-color:#C93C3A"/>
		<stop offset="0.8462" style="stop-color:#BE292E"/>
		<stop offset="1" style="stop-color:#B51B25"/>
	</linearGradient>
	<path class="st21" d="M73.2,49.8c0,0,4.3,4,15.5,0c0,0-3.1-12.3-4.2-21.3c0,0-3.1-1.4-7,0C77.5,28.5,70.2,37.5,73.2,49.8z"/>
	<defs>
		<filter id="Adobe_OpacityMaskFilter_6_" filterUnits="userSpaceOnUse" x="32.2" y="2.7" width="18.4" height="34.1">
			<feFlood style="flood-color:white;flood-opacity:1" result="back"/>
			<feBlend in="SourceGraphic" in2="back" mode="normal"/>
		</filter>
	</defs>
	<mask maskUnits="userSpaceOnUse" x="32.2" y="2.7" width="18.4" height="34.1" id="SVGID_15_">
		<g class="st22">
			<defs>
				<filter id="Adobe_OpacityMaskFilter_7_" filterUnits="userSpaceOnUse" x="32.2" y="2.7" width="18.4" height="34.1">
					<feFlood style="flood-color:white;flood-opacity:1" result="back"/>
					<feBlend in="SourceGraphic" in2="back" mode="normal"/>
				</filter>
			</defs>
			<mask maskUnits="userSpaceOnUse" x="32.2" y="2.7" width="18.4" height="34.1" id="SVGID_15_">
				<g class="st23">
				</g>
			</mask>
			
				<linearGradient id="SVGID_16_" gradientUnits="userSpaceOnUse" x1="86.1627" y1="135.4905" x2="86.1627" y2="170.6131" gradientTransform="matrix(0.9908 0.1356 -0.1356 0.9908 -24.4285 -143.7188)">
				<stop offset="0" style="stop-color:#3E3E3E"/>
				<stop offset="2.050309e-02" style="stop-color:#666666"/>
				<stop offset="4.781234e-02" style="stop-color:#949494"/>
				<stop offset="7.518313e-02" style="stop-color:#BBBBBB"/>
				<stop offset="0.1022" style="stop-color:#D9D9D9"/>
				<stop offset="0.1286" style="stop-color:#EEEEEE"/>
				<stop offset="0.1543" style="stop-color:#FBFBFB"/>
				<stop offset="0.1784" style="stop-color:#FFFFFF"/>
				<stop offset="0.3536" style="stop-color:#FCFCFC"/>
				<stop offset="0.4718" style="stop-color:#F3F3F3"/>
				<stop offset="0.5731" style="stop-color:#E4E4E4"/>
				<stop offset="0.6651" style="stop-color:#CFCFCF"/>
				<stop offset="0.7506" style="stop-color:#B3B3B3"/>
				<stop offset="0.8313" style="stop-color:#919191"/>
				<stop offset="0.9084" style="stop-color:#686868"/>
				<stop offset="0.9808" style="stop-color:#3A3A3A"/>
				<stop offset="1" style="stop-color:#2D2D2D"/>
			</linearGradient>
			<path class="st24" d="M37.6,16.8c-1.3,10.7,1.2,20.3-0.8,20.1c-2-0.3-5.7-11.8-4.4-22.5C34.1,0.5,50.1,1.6,50.5,4.7     C51.4,11.6,39.4,1.1,37.6,16.8z"/>
		</g>
	</mask>
	
		<linearGradient id="SVGID_17_" gradientUnits="userSpaceOnUse" x1="86.1627" y1="135.4905" x2="86.1627" y2="170.6131" gradientTransform="matrix(0.9908 0.1356 -0.1356 0.9908 -24.4285 -143.7188)">
		<stop offset="0" style="stop-color:#D96761"/>
		<stop offset="2.910180e-03" style="stop-color:#DA6C66"/>
		<stop offset="3.328378e-02" style="stop-color:#E59894"/>
		<stop offset="6.369201e-02" style="stop-color:#EFBDBB"/>
		<stop offset="9.365819e-02" style="stop-color:#F6DAD9"/>
		<stop offset="0.1231" style="stop-color:#FBEFEE"/>
		<stop offset="0.1516" style="stop-color:#FEFBFB"/>
		<stop offset="0.1784" style="stop-color:#FFFFFF"/>
		<stop offset="0.3607" style="stop-color:#FEFCFC"/>
		<stop offset="0.4837" style="stop-color:#FCF4F3"/>
		<stop offset="0.5892" style="stop-color:#F9E5E4"/>
		<stop offset="0.6848" style="stop-color:#F3D0CF"/>
		<stop offset="0.7738" style="stop-color:#EDB6B3"/>
		<stop offset="0.8578" style="stop-color:#E59591"/>
		<stop offset="0.9365" style="stop-color:#DB6F69"/>
		<stop offset="1" style="stop-color:#D24A43"/>
	</linearGradient>
	<path class="st25" d="M37.6,16.8c-1.3,10.7,1.2,20.3-0.8,20.1c-2-0.3-5.7-11.8-4.4-22.5C34.1,0.5,50.1,1.6,50.5,4.7   C51.4,11.6,39.4,1.1,37.6,16.8z"/>
	<defs>
		<filter id="Adobe_OpacityMaskFilter_8_" filterUnits="userSpaceOnUse" x="95.9" y="3.3" width="32.2" height="16.8">
			<feFlood style="flood-color:white;flood-opacity:1" result="back"/>
			<feBlend in="SourceGraphic" in2="back" mode="normal"/>
		</filter>
	</defs>
	<mask maskUnits="userSpaceOnUse" x="95.9" y="3.3" width="32.2" height="16.8" id="SVGID_18_">
		<g class="st26">
			<defs>
				<filter id="Adobe_OpacityMaskFilter_9_" filterUnits="userSpaceOnUse" x="95.9" y="3.3" width="32.2" height="16.8">
					<feFlood style="flood-color:white;flood-opacity:1" result="back"/>
					<feBlend in="SourceGraphic" in2="back" mode="normal"/>
				</filter>
			</defs>
			<mask maskUnits="userSpaceOnUse" x="95.9" y="3.3" width="32.2" height="16.8" id="SVGID_18_">
				<g class="st27">
				</g>
			</mask>
			
				<linearGradient id="SVGID_19_" gradientUnits="userSpaceOnUse" x1="735.619" y1="687.61" x2="735.619" y2="720.562" gradientTransform="matrix(0.5811 0.8138 -0.8138 0.5811 256.7242 -995.0707)">
				<stop offset="0" style="stop-color:#3E3E3E"/>
				<stop offset="2.050309e-02" style="stop-color:#666666"/>
				<stop offset="4.781234e-02" style="stop-color:#949494"/>
				<stop offset="7.518313e-02" style="stop-color:#BBBBBB"/>
				<stop offset="0.1022" style="stop-color:#D9D9D9"/>
				<stop offset="0.1286" style="stop-color:#EEEEEE"/>
				<stop offset="0.1543" style="stop-color:#FBFBFB"/>
				<stop offset="0.1784" style="stop-color:#FFFFFF"/>
				<stop offset="0.3536" style="stop-color:#FCFCFC"/>
				<stop offset="0.4718" style="stop-color:#F3F3F3"/>
				<stop offset="0.5731" style="stop-color:#E4E4E4"/>
				<stop offset="0.6651" style="stop-color:#CFCFCF"/>
				<stop offset="0.7506" style="stop-color:#B3B3B3"/>
				<stop offset="0.8313" style="stop-color:#919191"/>
				<stop offset="0.9084" style="stop-color:#686868"/>
				<stop offset="0.9808" style="stop-color:#3A3A3A"/>
				<stop offset="1" style="stop-color:#2D2D2D"/>
			</linearGradient>
			<path class="st28" d="M110.1,11.7c-8.3,5.9-13.2,9.4-14.1,8.1c-0.9-1.3,2.5-6.8,10.8-12.7c8.3-5.9,20.6-4.7,21.2,2.1     C128.2,10.8,118.4,5.7,110.1,11.7z"/>
		</g>
	</mask>
	
		<linearGradient id="SVGID_20_" gradientUnits="userSpaceOnUse" x1="735.619" y1="687.61" x2="735.619" y2="720.562" gradientTransform="matrix(0.5811 0.8138 -0.8138 0.5811 256.7242 -995.0707)">
		<stop offset="0" style="stop-color:#D96761"/>
		<stop offset="2.910180e-03" style="stop-color:#DA6C66"/>
		<stop offset="3.328378e-02" style="stop-color:#E59894"/>
		<stop offset="6.369201e-02" style="stop-color:#EFBDBB"/>
		<stop offset="9.365819e-02" style="stop-color:#F6DAD9"/>
		<stop offset="0.1231" style="stop-color:#FBEFEE"/>
		<stop offset="0.1516" style="stop-color:#FEFBFB"/>
		<stop offset="0.1784" style="stop-color:#FFFFFF"/>
		<stop offset="0.3607" style="stop-color:#FEFCFC"/>
		<stop offset="0.4837" style="stop-color:#FCF4F3"/>
		<stop offset="0.5892" style="stop-color:#F9E5E4"/>
		<stop offset="0.6848" style="stop-color:#F3D0CF"/>
		<stop offset="0.7738" style="stop-color:#EDB6B3"/>
		<stop offset="0.8578" style="stop-color:#E59591"/>
		<stop offset="0.9365" style="stop-color:#DB6F69"/>
		<stop offset="1" style="stop-color:#D24A43"/>
	</linearGradient>
	<path class="st29" d="M110.1,11.7c-8.3,5.9-13.2,9.4-14.1,8.1c-0.9-1.3,2.5-6.8,10.8-12.7c8.3-5.9,20.6-4.7,21.2,2.1   C128.2,10.8,118.4,5.7,110.1,11.7z"/>
	<defs>
		<filter id="Adobe_OpacityMaskFilter_10_" filterUnits="userSpaceOnUse" x="75" y="29.6" width="7.1" height="13.9">
			<feFlood style="flood-color:white;flood-opacity:1" result="back"/>
			<feBlend in="SourceGraphic" in2="back" mode="normal"/>
		</filter>
	</defs>
	<mask maskUnits="userSpaceOnUse" x="75" y="29.6" width="7.1" height="13.9" id="SVGID_21_">
		<g class="st30">
			<defs>
				<filter id="Adobe_OpacityMaskFilter_11_" filterUnits="userSpaceOnUse" x="75" y="29.6" width="7.1" height="13.9">
					<feFlood style="flood-color:white;flood-opacity:1" result="back"/>
					<feBlend in="SourceGraphic" in2="back" mode="normal"/>
				</filter>
			</defs>
			<mask maskUnits="userSpaceOnUse" x="75" y="29.6" width="7.1" height="13.9" id="SVGID_21_">
				<g class="st31">
				</g>
			</mask>
			
				<linearGradient id="SVGID_22_" gradientUnits="userSpaceOnUse" x1="179.6369" y1="270.2991" x2="179.6369" y2="284.6565" gradientTransform="matrix(0.9682 0.2502 -0.2502 0.9682 -25.3949 -276.833)">
				<stop offset="0" style="stop-color:#3E3E3E"/>
				<stop offset="2.050309e-02" style="stop-color:#666666"/>
				<stop offset="4.781234e-02" style="stop-color:#949494"/>
				<stop offset="7.518313e-02" style="stop-color:#BBBBBB"/>
				<stop offset="0.1022" style="stop-color:#D9D9D9"/>
				<stop offset="0.1286" style="stop-color:#EEEEEE"/>
				<stop offset="0.1543" style="stop-color:#FBFBFB"/>
				<stop offset="0.1784" style="stop-color:#FFFFFF"/>
				<stop offset="0.3536" style="stop-color:#FCFCFC"/>
				<stop offset="0.4718" style="stop-color:#F3F3F3"/>
				<stop offset="0.5731" style="stop-color:#E4E4E4"/>
				<stop offset="0.6651" style="stop-color:#CFCFCF"/>
				<stop offset="0.7506" style="stop-color:#B3B3B3"/>
				<stop offset="0.8313" style="stop-color:#919191"/>
				<stop offset="0.9084" style="stop-color:#686868"/>
				<stop offset="0.9808" style="stop-color:#3A3A3A"/>
				<stop offset="1" style="stop-color:#2D2D2D"/>
			</linearGradient>
			<path class="st32" d="M81.8,37.4c-0.4,3.9,1.8,5.7-5,6.1c-1.8,0.1-2.4-3.9-1.4-7.7c1-3.8,3.2-6.6,5-6.1     C82.2,30.1,82.3,31.6,81.8,37.4z"/>
		</g>
	</mask>
	
		<linearGradient id="SVGID_23_" gradientUnits="userSpaceOnUse" x1="179.6369" y1="270.2991" x2="179.6369" y2="284.6565" gradientTransform="matrix(0.9682 0.2502 -0.2502 0.9682 -25.3949 -276.833)">
		<stop offset="0" style="stop-color:#D96761"/>
		<stop offset="2.910180e-03" style="stop-color:#DA6C66"/>
		<stop offset="3.328378e-02" style="stop-color:#E59894"/>
		<stop offset="6.369201e-02" style="stop-color:#EFBDBB"/>
		<stop offset="9.365819e-02" style="stop-color:#F6DAD9"/>
		<stop offset="0.1231" style="stop-color:#FBEFEE"/>
		<stop offset="0.1516" style="stop-color:#FEFBFB"/>
		<stop offset="0.1784" style="stop-color:#FFFFFF"/>
		<stop offset="0.3607" style="stop-color:#FEFCFC"/>
		<stop offset="0.4837" style="stop-color:#FCF4F3"/>
		<stop offset="0.5892" style="stop-color:#F9E5E4"/>
		<stop offset="0.6848" style="stop-color:#F3D0CF"/>
		<stop offset="0.7738" style="stop-color:#EDB6B3"/>
		<stop offset="0.8578" style="stop-color:#E59591"/>
		<stop offset="0.9365" style="stop-color:#DB6F69"/>
		<stop offset="1" style="stop-color:#D24A43"/>
	</linearGradient>
	<path class="st33" d="M81.8,37.4c-0.4,3.9,1.8,5.7-5,6.1c-1.8,0.1-2.4-3.9-1.4-7.7c1-3.8,3.2-6.6,5-6.1   C82.2,30.1,82.3,31.6,81.8,37.4z"/>
</g>
</svg>