<?xml version="1.0" encoding="UTF-8"?>
<!DOCTYPE svg PUBLIC "-//W3C//DTD SVG 1.1//EN" "http://www.w3.org/Graphics/SVG/1.1/DTD/svg11.dtd">
<!-- Creator: CorelDRAW 2021 (64-Bit) -->
<svg xmlns="http://www.w3.org/2000/svg" xml:space="preserve" width="472px" height="29px" version="1.1" style="shape-rendering:geometricPrecision; text-rendering:geometricPrecision; image-rendering:optimizeQuality; fill-rule:evenodd; clip-rule:evenodd"
viewBox="0 0 24.305 1.51"
 xmlns:xlink="http://www.w3.org/1999/xlink"
 xmlns:xodm="http://www.corel.com/coreldraw/odm/2003">
 <defs>
  <style type="text/css">
   <![CDATA[
    .fil5 {fill:white}
    .fil0 {fill:black;fill-rule:nonzero}
    .fil2 {fill:#005128;fill-rule:nonzero}
    .fil1 {fill:#00B67A;fill-rule:nonzero}
    .fil3 {fill:#DCDCE6;fill-rule:nonzero}
    .fil4 {fill:white;fill-rule:nonzero}
   ]]>
  </style>
 </defs>
 <g id="Layer_x0020_1">
  <metadata id="CorelCorpID_0Corel-Layer"/>
  <g id="_1639991140928">
   <path class="fil0" d="M1.401 0.464l0.54 0 0 0.101 -0.213 0 0 0.566 -0.116 0 0 -0.566 -0.212 0 0 -0.101 0.001 0zm0.517 0.184l0.099 0 0 0.093 0.002 0c0.004,-0.013 0.01,-0.026 0.019,-0.038 0.009,-0.012 0.019,-0.024 0.032,-0.034 0.013,-0.01 0.027,-0.018 0.042,-0.025 0.016,-0.006 0.032,-0.009 0.048,-0.009 0.012,0 0.021,0 0.026,0.001 0.005,0 0.009,0.001 0.014,0.002l0 0.102c-0.007,-0.001 -0.015,-0.002 -0.023,-0.003 -0.008,-0.001 -0.015,-0.001 -0.023,-0.001 -0.018,0 -0.035,0.003 -0.05,0.01 -0.016,0.007 -0.03,0.018 -0.042,0.032 -0.012,0.014 -0.021,0.031 -0.028,0.052 -0.007,0.02 -0.01,0.044 -0.01,0.071l0 0.229 -0.107 0 0 -0.482 0.001 0zm0.771 0.483l-0.104 0 0 -0.067 -0.002 0c-0.013,0.024 -0.032,0.043 -0.058,0.058 -0.026,0.014 -0.053,0.022 -0.079,0.022 -0.064,0 -0.11,-0.016 -0.138,-0.047 -0.028,-0.032 -0.043,-0.079 -0.043,-0.143l0 -0.306 0.107 0 0 0.296c0,0.042 0.008,0.072 0.024,0.09 0.016,0.017 0.039,0.026 0.068,0.026 0.023,0 0.041,-0.003 0.056,-0.01 0.015,-0.007 0.028,-0.016 0.037,-0.028 0.009,-0.011 0.016,-0.025 0.02,-0.041 0.004,-0.016 0.006,-0.034 0.006,-0.053l0 -0.28 0.106 0 0 0.483zm0.182 -0.155c0.003,0.031 0.015,0.053 0.035,0.065 0.021,0.013 0.045,0.019 0.074,0.019 0.01,0 0.021,-0.001 0.034,-0.002 0.012,-0.002 0.025,-0.005 0.035,-0.009 0.012,-0.004 0.021,-0.011 0.028,-0.019 0.007,-0.009 0.01,-0.02 0.01,-0.033 0,-0.014 -0.006,-0.025 -0.015,-0.034 -0.009,-0.009 -0.021,-0.015 -0.036,-0.021 -0.014,-0.005 -0.031,-0.01 -0.05,-0.014 -0.018,-0.003 -0.037,-0.008 -0.057,-0.012 -0.019,-0.004 -0.039,-0.01 -0.057,-0.016 -0.018,-0.006 -0.035,-0.014 -0.049,-0.025 -0.015,-0.011 -0.027,-0.024 -0.035,-0.041 -0.009,-0.016 -0.013,-0.036 -0.013,-0.061 0,-0.026 0.006,-0.048 0.019,-0.066 0.013,-0.018 0.029,-0.032 0.048,-0.043 0.02,-0.01 0.042,-0.018 0.066,-0.023 0.024,-0.004 0.047,-0.006 0.068,-0.006 0.025,0 0.049,0.003 0.072,0.008 0.023,0.005 0.043,0.013 0.062,0.026 0.018,0.011 0.033,0.027 0.045,0.046 0.012,0.019 0.02,0.042 0.023,0.069l-0.111 0c-0.005,-0.026 -0.016,-0.043 -0.035,-0.052 -0.018,-0.009 -0.039,-0.013 -0.063,-0.013 -0.007,0 -0.016,0.001 -0.026,0.002 -0.011,0.001 -0.02,0.004 -0.03,0.007 -0.009,0.003 -0.016,0.008 -0.023,0.015 -0.006,0.007 -0.009,0.015 -0.009,0.026 0,0.013 0.005,0.023 0.014,0.031 0.009,0.008 0.02,0.015 0.035,0.021 0.014,0.005 0.031,0.01 0.05,0.013 0.019,0.004 0.038,0.008 0.058,0.013 0.019,0.004 0.038,0.009 0.057,0.016 0.018,0.006 0.035,0.014 0.049,0.025 0.015,0.011 0.027,0.024 0.036,0.04 0.009,0.016 0.013,0.036 0.013,0.06 0,0.028 -0.006,0.052 -0.019,0.073 -0.014,0.019 -0.031,0.036 -0.051,0.048 -0.021,0.012 -0.044,0.022 -0.07,0.027 -0.025,0.006 -0.051,0.009 -0.076,0.009 -0.03,0 -0.058,-0.003 -0.084,-0.01 -0.026,-0.007 -0.049,-0.018 -0.068,-0.031 -0.018,-0.015 -0.033,-0.032 -0.044,-0.053 -0.011,-0.02 -0.017,-0.045 -0.018,-0.074l0.108 0 0 -0.001zm0.351 -0.328l0.08 0 0 -0.145 0.106 0 0 0.145 0.096 0 0 0.08 -0.096 0 0 0.257c0,0.012 0.001,0.021 0.002,0.03 0.001,0.008 0.003,0.015 0.006,0.02 0.004,0.006 0.009,0.01 0.016,0.013 0.007,0.003 0.016,0.004 0.028,0.004 0.008,0 0.015,0 0.023,0 0.007,-0.001 0.015,-0.002 0.022,-0.004l0 0.083c-0.011,0.001 -0.023,0.002 -0.034,0.004 -0.011,0.001 -0.023,0.001 -0.034,0.001 -0.029,0 -0.051,-0.002 -0.068,-0.008 -0.017,-0.005 -0.031,-0.013 -0.04,-0.023 -0.01,-0.01 -0.016,-0.023 -0.02,-0.039 -0.003,-0.015 -0.006,-0.033 -0.006,-0.053l0 -0.285 -0.08 0 0 -0.08 -0.001 0zm0.358 0l0.1 0 0 0.065 0.002 0c0.015,-0.028 0.036,-0.048 0.063,-0.06 0.027,-0.012 0.055,-0.018 0.087,-0.018 0.038,0 0.071,0.006 0.099,0.02 0.028,0.013 0.052,0.032 0.071,0.055 0.019,0.024 0.032,0.051 0.042,0.082 0.009,0.031 0.014,0.064 0.014,0.1 0,0.032 -0.004,0.064 -0.013,0.094 -0.008,0.03 -0.021,0.057 -0.038,0.081 -0.017,0.023 -0.039,0.042 -0.065,0.056 -0.026,0.014 -0.057,0.021 -0.093,0.021 -0.015,0 -0.031,-0.001 -0.046,-0.004 -0.016,-0.003 -0.031,-0.008 -0.045,-0.014 -0.014,-0.006 -0.028,-0.014 -0.039,-0.024 -0.013,-0.01 -0.023,-0.021 -0.031,-0.034l-0.002 0 0 0.241 -0.106 0 0 -0.661zm0.371 0.242c0,-0.022 -0.002,-0.043 -0.008,-0.064 -0.006,-0.02 -0.014,-0.038 -0.025,-0.054 -0.012,-0.016 -0.026,-0.029 -0.042,-0.038 -0.017,-0.01 -0.037,-0.015 -0.058,-0.015 -0.045,0 -0.079,0.016 -0.101,0.047 -0.023,0.031 -0.034,0.072 -0.034,0.124 0,0.024 0.003,0.047 0.009,0.068 0.006,0.02 0.014,0.038 0.027,0.053 0.011,0.015 0.025,0.027 0.042,0.036 0.016,0.009 0.036,0.013 0.057,0.013 0.025,0 0.045,-0.005 0.062,-0.015 0.017,-0.01 0.031,-0.023 0.041,-0.039 0.011,-0.016 0.019,-0.034 0.024,-0.054 0.004,-0.02 0.006,-0.041 0.006,-0.062l0 0zm0.188 -0.426l0.107 0 0 0.101 -0.107 0 0 -0.101zm0 0.184l0.107 0 0 0.483 -0.107 0 0 -0.483zm0.202 -0.184l0.106 0 0 0.667 -0.106 0 0 -0.667zm0.432 0.68c-0.038,0 -0.073,-0.007 -0.103,-0.019 -0.03,-0.013 -0.055,-0.031 -0.077,-0.053 -0.02,-0.023 -0.036,-0.049 -0.047,-0.08 -0.011,-0.032 -0.017,-0.066 -0.017,-0.103 0,-0.037 0.006,-0.071 0.017,-0.102 0.011,-0.031 0.027,-0.058 0.047,-0.08 0.021,-0.023 0.047,-0.04 0.077,-0.053 0.03,-0.013 0.065,-0.019 0.103,-0.019 0.039,0 0.073,0.006 0.103,0.019 0.03,0.013 0.056,0.031 0.077,0.053 0.021,0.022 0.037,0.049 0.047,0.08 0.011,0.031 0.017,0.065 0.017,0.102 0,0.037 -0.006,0.071 -0.017,0.103 -0.01,0.031 -0.026,0.057 -0.047,0.08 -0.021,0.023 -0.047,0.04 -0.077,0.053 -0.03,0.012 -0.064,0.019 -0.103,0.019zm0 -0.084c0.024,0 0.044,-0.005 0.062,-0.015 0.017,-0.01 0.031,-0.023 0.043,-0.039 0.011,-0.016 0.019,-0.035 0.025,-0.055 0.005,-0.02 0.008,-0.041 0.008,-0.062 0,-0.021 -0.003,-0.041 -0.008,-0.062 -0.006,-0.02 -0.014,-0.038 -0.025,-0.054 -0.012,-0.016 -0.026,-0.029 -0.043,-0.039 -0.018,-0.01 -0.038,-0.015 -0.062,-0.015 -0.023,0 -0.044,0.005 -0.062,0.015 -0.017,0.01 -0.031,0.023 -0.042,0.039 -0.012,0.016 -0.02,0.034 -0.025,0.054 -0.005,0.021 -0.008,0.041 -0.008,0.062 0,0.021 0.003,0.042 0.008,0.062 0.005,0.02 0.013,0.039 0.025,0.055 0.011,0.016 0.025,0.029 0.042,0.039 0.018,0.01 0.039,0.015 0.062,0.015zm0.275 -0.412l0.08 0 0 -0.145 0.107 0 0 0.145 0.096 0 0 0.08 -0.096 0 0 0.257c0,0.012 0,0.021 0.001,0.03 0.001,0.008 0.003,0.015 0.007,0.02 0.003,0.006 0.008,0.01 0.015,0.013 0.007,0.003 0.016,0.004 0.029,0.004 0.007,0 0.015,0 0.022,0 0.008,-0.001 0.015,-0.002 0.023,-0.004l0 0.083c-0.012,0.001 -0.024,0.002 -0.035,0.004 -0.011,0.001 -0.022,0.001 -0.034,0.001 -0.028,0 -0.051,-0.002 -0.068,-0.008 -0.017,-0.005 -0.03,-0.013 -0.04,-0.023 -0.01,-0.01 -0.016,-0.023 -0.02,-0.039 -0.003,-0.015 -0.005,-0.033 -0.006,-0.053l0 -0.285 -0.08 0 0 -0.08 -0.001 0z"/>
   <polygon class="fil1" points="1.277,0.464 0.789,0.464 0.639,0 0.488,0.464 0,0.464 0.395,0.751 0.244,1.214 0.639,0.928 1.033,1.214 0.882,0.751 1.277,0.464 "/>
   <polygon class="fil2" points="0.916,0.856 0.882,0.751 0.639,0.928 "/>
  </g>
  <g id="_1639991086640">
   <polygon id="Rectangle-path" class="fil1" points="6.31,1.251 7.294,1.251 7.294,0.266 6.31,0.266 "/>
   <polygon class="fil1" points="7.376,1.251 8.361,1.251 8.361,0.266 7.376,0.266 "/>
   <polygon class="fil1" points="8.443,1.251 9.427,1.251 9.427,0.266 8.443,0.266 "/>
   <polygon class="fil1" points="9.51,1.251 10.494,1.251 10.494,0.266 9.51,0.266 "/>
   <g id="Half">
    <polygon class="fil3" points="11.068,1.251 11.561,1.251 11.561,0.266 11.068,0.266 "/>
    <polygon class="fil1" points="10.576,1.251 11.068,1.251 11.068,0.266 10.576,0.266 "/>
   </g>
   <path id="Shape" class="fil4" d="M6.802 0.93l0.15 -0.038 0.062 0.193 -0.212 -0.155zm0.345 -0.25l-0.264 0 -0.081 -0.248 -0.081 0.248 -0.264 0 0.214 0.154 -0.081 0.248 0.213 -0.153 0.131 -0.095 0.213 -0.154 0 0 0 0 0 0z"/>
   <path class="fil4" d="M7.869 0.93l0.149 -0.038 0.063 0.193 -0.212 -0.155zm0.344 -0.25l-0.263 0 -0.081 -0.248 -0.081 0.248 -0.264 0 0.213 0.154 -0.081 0.248 0.214 -0.153 0.131 -0.095 0.212 -0.154 0 0 0 0 0 0z"/>
   <path class="fil4" d="M8.935 0.93l0.15 -0.038 0.063 0.193 -0.213 -0.155zm0.345 -0.25l-0.264 0 -0.081 -0.248 -0.081 0.248 -0.263 0 0.213 0.154 -0.081 0.248 0.213 -0.153 0.132 -0.095 0.212 -0.154 0 0 0 0 0 0z"/>
   <path class="fil4" d="M10.002 0.93l0.15 -0.038 0.062 0.193 -0.212 -0.155zm0.344 -0.25l-0.263 0 -0.081 -0.248 -0.081 0.248 -0.264 0 0.214 0.154 -0.082 0.248 0.214 -0.153 0.131 -0.095 0.212 -0.154 0 0 0 0 0 0z"/>
   <path class="fil4" d="M11.068 0.93l0.15 -0.038 0.063 0.193 -0.213 -0.155zm0.345 -0.25l-0.264 0 -0.081 -0.248 -0.081 0.248 -0.263 0 0.213 0.154 -0.081 0.248 0.213 -0.153 0.132 -0.095 0.212 -0.154 0 0 0 0 0 0z"/>
  </g>
  <g id="_1639991102864">
   <path class="fil1" d="M17.789 0.244l0 0c0.029,-0.02 0.067,-0.013 0.088,0.014l0 0c0.017,0.021 0.044,0.03 0.07,0.022l0 0c0.033,-0.009 0.067,0.009 0.079,0.04l0 0c0.009,0.025 0.033,0.042 0.059,0.043l0 0c0.034,0.001 0.062,0.029 0.063,0.063l0 0c0.001,0.027 0.018,0.05 0.043,0.059l0 0c0.032,0.012 0.049,0.047 0.04,0.079l0 0c-0.007,0.026 0.002,0.053 0.022,0.07l0 0c0.027,0.021 0.033,0.059 0.015,0.088l0 0c-0.015,0.022 -0.015,0.051 0,0.073l0 0c0.019,0.028 0.013,0.067 -0.015,0.088l0 0c-0.021,0.017 -0.029,0.044 -0.022,0.069l0 0c0.009,0.033 -0.009,0.068 -0.04,0.08l0 0c-0.025,0.009 -0.042,0.032 -0.043,0.059l0 0c-0.001,0.034 -0.029,0.061 -0.063,0.063l0 0c-0.027,0.001 -0.05,0.018 -0.059,0.042l0 0c-0.012,0.033 -0.046,0.05 -0.079,0.041l0 0c-0.026,-0.008 -0.053,0.002 -0.07,0.022l0 0c-0.021,0.027 -0.059,0.033 -0.088,0.014l0 0c-0.022,-0.015 -0.05,-0.015 -0.073,0l0 0c-0.028,0.02 -0.067,0.013 -0.088,-0.014l0 0c-0.016,-0.021 -0.044,-0.03 -0.069,-0.022l0 0c-0.033,0.009 -0.068,-0.009 -0.079,-0.041l0 0c-0.01,-0.024 -0.033,-0.041 -0.059,-0.042l0 0c-0.034,-0.002 -0.062,-0.029 -0.063,-0.063l0 0c-0.002,-0.027 -0.018,-0.05 -0.043,-0.059l0 0c-0.032,-0.012 -0.05,-0.047 -0.041,-0.08l0 0c0.008,-0.025 -0.001,-0.052 -0.022,-0.069l0 0c-0.026,-0.021 -0.033,-0.06 -0.014,-0.088l0 0c0.015,-0.022 0.015,-0.051 0,-0.073l0 0c-0.019,-0.029 -0.013,-0.067 0.014,-0.088l0 0c0.021,-0.017 0.03,-0.044 0.022,-0.07l0 0c-0.009,-0.032 0.009,-0.067 0.041,-0.079l0 0c0.025,-0.009 0.041,-0.033 0.043,-0.059l0 0c0.001,-0.034 0.029,-0.062 0.063,-0.063l0 0c0.026,-0.001 0.049,-0.018 0.059,-0.043l0 0c0.011,-0.032 0.046,-0.049 0.079,-0.04l0 0c0.025,0.008 0.053,-0.002 0.069,-0.022l0 0c0.021,-0.027 0.06,-0.033 0.088,-0.014l0 0c0.023,0.014 0.052,0.014 0.073,0z"/>
   <path class="fil5" d="M17.402 0.791l0.093 -0.092 0.156 0.156 0.34 -0.341 0.093 0.093c-0.145,0.144 -0.289,0.288 -0.433,0.432l-0.249 -0.248z"/>
  </g>
  <path class="fil0" d="M12.351 1.326l0 -0.626 0.464 0 0 0.105 -0.337 0 0 0.14 0.313 0 0 0.105 -0.313 0 0 0.17 0.349 0 0 0.106 -0.476 0zm0.693 0.184l0.026 -0.109c0.022,0 0.038,-0.004 0.05,-0.012 0.011,-0.008 0.017,-0.017 0.017,-0.027 0,-0.01 -0.003,-0.017 -0.011,-0.022 -0.007,-0.005 -0.025,-0.011 -0.053,-0.018 -0.044,-0.012 -0.077,-0.025 -0.099,-0.038 -0.022,-0.014 -0.039,-0.033 -0.051,-0.057 -0.013,-0.024 -0.019,-0.051 -0.019,-0.081 0,-0.077 0.045,-0.14 0.135,-0.188 -0.041,-0.011 -0.07,-0.029 -0.088,-0.054 -0.018,-0.025 -0.027,-0.052 -0.027,-0.08 0,-0.037 0.016,-0.069 0.046,-0.095 0.03,-0.027 0.084,-0.04 0.159,-0.04l0.083 0 0 0.106c-0.01,-0.002 -0.021,-0.003 -0.034,-0.003 -0.048,0 -0.082,0.004 -0.102,0.012 -0.019,0.008 -0.028,0.021 -0.028,0.041 0,0.011 0.004,0.021 0.013,0.029 0.009,0.008 0.021,0.013 0.036,0.015 0.015,0.002 0.045,0.003 0.089,0.003l0.021 0 0 0.098c-0.055,0 -0.098,0.014 -0.131,0.043 -0.032,0.028 -0.048,0.059 -0.048,0.092 0,0.026 0.008,0.046 0.024,0.061 0.016,0.015 0.044,0.028 0.085,0.04 0.082,0.024 0.124,0.067 0.124,0.129 0,0.042 -0.018,0.079 -0.052,0.109 -0.034,0.03 -0.089,0.046 -0.165,0.046zm0.614 -0.638l0.102 0c-0.016,0.033 -0.029,0.075 -0.04,0.127 -0.011,0.051 -0.017,0.087 -0.017,0.108 0,0.026 0.005,0.061 0.015,0.104 0.01,0.043 0.023,0.081 0.038,0.115l-0.101 0c-0.001,-0.006 -0.004,-0.014 -0.007,-0.024 -0.006,-0.017 -0.012,-0.034 -0.016,-0.051 -0.035,0.058 -0.085,0.087 -0.15,0.087 -0.062,0 -0.11,-0.025 -0.146,-0.075 -0.035,-0.05 -0.053,-0.108 -0.053,-0.175 0,-0.062 0.018,-0.116 0.053,-0.16 0.035,-0.044 0.084,-0.066 0.147,-0.066 0.062,0 0.112,0.03 0.149,0.088 0.006,-0.021 0.014,-0.047 0.026,-0.078zm-0.251 0.229c0,0.043 0.009,0.077 0.027,0.103 0.017,0.026 0.041,0.039 0.069,0.039 0.028,0 0.05,-0.012 0.068,-0.035 0.017,-0.023 0.026,-0.058 0.026,-0.107 0,-0.047 -0.01,-0.082 -0.028,-0.107 -0.019,-0.024 -0.041,-0.036 -0.067,-0.036 -0.028,0 -0.051,0.012 -0.068,0.038 -0.018,0.025 -0.027,0.06 -0.027,0.105zm0.444 0.225l0 -0.454 0.12 0 0 0.454 -0.12 0zm0.35 -0.027l0 0.2 -0.12 0 0 -0.357c0,-0.065 0.007,-0.116 0.02,-0.153 0.013,-0.038 0.037,-0.069 0.072,-0.092 0.035,-0.023 0.077,-0.035 0.127,-0.035 0.073,0 0.132,0.024 0.175,0.071 0.044,0.048 0.066,0.105 0.066,0.171 0,0.065 -0.021,0.12 -0.063,0.166 -0.042,0.045 -0.094,0.068 -0.155,0.068 -0.04,0 -0.081,-0.013 -0.122,-0.039zm0 -0.185c0,0.037 0.01,0.068 0.029,0.091 0.019,0.023 0.045,0.035 0.078,0.035 0.033,0 0.059,-0.013 0.079,-0.039 0.02,-0.026 0.03,-0.06 0.03,-0.102 0,-0.043 -0.009,-0.077 -0.028,-0.101 -0.018,-0.025 -0.045,-0.038 -0.079,-0.038 -0.031,0 -0.056,0.012 -0.077,0.034 -0.021,0.022 -0.032,0.062 -0.032,0.12zm0.654 -0.067l0 0.093c-0.049,0 -0.082,0.004 -0.099,0.012 -0.018,0.008 -0.027,0.022 -0.027,0.042 0,0.014 0.006,0.026 0.019,0.035 0.012,0.009 0.026,0.014 0.043,0.014 0.03,0 0.066,-0.014 0.108,-0.042l0.079 0.078c-0.066,0.039 -0.13,0.059 -0.193,0.059 -0.051,0 -0.094,-0.013 -0.128,-0.038 -0.034,-0.025 -0.051,-0.057 -0.051,-0.097 0,-0.051 0.027,-0.088 0.081,-0.111 -0.042,-0.023 -0.064,-0.056 -0.064,-0.099 0,-0.036 0.014,-0.067 0.041,-0.092 0.028,-0.026 0.071,-0.039 0.13,-0.039 0.066,0 0.122,0.016 0.165,0.046l-0.07 0.077c-0.03,-0.016 -0.058,-0.025 -0.086,-0.025 -0.02,0 -0.035,0.004 -0.045,0.012 -0.01,0.008 -0.016,0.017 -0.016,0.028 0,0.031 0.038,0.047 0.113,0.047zm0.153 -0.175l0.349 0 0 0.1 -0.111 0 0 0.354 -0.12 0 0 -0.354 -0.118 0 0 -0.1zm0.434 0.454l0 -0.454 0.12 0 0 0.454 -0.12 0zm0.241 -0.454l0.12 0 0 0.157 0.14 -0.157 0.147 0 -0.183 0.192 0.197 0.262 -0.141 0 -0.133 -0.181 -0.027 0.029 0 0.152 -0.12 0 0 -0.454zm0.901 0.627l-0.12 0 0 -0.404c0,-0.041 -0.001,-0.069 -0.005,-0.086 -0.003,-0.016 -0.011,-0.029 -0.023,-0.039 -0.012,-0.011 -0.027,-0.016 -0.046,-0.016 -0.022,0 -0.042,0.007 -0.059,0.019 -0.017,0.013 -0.028,0.03 -0.033,0.05 -0.005,0.02 -0.007,0.052 -0.007,0.098l0 0.205 -0.12 0 0 -0.454 0.111 0 0 0.067c0.04,-0.051 0.09,-0.077 0.15,-0.077 0.035,0 0.065,0.008 0.089,0.023 0.024,0.015 0.041,0.034 0.05,0.058 0.009,0.023 0.013,0.057 0.013,0.101l0 0.455zm-0.272 -0.686l0.06 -0.127 0.133 0 -0.118 0.127 -0.075 0z"/>
  <path class="fil0" d="M12.348 0.373c0,-0.034 0.005,-0.062 0.016,-0.085 0.007,-0.017 0.017,-0.032 0.03,-0.046 0.013,-0.013 0.028,-0.023 0.043,-0.03 0.021,-0.008 0.045,-0.013 0.072,-0.013 0.049,0 0.088,0.016 0.117,0.046 0.03,0.03 0.044,0.073 0.044,0.127 0,0.053 -0.014,0.095 -0.043,0.126 -0.03,0.03 -0.069,0.045 -0.117,0.045 -0.05,0 -0.089,-0.015 -0.118,-0.045 -0.029,-0.03 -0.044,-0.072 -0.044,-0.125zm0.069 -0.002c0,0.038 0.009,0.066 0.026,0.086 0.018,0.019 0.04,0.029 0.067,0.029 0.026,0 0.048,-0.01 0.066,-0.029 0.017,-0.02 0.025,-0.048 0.025,-0.087 0,-0.038 -0.008,-0.066 -0.025,-0.085 -0.017,-0.019 -0.039,-0.028 -0.066,-0.028 -0.028,0 -0.05,0.009 -0.067,0.028 -0.017,0.019 -0.026,0.048 -0.026,0.086zm0.305 0.166l0 -0.24 0.064 0 0 0.24 -0.064 0zm0.235 -0.24l0.333 0 0 0.052 -0.064 0 0 0.188 -0.063 0 0 -0.188 -0.079 0 0 0.188 -0.063 0 0 -0.188 -0.064 0 0 -0.052zm0.547 0l0.054 0c-0.008,0.017 -0.016,0.04 -0.021,0.067 -0.006,0.027 -0.009,0.046 -0.009,0.057 0,0.014 0.003,0.032 0.008,0.055 0.005,0.023 0.012,0.043 0.02,0.061l-0.053 0c-0.001,-0.003 -0.003,-0.007 -0.005,-0.013 -0.003,-0.009 -0.006,-0.018 -0.008,-0.027 -0.018,0.031 -0.045,0.046 -0.08,0.046 -0.032,0 -0.058,-0.013 -0.076,-0.039 -0.019,-0.027 -0.028,-0.058 -0.028,-0.093 0,-0.033 0.009,-0.061 0.028,-0.085 0.018,-0.023 0.044,-0.035 0.077,-0.035 0.033,0 0.059,0.016 0.079,0.047 0.003,-0.011 0.008,-0.025 0.014,-0.041zm-0.133 0.121c0,0.022 0.005,0.04 0.014,0.054 0.01,0.014 0.022,0.021 0.037,0.021 0.015,0 0.026,-0.006 0.036,-0.018 0.009,-0.013 0.013,-0.031 0.013,-0.057 0,-0.025 -0.004,-0.044 -0.014,-0.057 -0.01,-0.013 -0.022,-0.019 -0.036,-0.019 -0.014,0 -0.026,0.007 -0.036,0.02 -0.009,0.013 -0.014,0.032 -0.014,0.056zm0.235 0.119l0 -0.24 0.064 0 0 0.24 -0.064 0zm-0.004 -0.271l0.032 -0.068 0.071 0 -0.063 0.068 -0.04 0zm0.132 0.031l0.063 0 0 0.083 0.075 -0.083 0.077 0 -0.096 0.102 0.104 0.138 -0.075 0 -0.07 -0.096 -0.015 0.015 0 0.081 -0.063 0 0 -0.24zm0.237 0l0.184 0 0 0.052 -0.058 0 0 0.188 -0.064 0 0 -0.188 -0.062 0 0 -0.052zm0.345 0.092l0 0.049c-0.026,0 -0.043,0.003 -0.052,0.007 -0.01,0.004 -0.014,0.011 -0.014,0.022 0,0.008 0.003,0.014 0.009,0.019 0.007,0.005 0.014,0.007 0.023,0.007 0.016,0 0.035,-0.007 0.057,-0.022l0.042 0.041c-0.035,0.021 -0.069,0.031 -0.102,0.031 -0.027,0 -0.05,-0.007 -0.068,-0.02 -0.018,-0.013 -0.027,-0.03 -0.027,-0.051 0,-0.027 0.015,-0.047 0.043,-0.059 -0.022,-0.012 -0.033,-0.03 -0.033,-0.053 0,-0.018 0.007,-0.035 0.021,-0.048 0.015,-0.014 0.037,-0.021 0.069,-0.021 0.035,0 0.064,0.009 0.087,0.025l-0.037 0.04c-0.016,-0.008 -0.031,-0.013 -0.046,-0.013 -0.01,0 -0.018,0.002 -0.023,0.007 -0.006,0.004 -0.008,0.009 -0.008,0.014 0,0.017 0.019,0.025 0.059,0.025zm0.304 -0.087l-0.013 0.054c-0.017,-0.006 -0.033,-0.008 -0.048,-0.008 -0.028,0 -0.051,0.007 -0.069,0.023 -0.018,0.015 -0.027,0.033 -0.027,0.054 0,0.014 0.004,0.025 0.014,0.033 0.01,0.008 0.027,0.015 0.052,0.021 0.03,0.008 0.052,0.018 0.065,0.03 0.013,0.012 0.02,0.028 0.02,0.05 0,0.023 -0.009,0.041 -0.027,0.055 -0.019,0.014 -0.043,0.02 -0.073,0.02 -0.008,0 -0.023,-0.001 -0.042,-0.003l0.013 -0.055c0.013,0.004 0.023,0.005 0.032,0.005 0.009,0 0.017,-0.002 0.024,-0.006 0.006,-0.004 0.009,-0.01 0.009,-0.017 0,-0.007 -0.003,-0.012 -0.008,-0.016 -0.006,-0.004 -0.017,-0.008 -0.032,-0.011 -0.037,-0.008 -0.064,-0.021 -0.081,-0.039 -0.017,-0.019 -0.025,-0.04 -0.025,-0.064 0,-0.023 0.007,-0.045 0.019,-0.067 0.013,-0.022 0.031,-0.039 0.054,-0.051 0.023,-0.012 0.049,-0.019 0.078,-0.019 0.024,0 0.046,0.004 0.065,0.011zm0.169 -0.005l0.063 0 0 0.109c0,0.021 0.001,0.037 0.003,0.048 0.002,0.012 0.007,0.021 0.015,0.028 0.007,0.007 0.016,0.011 0.027,0.011 0.011,0 0.02,-0.004 0.029,-0.011 0.007,-0.008 0.013,-0.017 0.015,-0.027 0.002,-0.011 0.003,-0.027 0.003,-0.048l0 -0.11 0.064 0 0 0.24 -0.059 0 0 -0.028c-0.012,0.023 -0.028,0.034 -0.049,0.034 -0.022,0 -0.038,-0.011 -0.048,-0.034l0 0.119 -0.063 0 0 -0.331zm0.467 0l0.054 0c-0.009,0.017 -0.016,0.04 -0.022,0.067 -0.005,0.027 -0.008,0.046 -0.008,0.057 0,0.014 0.002,0.032 0.008,0.055 0.005,0.023 0.012,0.043 0.02,0.061l-0.054 0c-0.001,-0.003 -0.002,-0.007 -0.004,-0.013 -0.003,-0.009 -0.006,-0.018 -0.008,-0.027 -0.019,0.031 -0.045,0.046 -0.08,0.046 -0.032,0 -0.058,-0.013 -0.077,-0.039 -0.018,-0.027 -0.028,-0.058 -0.028,-0.093 0,-0.033 0.01,-0.061 0.028,-0.085 0.019,-0.023 0.045,-0.035 0.078,-0.035 0.033,0 0.059,0.016 0.079,0.047 0.003,-0.011 0.007,-0.025 0.014,-0.041zm-0.133 0.121c0,0.022 0.004,0.04 0.014,0.054 0.009,0.014 0.022,0.021 0.037,0.021 0.014,0 0.026,-0.006 0.035,-0.018 0.01,-0.013 0.014,-0.031 0.014,-0.057 0,-0.025 -0.005,-0.044 -0.015,-0.057 -0.009,-0.013 -0.021,-0.019 -0.035,-0.019 -0.015,0 -0.027,0.007 -0.036,0.02 -0.01,0.013 -0.014,0.032 -0.014,0.056zm0.435 -0.116l-0.013 0.054c-0.017,-0.006 -0.033,-0.008 -0.048,-0.008 -0.028,0 -0.051,0.007 -0.069,0.023 -0.018,0.015 -0.028,0.033 -0.028,0.054 0,0.014 0.005,0.025 0.015,0.033 0.01,0.008 0.027,0.015 0.052,0.021 0.03,0.008 0.051,0.018 0.065,0.03 0.013,0.012 0.02,0.028 0.02,0.05 0,0.023 -0.009,0.041 -0.028,0.055 -0.018,0.014 -0.042,0.02 -0.072,0.02 -0.009,0 -0.023,-0.001 -0.042,-0.003l0.013 -0.055c0.013,0.004 0.023,0.005 0.032,0.005 0.009,0 0.017,-0.002 0.023,-0.006 0.007,-0.004 0.01,-0.01 0.01,-0.017 0,-0.007 -0.003,-0.012 -0.008,-0.016 -0.006,-0.004 -0.017,-0.008 -0.032,-0.011 -0.038,-0.008 -0.064,-0.021 -0.081,-0.039 -0.017,-0.019 -0.025,-0.04 -0.025,-0.064 0,-0.023 0.007,-0.045 0.019,-0.067 0.013,-0.022 0.031,-0.039 0.054,-0.051 0.022,-0.012 0.048,-0.019 0.078,-0.019 0.024,0 0.046,0.004 0.065,0.011zm0.389 0.235l-0.066 0 -0.041 -0.11c-0.006,-0.013 -0.012,-0.032 -0.019,-0.054 -0.006,0.019 -0.012,0.037 -0.018,0.053l-0.041 0.111 -0.065 0 0.093 -0.24 -0.035 -0.092 0.062 0 0.036 0.092 0.094 0.24zm0.154 -0.148l0 0.049c-0.025,0 -0.043,0.003 -0.052,0.007 -0.01,0.004 -0.014,0.011 -0.014,0.022 0,0.008 0.003,0.014 0.009,0.019 0.007,0.005 0.015,0.007 0.023,0.007 0.016,0 0.035,-0.007 0.057,-0.022l0.042 0.041c-0.034,0.021 -0.069,0.031 -0.102,0.031 -0.027,0 -0.049,-0.007 -0.068,-0.02 -0.018,-0.013 -0.027,-0.03 -0.027,-0.051 0,-0.027 0.015,-0.047 0.043,-0.059 -0.022,-0.012 -0.033,-0.03 -0.033,-0.053 0,-0.018 0.007,-0.035 0.021,-0.048 0.015,-0.014 0.038,-0.021 0.069,-0.021 0.035,0 0.064,0.009 0.088,0.025l-0.038 0.04c-0.015,-0.008 -0.031,-0.013 -0.045,-0.013 -0.011,0 -0.019,0.002 -0.024,0.007 -0.006,0.004 -0.008,0.009 -0.008,0.014 0,0.017 0.02,0.025 0.059,0.025zm-0.075 -0.123l0.031 -0.068 0.071 0 -0.062 0.068 -0.04 0zm0.234 0.271l-0.097 -0.24 0.067 0 0.045 0.122 0.013 0.041c0.004,-0.01 0.006,-0.017 0.007,-0.02 0.002,-0.007 0.004,-0.014 0.007,-0.021l0.046 -0.122 0.065 0 -0.095 0.24 -0.058 0zm0.308 -0.148l0 0.049c-0.026,0 -0.043,0.003 -0.053,0.007 -0.009,0.004 -0.014,0.011 -0.014,0.022 0,0.008 0.004,0.014 0.01,0.019 0.007,0.005 0.014,0.007 0.023,0.007 0.016,0 0.035,-0.007 0.057,-0.022l0.042 0.041c-0.035,0.021 -0.069,0.031 -0.102,0.031 -0.027,0 -0.05,-0.007 -0.068,-0.02 -0.018,-0.013 -0.027,-0.03 -0.027,-0.051 0,-0.027 0.014,-0.047 0.043,-0.059 -0.022,-0.012 -0.034,-0.03 -0.034,-0.053 0,-0.018 0.008,-0.035 0.022,-0.048 0.014,-0.014 0.037,-0.021 0.069,-0.021 0.035,0 0.064,0.009 0.087,0.025l-0.037 0.04c-0.016,-0.008 -0.031,-0.013 -0.046,-0.013 -0.01,0 -0.018,0.002 -0.024,0.007 -0.005,0.004 -0.008,0.009 -0.008,0.014 0,0.017 0.02,0.025 0.06,0.025z"/>
  <path class="fil0" d="M18.618 1.053l0 -0.59 0.436 0 0 0.1 -0.317 0 0 0.131 0.295 0 0 0.1 -0.295 0 0 0.159 0.329 0 0 0.1 -0.448 0zm0.508 -0.428l0.592 0 0 0.094 -0.113 0 0 0.334 -0.113 0 0 -0.334 -0.139 0 0 0.334 -0.113 0 0 -0.334 -0.114 0 0 -0.094zm0.973 0l0.096 0c-0.015,0.032 -0.028,0.071 -0.038,0.12 -0.01,0.048 -0.015,0.082 -0.015,0.101 0,0.025 0.004,0.058 0.014,0.098 0.009,0.041 0.021,0.077 0.035,0.109l-0.095 0c-0.001,-0.005 -0.004,-0.013 -0.007,-0.023 -0.006,-0.016 -0.011,-0.032 -0.015,-0.048 -0.033,0.054 -0.08,0.082 -0.141,0.082 -0.058,0 -0.104,-0.024 -0.137,-0.071 -0.033,-0.047 -0.05,-0.101 -0.05,-0.164 0,-0.059 0.017,-0.109 0.05,-0.151 0.033,-0.041 0.079,-0.062 0.138,-0.062 0.058,0 0.105,0.028 0.141,0.083 0.005,-0.019 0.013,-0.044 0.024,-0.074zm-0.237 0.216c0,0.04 0.009,0.072 0.026,0.097 0.016,0.024 0.038,0.037 0.065,0.037 0.026,0 0.047,-0.011 0.063,-0.033 0.017,-0.022 0.025,-0.055 0.025,-0.101 0,-0.044 -0.009,-0.078 -0.026,-0.1 -0.018,-0.023 -0.039,-0.035 -0.063,-0.035 -0.026,0 -0.048,0.012 -0.064,0.036 -0.017,0.023 -0.026,0.057 -0.026,0.099zm0.808 0.212l-0.116 0 -0.074 -0.195c-0.01,-0.024 -0.021,-0.057 -0.033,-0.097 -0.01,0.034 -0.021,0.066 -0.032,0.095l-0.073 0.197 -0.115 0 0.164 -0.428 -0.062 -0.162 0.111 0 0.064 0.162 0.166 0.428zm0.456 0.162l-0.113 0 0 -0.38c0,-0.038 -0.002,-0.065 -0.005,-0.08 -0.003,-0.015 -0.01,-0.028 -0.022,-0.038 -0.011,-0.009 -0.025,-0.014 -0.043,-0.014 -0.021,0 -0.04,0.006 -0.056,0.018 -0.015,0.012 -0.026,0.027 -0.03,0.046 -0.005,0.019 -0.007,0.05 -0.007,0.093l0 0.193 -0.113 0 0 -0.428 0.105 0 0 0.063c0.037,-0.048 0.084,-0.072 0.141,-0.072 0.033,0 0.06,0.008 0.083,0.022 0.023,0.014 0.039,0.032 0.047,0.054 0.008,0.022 0.013,0.054 0.013,0.096l0 0.427zm0.28 -0.762c0.128,0 0.191,0.101 0.191,0.305 0,0.204 -0.063,0.306 -0.191,0.306 -0.06,0 -0.107,-0.023 -0.141,-0.07 -0.034,-0.046 -0.051,-0.125 -0.051,-0.237 0,-0.203 0.064,-0.304 0.192,-0.304zm0.075 0.258c-0.002,-0.067 -0.009,-0.112 -0.022,-0.134 -0.012,-0.021 -0.03,-0.032 -0.053,-0.032 -0.023,0 -0.041,0.011 -0.053,0.033 -0.013,0.022 -0.02,0.066 -0.022,0.133l0.15 0zm0 0.094l-0.15 0c0.002,0.067 0.009,0.112 0.021,0.134 0.013,0.022 0.031,0.032 0.054,0.032 0.023,0 0.041,-0.011 0.053,-0.033 0.013,-0.021 0.02,-0.066 0.022,-0.133zm0.413 -0.015l0 0.088c-0.046,0 -0.078,0.003 -0.094,0.011 -0.017,0.007 -0.025,0.02 -0.025,0.039 0,0.014 0.006,0.025 0.017,0.034 0.012,0.008 0.025,0.013 0.041,0.013 0.029,0 0.062,-0.013 0.101,-0.04l0.075 0.073c-0.062,0.037 -0.123,0.056 -0.182,0.056 -0.048,0 -0.088,-0.012 -0.12,-0.036 -0.032,-0.023 -0.048,-0.054 -0.048,-0.091 0,-0.048 0.025,-0.083 0.076,-0.104 -0.04,-0.022 -0.06,-0.053 -0.06,-0.094 0,-0.034 0.013,-0.062 0.039,-0.086 0.025,-0.024 0.066,-0.037 0.122,-0.037 0.062,0 0.114,0.015 0.156,0.044l-0.067 0.072c-0.028,-0.016 -0.055,-0.023 -0.081,-0.023 -0.019,0 -0.033,0.003 -0.042,0.011 -0.01,0.007 -0.015,0.016 -0.015,0.026 0,0.03 0.036,0.044 0.107,0.044zm0.172 -0.165l0.113 0 0 0.22c0,0.053 0.008,0.087 0.022,0.103 0.015,0.015 0.034,0.023 0.057,0.023 0.027,0 0.047,-0.009 0.06,-0.027 0.013,-0.019 0.019,-0.052 0.019,-0.099l0 -0.22 0.113 0 0 0.202c0,0.057 -0.006,0.102 -0.019,0.134 -0.012,0.032 -0.034,0.057 -0.064,0.075 -0.03,0.018 -0.066,0.028 -0.107,0.028 -0.045,0 -0.082,-0.01 -0.112,-0.029 -0.031,-0.019 -0.052,-0.044 -0.064,-0.076 -0.012,-0.032 -0.018,-0.076 -0.018,-0.132l0 -0.202zm0.49 0l0.112 0 0 0.196c0,0.036 0.002,0.064 0.006,0.085 0.004,0.021 0.012,0.037 0.026,0.05 0.013,0.012 0.029,0.019 0.048,0.019 0.02,0 0.037,-0.007 0.051,-0.02 0.014,-0.013 0.023,-0.029 0.027,-0.048 0.004,-0.019 0.006,-0.047 0.006,-0.085l0 -0.197 0.113 0 0 0.428 -0.104 0 0 -0.05c-0.021,0.04 -0.05,0.061 -0.087,0.061 -0.039,0 -0.068,-0.021 -0.086,-0.061l0 0.212 -0.112 0 0 -0.59zm0.712 0.165l0 0.088c-0.046,0 -0.077,0.003 -0.094,0.011 -0.017,0.007 -0.025,0.02 -0.025,0.039 0,0.014 0.006,0.025 0.018,0.034 0.011,0.008 0.025,0.013 0.04,0.013 0.029,0 0.063,-0.013 0.102,-0.04l0.074 0.073c-0.062,0.037 -0.122,0.056 -0.182,0.056 -0.048,0 -0.088,-0.012 -0.12,-0.036 -0.032,-0.023 -0.048,-0.054 -0.048,-0.091 0,-0.048 0.025,-0.083 0.076,-0.104 -0.04,-0.022 -0.059,-0.053 -0.059,-0.094 0,-0.034 0.012,-0.062 0.038,-0.086 0.026,-0.024 0.066,-0.037 0.122,-0.037 0.063,0 0.115,0.015 0.156,0.044l-0.067 0.072c-0.027,-0.016 -0.055,-0.023 -0.081,-0.023 -0.019,0 -0.033,0.003 -0.042,0.011 -0.01,0.007 -0.014,0.016 -0.014,0.026 0,0.03 0.035,0.044 0.106,0.044zm-0.134 -0.22l0.056 -0.12 0.126 0 -0.112 0.12 -0.07 0zm0.416 0.483l-0.172 -0.428 0.119 0 0.08 0.219 0.023 0.073c0.007,-0.019 0.01,-0.031 0.012,-0.037 0.004,-0.012 0.008,-0.024 0.012,-0.036l0.082 -0.219 0.116 0 -0.17 0.428 -0.102 0zm0.314 -0.219c0,-0.038 0.01,-0.074 0.028,-0.109 0.019,-0.035 0.045,-0.062 0.079,-0.081 0.034,-0.018 0.071,-0.028 0.113,-0.028 0.065,0 0.118,0.021 0.159,0.063 0.041,0.043 0.062,0.096 0.062,0.16 0,0.065 -0.021,0.118 -0.062,0.161 -0.042,0.042 -0.095,0.064 -0.158,0.064 -0.039,0 -0.076,-0.009 -0.112,-0.027 -0.035,-0.018 -0.062,-0.044 -0.081,-0.078 -0.018,-0.034 -0.028,-0.076 -0.028,-0.125zm0.117 0.006c0,0.042 0.01,0.075 0.03,0.098 0.02,0.022 0.045,0.033 0.074,0.033 0.029,0 0.054,-0.011 0.074,-0.033 0.02,-0.023 0.03,-0.056 0.03,-0.099 0,-0.042 -0.01,-0.074 -0.03,-0.096 -0.02,-0.023 -0.045,-0.034 -0.074,-0.034 -0.029,0 -0.054,0.011 -0.074,0.034 -0.02,0.022 -0.03,0.055 -0.03,0.097z"/>
 </g>
</svg>
