<?xml version="1.0" encoding="UTF-8"?>
<!DOCTYPE svg PUBLIC "-//W3C//DTD SVG 1.1//EN" "http://www.w3.org/Graphics/SVG/1.1/DTD/svg11.dtd">
<!-- Creator: CorelDRAW 2021 (64-Bit) -->
<svg xmlns="http://www.w3.org/2000/svg" xml:space="preserve" width="6.66667in" height="6.66667in" version="1.1" style="shape-rendering:geometricPrecision; text-rendering:geometricPrecision; image-rendering:optimizeQuality; fill-rule:evenodd; clip-rule:evenodd"
viewBox="0 0 348.79 348.79"
 xmlns:xlink="http://www.w3.org/1999/xlink"
 xmlns:xodm="http://www.corel.com/coreldraw/odm/2003">
 <defs>
  <style type="text/css">
   <![CDATA[
    .str0 {stroke:#FFE300;stroke-width:1.09;stroke-linecap:round;stroke-miterlimit:2.61313}
    .fil27 {fill:none}
    .fil26 {fill:none;fill-rule:nonzero}
    .fil1 {fill:#51009E;fill-rule:nonzero}
    .fil4 {fill:#57009E;fill-rule:nonzero}
    .fil8 {fill:#5A00A8;fill-rule:nonzero}
    .fil5 {fill:#6000AE;fill-rule:nonzero}
    .fil2 {fill:#6400C2;fill-rule:nonzero}
    .fil0 {fill:#8400FF;fill-rule:nonzero}
    .fil11 {fill:#A42A56;fill-rule:nonzero}
    .fil7 {fill:#A72A63;fill-rule:nonzero}
    .fil9 {fill:#AF3360;fill-rule:nonzero}
    .fil6 {fill:#B2336D;fill-rule:nonzero}
    .fil10 {fill:#C53A6A;fill-rule:nonzero}
    .fil3 {fill:#C73A76;fill-rule:nonzero}
    .fil22 {fill:#DE9726;fill-rule:nonzero}
    .fil19 {fill:#FAD549;fill-rule:nonzero}
    .fil13 {fill:#FAEA84;fill-rule:nonzero}
    .fil16 {fill:#FBAE17;fill-rule:nonzero}
    .fil14 {fill:#FBAE17;fill-rule:nonzero}
    .fil23 {fill:#FFB000;fill-rule:nonzero}
    .fil25 {fill:#FFC400;fill-rule:nonzero}
    .fil18 {fill:#FFC40D;fill-rule:nonzero}
    .fil20 {fill:#FFC40D;fill-rule:nonzero}
    .fil21 {fill:#FFDE00;fill-rule:nonzero}
    .fil17 {fill:#FFE200;fill-rule:nonzero}
    .fil12 {fill:#FFE200;fill-rule:nonzero}
    .fil24 {fill:#FFE300;fill-rule:nonzero}
    .fil15 {fill:#FFE200;fill-rule:nonzero;fill-opacity:0.200000}
   ]]>
  </style>
 </defs>
 <g id="Layer_x0020_1">
  <metadata id="CorelCorpID_0Corel-Layer"/>
  <g id="_1653677816800">
   <polygon class="fil0" points="77.63,199.74 160.78,186.06 283.95,192.23 230.78,237.61 155.85,234.09 "/>
   <polygon class="fil1" points="160.78,186.06 77.63,199.74 155.85,234.09 167.71,234.65 "/>
   <polygon class="fil0" points="77.51,199.61 208.31,203.1 208.8,344.1 90.7,335.9 "/>
   <polygon class="fil2" points="284.13,192.09 207.92,202.86 208.31,343.86 272.51,327.38 "/>
   <line class="fil3" x1="85.34" y1="279.7" x2="85.34" y2= "279.7" />
   <polygon class="fil4" points="139.58,201.39 136.26,201.3 139.58,201.39 "/>
   <line class="fil5" x1="175.31" y1="202.33" x2="175.31" y2= "202.33" />
   <line class="fil4" x1="97.57" y1="200.27" x2="97.57" y2= "200.27" />
   <line class="fil6" x1="87.18" y1="298.98" x2="87.18" y2= "298.98" />
   <line class="fil4" x1="159.88" y1="201.92" x2="159.88" y2= "201.92" />
   <line class="fil3" x1="81.29" y1="238.11" x2="81.29" y2= "238.11" />
   <polygon class="fil7" points="92.38,336.02 90.7,335.9 "/>
   <line class="fil5" x1="202.59" y1="203.06" x2="202.59" y2= "203.06" />
   <line class="fil7" x1="112.16" y1="337.35" x2="112.16" y2= "337.35" />
   <polygon class="fil8" points="217.54,201.93 224.74,200.88 217.54,201.93 "/>
   <polygon class="fil9" points="273.97,310.2 274.88,299.39 274.89,299.39 "/>
   <line class="fil10" x1="277.04" y1="274.01" x2="277.04" y2= "274.01" />
   <polygon class="fil11" points="234.36,337.17 238.55,336.1 238.55,336.1 "/>
   <line class="fil10" x1="283.7" y1="195.16" x2="283.7" y2= "195.16" />
   <line class="fil10" x1="281.05" y1="226.42" x2="281.05" y2= "226.42" />
   <path class="fil12" d="M156.1 290.89c-3.57,-10.24 -8.89,-20.52 -18.06,-26.31 -8.99,-5.68 -20.37,-6.01 -30.66,-2.86 12.8,4.61 19.58,16.66 23.93,29.17 5.54,15.91 7.87,32.94 6.79,49.76l24.9 0.55c1.07,-16.82 -1.37,-34.39 -6.91,-50.31z"/>
   <path class="fil13" d="M138.04 264.58c-4.94,-3.12 -10.65,-4.63 -16.47,-4.82 -23,-0.73 -39.14,16.08 -52.43,32.95 -4.99,6.33 -9.82,12.85 -15.11,18.92 6.22,2.28 12.52,4.27 18.8,6.41 13.07,-12.95 24.53,-32.08 36.74,-43.16 5.14,-4.66 13.55,-11.53 20.98,-10.56 5.3,0.69 10.23,3.37 14.57,6.36 -2.07,-2.34 -4.41,-4.42 -7.08,-6.11z"/>
   <path class="fil14" d="M232.81 338.41l20.31 -5.21c-0.25,-13.59 1.81,-28.03 6.28,-40.87 3.96,-11.38 10.13,-22.34 21.78,-26.53 -9.36,-2.87 -19.71,-2.57 -27.89,2.6 -8.34,5.27 -13.18,14.62 -16.43,23.93 -5.04,14.48 -7.05,30.78 -6.07,46.08l2.02 0z"/>
   <path class="fil12" d="M253.28 268.4c4.49,-2.84 9.7,-4.22 14.98,-4.38 20.94,-0.65 35.6,14.61 47.7,29.98 4.54,5.76 8.94,11.69 13.75,17.22 -5.66,2.07 -11.39,3.89 -17.11,5.83 -11.89,-11.78 -22.31,-29.18 -33.43,-39.27 -4.67,-4.24 -12.33,-10.49 -19.09,-9.6 -4.82,0.63 -9.31,3.06 -13.25,5.79 1.89,-2.13 4.01,-4.02 6.44,-5.56z"/>
   <polygon class="fil2" points="251.58,196.46 207.47,202.86 207.55,224.44 251.58,224.44 "/>
   <polygon class="fil15" points="22.77,46.05 134.5,123.82 115.78,25.7 166.65,119.44 194.3,4.2 205.45,147.92 231.85,85.96 231,134.82 329.01,35.72 244.11,157.22 280.64,145.2 243.67,179.02 314.88,187.02 282,192.1 207.92,202.86 207.92,202.86 79.91,199.46 22.04,197.19 132.47,171.24 "/>
   <g>
    <g>
     <g>
      <path class="fil16" d="M176.22 204.54l2.26 2.51 0.28 0.32c3.66,4.08 13.03,1.63 20.92,-5.45 7.75,-6.96 11.2,-15.82 7.84,-19.99l-0.18 -0.22 -2.82 -3.14 -28.3 25.98zm0 0l0 0 0 0z"/>
     </g>
     <path class="fil17" d="M204.52 178.57c3.66,4.08 0.23,13.12 -7.66,20.21 -7.89,7.09 -17.26,9.53 -20.92,5.45 -3.66,-4.08 -0.23,-13.12 7.66,-20.21 7.9,-7.09 17.26,-9.52 20.92,-5.45z"/>
     <g>
      <path class="fil17" d="M196.71 199.1c-3.77,3.33 -7.98,5.72 -11.87,6.73 -4.01,1.04 -7.2,0.51 -9.01,-1.5 -1.8,-2.01 -2,-5.25 -0.53,-9.12 1.45,-3.84 4.37,-7.85 8.2,-11.29 7.93,-7.11 17.41,-9.57 21.12,-5.44 1.8,2.01 2,5.25 0.53,9.12 -1.45,3.84 -4.37,7.85 -8.2,11.29 -0.08,0.08 -0.16,0.14 -0.24,0.21l0 0zm-12.78 -15.18c-0.08,0.07 -0.16,0.14 -0.23,0.21 -3.8,3.41 -6.69,7.38 -8.13,11.18 -1.43,3.77 -1.26,6.9 0.47,8.84 1.74,1.93 4.84,2.44 8.73,1.42 3.93,-1.02 8.18,-3.46 11.99,-6.88 3.8,-3.41 6.69,-7.38 8.13,-11.18 1.43,-3.77 1.26,-6.9 -0.47,-8.84 -3.57,-3.97 -12.71,-1.61 -20.49,5.26z"/>
     </g>
     <path class="fil18" d="M201.69 181.11c2.78,3.09 -0.11,10.21 -6.44,15.89 -6.33,5.69 -13.71,7.79 -16.49,4.7 -2.78,-3.09 0.11,-10.2 6.44,-15.89 6.33,-5.69 13.71,-7.79 16.49,-4.7z"/>
     <path class="fil19" d="M197.38 203.71c-0.05,0.05 -0.14,0.05 -0.2,-0.01l-2.44 -2.72c-0.05,-0.05 -0.05,-0.14 0.01,-0.2l0 0c0.05,-0.05 0.14,-0.05 0.2,0.01l2.44 2.72c0.05,0.05 0.04,0.14 -0.01,0.2l0 0z"/>
     <path class="fil19" d="M198.78 202.63c-0.05,0.05 -0.14,0.05 -0.2,-0.01l-2.44 -2.72c-0.05,-0.05 -0.05,-0.14 0.01,-0.2l0 0c0.05,-0.05 0.14,-0.05 0.2,0.01l2.44 2.72c0.05,0.05 0.05,0.14 -0.01,0.2l0 0z"/>
     <path class="fil19" d="M199.89 201.64c-0.05,0.05 -0.14,0.05 -0.2,-0.01l-2.44 -2.72c-0.05,-0.05 -0.05,-0.14 0.01,-0.2l0 0c0.05,-0.05 0.14,-0.05 0.2,0.01l2.44 2.72c0.05,0.05 0.05,0.14 -0.01,0.2l0 0z"/>
     <path class="fil19" d="M205.36 195.25c-0.05,0.05 -0.14,0.05 -0.2,-0.01l-2.44 -2.72c-0.05,-0.05 -0.05,-0.14 0.01,-0.2l0 0c0.05,-0.05 0.14,-0.05 0.2,0.01l2.44 2.72c0.05,0.06 0.05,0.15 -0.01,0.2l0 0z"/>
     <path class="fil19" d="M206.67 193.09c-0.05,0.05 -0.14,0.05 -0.2,-0.01l-2.44 -2.72c-0.05,-0.05 -0.05,-0.14 0.01,-0.2l0 0c0.05,-0.05 0.14,-0.05 0.2,0.01l2.44 2.72c0.05,0.06 0.05,0.14 -0.01,0.2l0 0z"/>
     <path class="fil19" d="M207.35 191.65c-0.05,0.05 -0.14,0.05 -0.2,-0.01l-2.44 -2.72c-0.05,-0.05 -0.05,-0.14 0.01,-0.2l0 0c0.05,-0.05 0.14,-0.05 0.2,0.01l2.44 2.72c0.05,0.05 0.04,0.14 -0.01,0.2l0 0z"/>
     <path class="fil19" d="M208.62 187.58c-0.05,0.05 -0.14,0.05 -0.2,-0.01l-2.44 -2.72c-0.05,-0.05 -0.05,-0.14 0.01,-0.2l0 0c0.05,-0.05 0.14,-0.05 0.2,0.01l2.44 2.72c0.05,0.05 0.04,0.14 -0.01,0.2l0 0z"/>
     <path class="fil16" d="M185.56 186.2c6.21,-5.58 13.43,-7.7 16.33,-4.86 -0.06,-0.08 -0.12,-0.15 -0.19,-0.23 -2.78,-3.09 -10.16,-0.99 -16.49,4.7 -6.33,5.69 -9.21,12.8 -6.44,15.89 0.05,0.06 0.11,0.12 0.16,0.17 -2.46,-3.2 0.44,-10.12 6.62,-15.67z"/>
    </g>
    <g id="_1653677815936">
     <g>
      <g>
       <path class="fil16" d="M74.07 118.84l2.58 1.5 0.32 0.19c4.18,2.43 11.39,-2.17 16.1,-10.27 4.62,-7.96 5.11,-16.34 1.15,-18.93l-0.21 -0.14 -3.22 -1.87 -16.72 29.53zm0 0l0 0 0 0z"/>
      </g>
      <path class="fil17" d="M90.78 89.31c4.18,2.43 3.76,10.97 -0.94,19.07 -4.7,8.1 -11.91,12.7 -16.1,10.27 -4.18,-2.43 -3.76,-10.97 0.94,-19.07 4.71,-8.1 11.91,-12.7 16.1,-10.27z"/>
      <g>
       <path class="fil17" d="M89.81 108.69c-2.27,3.83 -5.15,6.97 -8.14,8.88 -3.08,1.97 -5.92,2.39 -7.98,1.19 -2.07,-1.2 -3.1,-3.87 -2.92,-7.52 0.18,-3.62 1.53,-7.78 3.82,-11.71 4.73,-8.14 12.02,-12.77 16.26,-10.31 2.07,1.2 3.1,3.87 2.92,7.52 -0.18,3.62 -1.53,7.78 -3.82,11.72 -0.05,0.08 -0.1,0.16 -0.14,0.24l0 0zm-14.87 -9.28c-0.05,0.08 -0.09,0.16 -0.14,0.24 -2.27,3.9 -3.61,8.02 -3.79,11.61 -0.18,3.55 0.82,6.15 2.8,7.29 1.98,1.15 4.72,0.73 7.72,-1.18 3.03,-1.93 5.93,-5.14 8.2,-9.04 2.27,-3.9 3.61,-8.02 3.79,-11.61 0.18,-3.55 -0.82,-6.15 -2.8,-7.29 -4.08,-2.37 -11.13,2.11 -15.79,9.99z"/>
      </g>
      <path class="fil18" d="M89.1 92.22c3.17,1.84 2.69,8.6 -1.09,15.1 -3.77,6.5 -9.41,10.27 -12.58,8.43 -3.17,-1.84 -2.69,-8.6 1.09,-15.1 3.78,-6.5 9.41,-10.27 12.58,-8.43z"/>
      <path class="fil19" d="M91.62 112.38c-0.03,0.06 -0.11,0.08 -0.17,0.04l-2.79 -1.62c-0.06,-0.03 -0.08,-0.11 -0.04,-0.17l0 0c0.03,-0.06 0.11,-0.08 0.17,-0.04l2.79 1.62c0.06,0.03 0.08,0.11 0.04,0.17l0 0z"/>
      <path class="fil19" d="M92.51 111.09c-0.03,0.06 -0.11,0.08 -0.17,0.04l-2.79 -1.62c-0.06,-0.03 -0.08,-0.11 -0.04,-0.17l0 0c0.03,-0.06 0.11,-0.08 0.17,-0.04l2.79 1.62c0.06,0.04 0.08,0.11 0.04,0.17l0 0z"/>
      <path class="fil19" d="M93.17 109.96c-0.03,0.06 -0.11,0.08 -0.17,0.04l-2.79 -1.62c-0.06,-0.03 -0.08,-0.11 -0.04,-0.17l0 0c0.03,-0.06 0.11,-0.08 0.17,-0.04l2.79 1.62c0.06,0.04 0.08,0.11 0.04,0.17l0 0z"/>
      <path class="fil19" d="M96.03 103.11c-0.03,0.06 -0.11,0.08 -0.17,0.04l-2.79 -1.62c-0.06,-0.03 -0.08,-0.11 -0.04,-0.17l0 0c0.03,-0.06 0.11,-0.08 0.17,-0.04l2.79 1.62c0.06,0.04 0.08,0.11 0.04,0.17l0 0z"/>
      <path class="fil19" d="M96.55 100.93c-0.03,0.06 -0.11,0.08 -0.17,0.04l-2.79 -1.62c-0.06,-0.03 -0.08,-0.11 -0.04,-0.17l0 0c0.03,-0.06 0.11,-0.08 0.17,-0.04l2.79 1.62c0.06,0.04 0.08,0.11 0.04,0.17l0 0z"/>
      <path class="fil19" d="M96.72 99.54c-0.03,0.06 -0.11,0.08 -0.17,0.04l-2.79 -1.62c-0.06,-0.03 -0.08,-0.11 -0.04,-0.17l0 0c0.03,-0.06 0.11,-0.08 0.17,-0.04l2.79 1.62c0.06,0.04 0.07,0.11 0.04,0.17l0 0z"/>
      <path class="fil19" d="M96.68 95.77c-0.03,0.06 -0.11,0.08 -0.17,0.04l-2.79 -1.62c-0.06,-0.03 -0.08,-0.11 -0.04,-0.17l0 0c0.03,-0.06 0.11,-0.08 0.17,-0.04l2.79 1.62c0.05,0.04 0.07,0.11 0.04,0.17l0 0z"/>
      <path class="fil16" d="M76.93 100.89c3.7,-6.38 9.19,-10.13 12.39,-8.53 -0.07,-0.05 -0.14,-0.1 -0.22,-0.14 -3.17,-1.84 -8.8,1.93 -12.58,8.43 -3.77,6.5 -4.26,13.26 -1.09,15.1 0.06,0.04 0.12,0.07 0.18,0.1 -2.92,-2.02 -2.37,-8.62 1.31,-14.96z"/>
     </g>
     <g>
      <g id="_1689650483072">
       <g>
        <path class="fil16" d="M248.36 106.51l-0.53 1.59 -0.07 0.2c-0.86,2.59 4.17,6.62 11.24,9.02 6.94,2.35 13.26,2.24 14.29,-0.22l0.05 -0.13 0.67 -1.99 -25.65 -8.47zm0 0l0 0 0 0z"/>
       </g>
       <path class="fil19" d="M257.1 116.57c-0.05,-0.02 -0.08,-0.06 -0.07,-0.1l0.58 -1.72c0.01,-0.03 0.06,-0.05 0.12,-0.03l0 0c0.05,0.02 0.08,0.06 0.07,0.1l-0.57 1.72c-0.01,0.03 -0.07,0.05 -0.12,0.03l0 0z"/>
       <path class="fil19" d="M258.25 117.04c-0.05,-0.02 -0.08,-0.06 -0.07,-0.1l0.58 -1.72c0.01,-0.03 0.06,-0.05 0.12,-0.03l0 0c0.05,0.02 0.08,0.06 0.07,0.1l-0.58 1.72c-0.01,0.03 -0.06,0.05 -0.12,0.03l0 0z"/>
       <path class="fil19" d="M259.24 117.37c-0.05,-0.02 -0.08,-0.06 -0.07,-0.1l0.58 -1.72c0.01,-0.03 0.06,-0.05 0.12,-0.03l0 0c0.05,0.02 0.08,0.06 0.07,0.1l-0.58 1.72c-0.01,0.03 -0.07,0.05 -0.12,0.03l0 0z"/>
       <path class="fil19" d="M264.97 118.73c-0.05,-0.02 -0.08,-0.06 -0.07,-0.1l0.58 -1.72c0.01,-0.03 0.06,-0.05 0.12,-0.03l0 0c0.05,0.02 0.08,0.06 0.07,0.1l-0.58 1.72c-0.01,0.04 -0.07,0.05 -0.12,0.03l0 0z"/>
       <path class="fil19" d="M266.69 118.93c-0.05,-0.02 -0.08,-0.06 -0.07,-0.1l0.58 -1.72c0.01,-0.03 0.06,-0.05 0.12,-0.03l0 0c0.05,0.02 0.08,0.06 0.07,0.1l-0.58 1.72c-0.01,0.04 -0.06,0.05 -0.12,0.03l0 0z"/>
       <path class="fil19" d="M267.77 118.96c-0.05,-0.02 -0.08,-0.06 -0.07,-0.1l0.58 -1.72c0.01,-0.03 0.06,-0.05 0.12,-0.03l0 0c0.05,0.02 0.08,0.06 0.07,0.1l-0.58 1.72c-0.01,0.04 -0.07,0.05 -0.12,0.03l0 0z"/>
       <path class="fil19" d="M270.54 118.76c-0.05,-0.02 -0.08,-0.06 -0.07,-0.1l0.58 -1.72c0.01,-0.03 0.06,-0.05 0.12,-0.03l0 0c0.05,0.02 0.08,0.06 0.07,0.1l-0.58 1.72c-0.01,0.03 -0.07,0.05 -0.12,0.03l0 0z"/>
      </g>
      <g>
       <path class="fil17" d="M273.89 115c-0.69,2.11 -6.94,1.88 -13.96,-0.5 -7.02,-2.39 -12.14,-6.02 -11.44,-8.14 0.69,-2.11 6.94,-1.88 13.96,0.5 7.01,2.39 12.14,6.03 11.44,8.14z"/>
       <g>
        <path class="fil17" d="M259.7 114.48c-3.32,-1.15 -6.32,-2.61 -8.45,-4.12 -2.19,-1.56 -3.21,-2.98 -2.87,-4.03 0.34,-1.04 2,-1.56 4.67,-1.46 2.65,0.1 5.99,0.79 9.39,1.94 7.05,2.39 12.23,6.09 11.52,8.22 -0.34,1.04 -2,1.56 -4.67,1.46 -2.65,-0.1 -5.99,-0.79 -9.39,-1.94 -0.07,-0.03 -0.14,-0.05 -0.21,-0.08l0 0zm2.93 -7.49c-0.07,-0.02 -0.14,-0.05 -0.21,-0.07 -3.38,-1.15 -6.68,-1.83 -9.3,-1.93 -2.6,-0.1 -4.21,0.4 -4.54,1.4 -0.33,0.99 0.67,2.38 2.8,3.9 2.15,1.53 5.19,3 8.58,4.15 3.38,1.15 6.68,1.83 9.3,1.93 2.6,0.1 4.21,-0.4 4.54,-1.4 0.67,-2.05 -4.32,-5.61 -11.17,-7.98z"/>
       </g>
       <path class="fil18" d="M271.37 114.14c-0.53,1.6 -5.52,1.34 -11.14,-0.57 -5.63,-1.91 -9.76,-4.76 -9.23,-6.36 0.53,-1.6 5.52,-1.34 11.14,0.57 5.63,1.91 9.76,4.76 9.23,6.36z"/>
       <path class="fil16" d="M262.06 107.99c5.52,1.88 9.61,4.65 9.26,6.26 0.02,-0.03 0.03,-0.07 0.05,-0.11 0.53,-1.6 -3.61,-4.45 -9.23,-6.36 -5.63,-1.91 -10.62,-2.17 -11.14,-0.57 -0.01,0.03 -0.02,0.06 -0.03,0.09 0.71,-1.47 5.6,-1.18 11.09,0.69z"/>
      </g>
     </g>
     <g>
      <ellipse class="fil16" transform="matrix(0.0454587 -0.079022 0.079022 0.0454587 145.38 146.922)" rx="103" ry="174.23"/>
      <path class="fil16" d="M148.61 142.56l11.06 11.16 -2.04 2.39c0,0 -6.99,0.12 -7.18,0.11 -0.18,-0 -13.44,-5.96 -13.44,-5.96l-5.63 -10.68 1.59 -2.94 1.91 0.45 13.72 5.46z"/>
      <g>
       <path class="fil19" d="M136.67 152.19c-0.06,-0.04 -0.06,-0.13 -0.01,-0.19l2.27 -3.24c0.05,-0.07 0.13,-0.09 0.19,-0.05l0 0c0.06,0.04 0.06,0.13 0.01,0.19l-2.27 3.24c-0.05,0.07 -0.13,0.09 -0.19,0.05l0 0z"/>
       <path class="fil19" d="M137.87 153.21c-0.06,-0.04 -0.06,-0.13 -0.01,-0.19l2.27 -3.24c0.05,-0.07 0.13,-0.09 0.19,-0.05l0 0c0.06,0.04 0.06,0.13 0.01,0.19l-2.27 3.24c-0.05,0.06 -0.13,0.09 -0.19,0.05l0 0z"/>
       <path class="fil19" d="M138.95 153.97c-0.06,-0.04 -0.06,-0.13 -0.01,-0.19l2.27 -3.24c0.05,-0.07 0.13,-0.09 0.19,-0.05l0 0c0.06,0.04 0.06,0.13 0.01,0.19l-2.27 3.24c-0.05,0.07 -0.13,0.09 -0.19,0.05l0 0z"/>
       <path class="fil19" d="M145.71 157.23c-0.06,-0.04 -0.06,-0.13 -0.01,-0.19l2.27 -3.24c0.05,-0.07 0.13,-0.09 0.19,-0.05l0 0c0.06,0.04 0.06,0.13 0.01,0.19l-2.27 3.24c-0.05,0.07 -0.13,0.09 -0.19,0.05l0 0z"/>
       <path class="fil19" d="M147.93 157.82c-0.06,-0.04 -0.06,-0.13 -0.01,-0.19l2.27 -3.24c0.05,-0.07 0.13,-0.09 0.19,-0.05l0 0c0.06,0.04 0.06,0.13 0.01,0.19l-2.27 3.24c-0.04,0.07 -0.13,0.09 -0.19,0.05l0 0z"/>
       <path class="fil19" d="M149.39 158c-0.06,-0.04 -0.06,-0.13 -0.01,-0.19l2.27 -3.24c0.05,-0.07 0.13,-0.09 0.19,-0.05l0 0c0.06,0.04 0.06,0.13 0.01,0.19l-2.27 3.24c-0.04,0.07 -0.13,0.09 -0.19,0.05l0 0z"/>
       <path class="fil19" d="M153.42 157.94c-0.06,-0.04 -0.06,-0.13 -0.01,-0.19l2.27 -3.24c0.05,-0.07 0.13,-0.09 0.19,-0.05l0 0c0.06,0.04 0.06,0.13 0.01,0.19l-2.27 3.24c-0.05,0.07 -0.13,0.09 -0.19,0.05l0 0z"/>
      </g>
      <ellipse class="fil17" transform="matrix(0.0471623 -0.0780181 0.0780181 0.0471623 146.318 145.192)" rx="94.45" ry="173.9"/>
      <g>
       <path class="fil16" d="M150.63 139.01c-6.26,-3.74 -13.13,-4.08 -15.35,-0.77 -0.09,0.13 -0.16,0.26 -0.24,0.4 2.28,-3.22 9.09,-2.85 15.3,0.85 6.01,3.59 9.26,9 7.54,12.35 0.02,-0.03 0.04,-0.05 0.06,-0.08 2.21,-3.31 -1.06,-9.02 -7.31,-12.76z"/>
       <path class="fil18" d="M150.34 139.49c-6.2,-3.7 -13.02,-4.08 -15.3,-0.85 -1.72,3.36 1.53,8.77 7.54,12.35 6.2,3.7 13.02,4.08 15.3,0.85 1.73,-3.35 -1.53,-8.77 -7.54,-12.36z"/>
      </g>
     </g>
     <g>
      <ellipse class="fil20" transform="matrix(0.0433241 -0.132212 0.132212 0.043324 135.762 54.8656)" rx="128.62" ry="178.81"/>
      <polygon class="fil17" points="157.3,68.12 159.4,62.61 158.35,59.75 156.62,61.66 "/>
      <polygon class="fil17" points="113.34,45.72 112.52,46.06 110.51,51.32 113.96,50.74 "/>
      <ellipse class="fil21" transform="matrix(0.0433241 -0.132212 0.132212 0.043324 134.082 59.2595)" rx="128.62" ry="178.81"/>
      <ellipse class="fil20" transform="matrix(0.0433241 -0.132212 0.132212 0.043324 133.69 59.581)" rx="104.15" ry="150.85"/>
      <path class="fil22" d="M129.59 72.41c-11.02,-3.61 -17.92,-12.7 -15.43,-20.31 0.05,-0.14 0.1,-0.29 0.15,-0.43 -0.21,0.43 -0.4,0.89 -0.55,1.35 -2.49,7.6 4.41,16.7 15.43,20.31 10.8,3.54 21.54,0.49 24.3,-6.8 -3.28,6.63 -13.56,9.27 -23.9,5.88z"/>
      <path class="fil19" d="M150.57 48.12c-0.07,-0.03 -0.1,-0.11 -0.07,-0.19l1.52 -3.37c0.03,-0.07 0.11,-0.11 0.19,-0.07l0 0c0.07,0.03 0.1,0.11 0.07,0.19l-1.52 3.37c-0.03,0.08 -0.11,0.11 -0.19,0.07l0 0z"/>
      <path class="fil19" d="M139.48 41.91c-0.07,-0.03 -0.1,-0.11 -0.07,-0.19l1.52 -3.37c0.03,-0.07 0.11,-0.11 0.19,-0.07l0 0c0.07,0.03 0.1,0.11 0.07,0.19l-1.52 3.37c-0.03,0.07 -0.11,0.1 -0.19,0.07l0 0z"/>
      <path class="fil19" d="M134.95 40.85c-0.07,-0.03 -0.1,-0.11 -0.07,-0.19l1.52 -3.37c0.03,-0.07 0.11,-0.11 0.19,-0.07l0 0c0.07,0.03 0.1,0.11 0.07,0.19l-1.52 3.37c-0.03,0.07 -0.11,0.11 -0.19,0.07l0 0z"/>
      <path class="fil19" d="M116.97 43.3c-0.07,-0.03 -0.1,-0.11 -0.07,-0.19l1.52 -3.37c0.03,-0.07 0.11,-0.11 0.19,-0.07l0 0c0.07,0.03 0.1,0.11 0.07,0.19l-1.52 3.37c-0.03,0.07 -0.11,0.1 -0.19,0.07l0 0z"/>
      <path class="fil19" d="M113.17 46.5c-0.07,-0.03 -0.1,-0.11 -0.07,-0.19l1.52 -3.37c0.03,-0.07 0.11,-0.11 0.19,-0.07l0 0c0.07,0.03 0.1,0.11 0.07,0.19l-1.52 3.37c-0.03,0.07 -0.11,0.1 -0.19,0.07l0 0z"/>
      <path class="fil19" d="M136.52 41.19c-0.07,-0.03 -0.1,-0.11 -0.07,-0.19l1.52 -3.37c0.03,-0.07 0.11,-0.11 0.19,-0.07l0 0c0.07,0.03 0.1,0.11 0.07,0.19l-1.52 3.37c-0.04,0.08 -0.12,0.11 -0.19,0.07l0 0z"/>
      <path class="fil19" d="M154.44 52.08c-0.08,-0.02 -0.11,-0.11 -0.08,-0.18l1.23 -3.49c0.02,-0.08 0.11,-0.11 0.18,-0.08l0 0c0.08,0.02 0.11,0.11 0.08,0.18l-1.23 3.49c-0.02,0.08 -0.11,0.11 -0.18,0.08l0 0z"/>
      <path class="fil19" d="M156.13 54.82c-0.07,-0.03 -0.11,-0.11 -0.08,-0.18l1.4 -3.42c0.03,-0.08 0.11,-0.11 0.18,-0.08l0 0c0.07,0.03 0.11,0.11 0.08,0.18l-1.4 3.42c-0.02,0.07 -0.11,0.11 -0.18,0.08l0 0z"/>
     </g>
     <g>
      <ellipse class="fil16" transform="matrix(0.125278 -0.0638334 0.0638334 0.125278 205.263 146.232)" rx="123.22" ry="171.34"/>
      <polygon class="fil17" points="199.54,122.41 194.34,124.76 193.1,127.44 195.6,127.32 "/>
      <polygon class="fil17" points="214.42,167.83 215.22,168.15 220.18,165.92 217.42,163.96 "/>
      <ellipse class="fil17" transform="matrix(0.125278 -0.0638334 0.0638334 0.125278 209.416 144.362)" rx="123.22" ry="171.34"/>
      <ellipse class="fil18" transform="matrix(0.125278 -0.0638334 0.0638334 0.125278 209.9 144.406)" rx="99.79" ry="144.53"/>
      <path class="fil16" d="M221.5 138.4c5.09,10 3.63,20.97 -3.27,24.48 -0.13,0.07 -0.26,0.13 -0.4,0.19 0.44,-0.15 0.88,-0.33 1.3,-0.55 6.91,-3.52 8.37,-14.48 3.27,-24.48 -5,-9.81 -14.46,-15.05 -21.33,-11.93 6.78,-2.31 15.65,2.89 20.43,12.28z"/>
      <path class="fil19" d="M190.49 140.75c0.03,0.07 -0.01,0.15 -0.08,0.18l-3.35 1.27c-0.07,0.03 -0.15,-0.01 -0.18,-0.08l0 0c-0.03,-0.07 0.01,-0.15 0.08,-0.18l3.35 -1.27c0.07,-0.03 0.15,0 0.18,0.08l0 0z"/>
      <path class="fil19" d="M193.86 152.59c0.03,0.07 -0.01,0.15 -0.08,0.18l-3.35 1.27c-0.07,0.03 -0.15,-0.01 -0.18,-0.08l0 0c-0.03,-0.07 0.01,-0.15 0.08,-0.18l3.35 -1.27c0.07,-0.03 0.15,0.01 0.18,0.08l0 0z"/>
      <path class="fil19" d="M196.26 156.41c0.03,0.07 -0.01,0.15 -0.08,0.18l-3.35 1.27c-0.07,0.03 -0.15,-0.01 -0.18,-0.08l0 0c-0.03,-0.07 0.01,-0.15 0.08,-0.18l3.35 -1.27c0.07,-0.03 0.15,0.01 0.18,0.08l0 0z"/>
      <path class="fil19" d="M210.28 167.01c0.03,0.07 -0.01,0.15 -0.08,0.18l-3.35 1.27c-0.07,0.03 -0.15,-0.01 -0.18,-0.08l0 0c-0.03,-0.07 0.01,-0.15 0.08,-0.18l3.35 -1.27c0.07,-0.03 0.15,0.01 0.18,0.08l0 0z"/>
      <path class="fil19" d="M215.07 167.4c0.03,0.07 -0.01,0.15 -0.08,0.18l-3.35 1.27c-0.07,0.03 -0.15,-0.01 -0.18,-0.08l0 0c-0.03,-0.07 0.01,-0.15 0.08,-0.18l3.35 -1.27c0.07,-0.03 0.15,0.01 0.18,0.08l0 0z"/>
      <path class="fil19" d="M195.41 155.09c0.03,0.07 -0.01,0.15 -0.08,0.18l-3.35 1.27c-0.07,0.03 -0.15,-0.01 -0.18,-0.08l0 0c-0.03,-0.07 0.01,-0.15 0.08,-0.18l3.35 -1.27c0.07,-0.02 0.15,0.01 0.18,0.08l0 0z"/>
      <path class="fil19" d="M190.55 135.38c0.03,0.06 -0,0.15 -0.06,0.18l-3.23 1.56c-0.06,0.03 -0.15,0.01 -0.18,-0.06l0 0c-0.03,-0.06 0,-0.15 0.06,-0.18l3.23 -1.56c0.06,-0.03 0.14,-0 0.18,0.06l0 0z"/>
      <path class="fil19" d="M191.25 132.35c0.03,0.07 -0,0.15 -0.07,0.18l-3.3 1.39c-0.07,0.03 -0.15,-0 -0.18,-0.07l0 0c-0.03,-0.07 0,-0.15 0.07,-0.18l3.3 -1.39c0.07,-0.03 0.15,0 0.18,0.07l0 0z"/>
     </g>
     <g>
      <ellipse class="fil17" transform="matrix(0.0461645 -0.117117 0.117117 0.0461645 139.004 177.414)" rx="71.18" ry="51.17"/>
      <polygon class="fil17" points="133.79,184.88 135.73,185.75 136.78,185.44 136.13,184.77 "/>
      <polygon class="fil17" points="142.78,169.54 142.67,169.24 140.83,168.41 140.96,169.66 "/>
      <ellipse class="fil20" transform="matrix(0.0461645 -0.117117 0.117117 0.0461645 137.46 176.724)" rx="71.18" ry="51.17"/>
      <ellipse class="fil20" transform="matrix(0.0461645 -0.117117 0.117117 0.0461645 137.358 176.575)" rx="60.06" ry="41.47"/>
      <path class="fil22" d="M132.83 174.82c1.53,-3.88 4.95,-6.17 7.63,-5.12 0.05,0.02 0.1,0.04 0.15,0.06 -0.15,-0.09 -0.31,-0.16 -0.47,-0.23 -2.68,-1.06 -6.1,1.23 -7.63,5.12 -1.5,3.81 -0.63,7.74 1.93,8.88 -2.31,-1.32 -3.05,-5.08 -1.61,-8.72z"/>
      <path class="fil19" d="M141.13 182.88c0.01,-0.03 0.04,-0.03 0.07,-0.02l1.18 0.62c0.03,0.01 0.03,0.04 0.02,0.07l0 0c-0.01,0.03 -0.04,0.03 -0.07,0.02l-1.18 -0.62c-0.03,-0.01 -0.03,-0.04 -0.02,-0.07l0 0z"/>
      <path class="fil19" d="M143.6 179.03c0.01,-0.03 0.04,-0.03 0.07,-0.02l1.18 0.62c0.03,0.01 0.03,0.04 0.02,0.07l0 0c-0.01,0.03 -0.04,0.03 -0.07,0.02l-1.18 -0.62c-0.03,-0.01 -0.03,-0.05 -0.02,-0.07l0 0z"/>
      <path class="fil19" d="M144.07 177.42c0.01,-0.03 0.04,-0.03 0.07,-0.02l1.18 0.62c0.03,0.01 0.03,0.04 0.02,0.07l0 0c-0.01,0.03 -0.04,0.03 -0.07,0.02l-1.18 -0.62c-0.03,-0.01 -0.03,-0.04 -0.02,-0.07l0 0z"/>
      <path class="fil19" d="M143.57 170.9c0.01,-0.03 0.04,-0.03 0.07,-0.02l1.18 0.62c0.03,0.01 0.03,0.04 0.02,0.07l0 0c-0.01,0.03 -0.04,0.03 -0.07,0.02l-1.18 -0.62c-0.03,-0.01 -0.03,-0.04 -0.02,-0.07l0 0z"/>
      <path class="fil19" d="M142.5 169.46c0.01,-0.03 0.04,-0.03 0.07,-0.02l1.18 0.62c0.03,0.01 0.03,0.04 0.02,0.07l0 0c-0.01,0.03 -0.04,0.03 -0.07,0.02l-1.18 -0.62c-0.03,-0.01 -0.03,-0.04 -0.02,-0.07l0 0z"/>
      <path class="fil19" d="M143.92 177.98c0.01,-0.03 0.04,-0.03 0.07,-0.02l1.18 0.62c0.03,0.01 0.03,0.04 0.02,0.07l0 0c-0.01,0.03 -0.04,0.03 -0.07,0.02l-1.18 -0.62c-0.03,-0.01 -0.03,-0.05 -0.02,-0.07l0 0z"/>
      <path class="fil19" d="M139.62 184.19c0.01,-0.03 0.04,-0.04 0.07,-0.03l1.23 0.51c0.03,0.01 0.04,0.04 0.03,0.07l0 0c-0.01,0.03 -0.04,0.04 -0.07,0.03l-1.23 -0.51c-0.03,-0.01 -0.04,-0.05 -0.03,-0.07l0 0z"/>
      <path class="fil19" d="M138.6 184.74c0.01,-0.03 0.04,-0.03 0.07,-0.02l1.2 0.58c0.03,0.01 0.03,0.04 0.02,0.07l0 0c-0.01,0.03 -0.04,0.03 -0.07,0.02l-1.2 -0.58c-0.03,-0.01 -0.03,-0.05 -0.02,-0.07l0 0z"/>
     </g>
     <g>
      <path class="fil23" d="M147.96 107.56l2.38 3.84c0.66,1.06 7.87,-2.23 16.1,-7.34 8.23,-5.11 14.37,-10.13 13.7,-11.18l-2.38 -3.84 -29.8 18.53z"/>
      <ellipse class="fil24" transform="matrix(0.0895403 -0.0556725 0.0556727 0.0895399 162.858 98.2985)" rx="166.38" ry="18.91"/>
      <ellipse class="fil25" transform="matrix(0.0895403 -0.0556725 0.0556727 0.0895399 162.858 98.2985)" rx="140.93" ry="10.08"/>
      <line class="fil26 str0" x1="155.59" y1="104.75" x2="158.11" y2= "108.8" />
      <line class="fil26 str0" x1="151.45" y1="106.78" x2="153.97" y2= "110.83" />
      <line class="fil26 str0" x1="159.9" y1="102.7" x2="162.24" y2= "106.46" />
      <line class="fil26 str0" x1="167.78" y1="97.6" x2="170.16" y2= "101.43" />
      <line class="fil26 str0" x1="170.6" y1="95.84" x2="172.87" y2= "99.47" />
      <line class="fil26 str0" x1="174.78" y1="92.72" x2="177.07" y2= "96.39" />
      <line class="fil26 str0" x1="176.16" y1="91.54" x2="178.39" y2= "95.12" />
     </g>
     <g>
      <g>
       <path class="fil16" d="M199.7 66.74l-1.47 4.31 -0.18 0.54c-2.38,6.99 4.72,15.7 15.86,19.44 10.94,3.68 21.71,1.19 24.33,-5.53l0.14 -0.36 1.83 -5.39 -40.51 -13.01zm0 0l0 0 0 0z"/>
      </g>
      <path class="fil19" d="M210.96 89.75c-0.08,-0.03 -0.12,-0.13 -0.09,-0.23l1.58 -4.67c0.03,-0.1 0.13,-0.15 0.21,-0.13l0 0c0.08,0.03 0.12,0.13 0.09,0.23l-1.58 4.67c-0.04,0.1 -0.13,0.15 -0.21,0.13l0 0z"/>
      <path class="fil19" d="M212.75 90.55c-0.08,-0.03 -0.12,-0.13 -0.09,-0.23l1.58 -4.67c0.03,-0.1 0.13,-0.15 0.21,-0.13l0 0c0.08,0.03 0.12,0.13 0.09,0.23l-1.58 4.67c-0.04,0.1 -0.13,0.15 -0.21,0.13l0 0z"/>
      <path class="fil19" d="M214.31 91.07c-0.08,-0.03 -0.12,-0.13 -0.09,-0.23l1.58 -4.67c0.03,-0.1 0.13,-0.15 0.21,-0.13l0 0c0.08,0.03 0.12,0.13 0.09,0.23l-1.58 4.67c-0.03,0.1 -0.13,0.16 -0.21,0.13l0 0z"/>
      <path class="fil19" d="M223.53 92.62c-0.08,-0.03 -0.12,-0.13 -0.09,-0.23l1.58 -4.67c0.03,-0.1 0.13,-0.15 0.21,-0.13l0 0c0.08,0.03 0.12,0.13 0.09,0.23l-1.58 4.67c-0.03,0.1 -0.13,0.15 -0.21,0.13l0 0z"/>
      <path class="fil19" d="M226.39 92.54c-0.08,-0.03 -0.12,-0.13 -0.09,-0.23l1.58 -4.67c0.03,-0.1 0.13,-0.15 0.21,-0.13l0 0c0.08,0.03 0.12,0.13 0.09,0.23l-1.58 4.67c-0.04,0.1 -0.13,0.15 -0.21,0.13l0 0z"/>
      <path class="fil19" d="M228.2 92.25c-0.08,-0.03 -0.12,-0.13 -0.09,-0.23l1.58 -4.67c0.03,-0.1 0.13,-0.15 0.21,-0.13l0 0c0.08,0.03 0.12,0.13 0.09,0.23l-1.58 4.67c-0.03,0.1 -0.13,0.15 -0.21,0.13l0 0z"/>
      <path class="fil19" d="M232.99 90.76c-0.08,-0.03 -0.12,-0.13 -0.09,-0.23l1.58 -4.67c0.03,-0.1 0.13,-0.15 0.21,-0.13l0 0c0.08,0.03 0.12,0.13 0.09,0.23l-1.58 4.67c-0.03,0.1 -0.13,0.15 -0.21,0.13l0 0z"/>
      <path class="fil17" d="M240.21 79.75c-2.57,7.55 -13.68,10.64 -24.82,6.91 -11.14,-3.74 -18.09,-12.88 -15.52,-20.43 2.57,-7.55 13.68,-10.64 24.82,-6.91 11.14,3.73 18.09,12.88 15.52,20.43z"/>
      <g>
       <path class="fil17" d="M214.99 86.74c-5.27,-1.83 -9.74,-4.92 -12.63,-8.71 -2.97,-3.91 -3.91,-8.12 -2.64,-11.84 1.27,-3.73 4.58,-6.5 9.33,-7.83 4.71,-1.31 10.29,-1.03 15.7,0.78 11.19,3.75 18.2,13.03 15.6,20.67 -1.27,3.73 -4.58,6.5 -9.33,7.83 -4.71,1.31 -10.29,1.03 -15.7,-0.78 -0.11,-0.04 -0.22,-0.07 -0.33,-0.11l0 0zm9.96 -27.11c-0.11,-0.04 -0.22,-0.07 -0.33,-0.11 -5.37,-1.8 -10.88,-2.07 -15.55,-0.78 -4.63,1.29 -7.84,3.96 -9.06,7.54 -1.22,3.58 -0.29,7.64 2.6,11.45 2.91,3.84 7.47,6.94 12.84,8.74 5.36,1.8 10.89,2.07 15.55,0.78 4.63,-1.28 7.84,-3.96 9.06,-7.54 2.5,-7.36 -4.26,-16.31 -15.11,-20.08z"/>
      </g>
      <path class="fil18" d="M236.22 78.42c-1.95,5.72 -10.77,7.93 -19.71,4.94 -8.94,-3 -14.6,-10.06 -12.65,-15.79 1.95,-5.72 10.77,-7.93 19.71,-4.94 8.94,3 14.6,10.06 12.65,15.79z"/>
      <path class="fil16" d="M223.32 63.36c8.76,2.94 14.38,9.8 12.75,15.46 0.05,-0.13 0.1,-0.26 0.15,-0.4 1.95,-5.72 -3.72,-12.79 -12.65,-15.79 -8.94,-3 -17.76,-0.79 -19.71,4.94 -0.04,0.11 -0.07,0.22 -0.1,0.33 2.22,-5.42 10.83,-7.47 19.56,-4.54z"/>
     </g>
    </g>
   </g>
   <polygon class="fil0" points="101.89,200.06 207.86,202.87 207.95,224.44 101.89,224.44 "/>
  </g>
  <polygon class="fil27" points="-0,348.79 348.79,348.79 348.79,0 -0,0 "/>
 </g>
</svg>
