<?xml version="1.0" encoding="UTF-8"?>
<!DOCTYPE svg PUBLIC "-//W3C//DTD SVG 1.1//EN" "http://www.w3.org/Graphics/SVG/1.1/DTD/svg11.dtd">
<!-- Creator: CorelDRAW 2021 (64-Bit) -->
<svg xmlns="http://www.w3.org/2000/svg" xml:space="preserve" width="432px" height="25px" version="1.1" style="shape-rendering:geometricPrecision; text-rendering:geometricPrecision; image-rendering:optimizeQuality; fill-rule:evenodd; clip-rule:evenodd"
viewBox="0 0 20.352 1.201"
 xmlns:xlink="http://www.w3.org/1999/xlink"
 xmlns:xodm="http://www.corel.com/coreldraw/odm/2003">
 <defs>
  <style type="text/css">
   <![CDATA[
    .fil5 {fill:white}
    .fil0 {fill:black;fill-rule:nonzero}
    .fil2 {fill:#005128;fill-rule:nonzero}
    .fil1 {fill:#00B67A;fill-rule:nonzero}
    .fil3 {fill:#DCDCE6;fill-rule:nonzero}
    .fil4 {fill:white;fill-rule:nonzero}
   ]]>
  </style>
 </defs>
 <g id="Layer_x0020_1">
  <metadata id="CorelCorpID_0Corel-Layer"/>
  <g id="_1639874809920">
   <path class="fil0" d="M1.282 0.425l0.494 0 0 0.092 -0.194 0 0 0.518 -0.107 0 0 -0.518 -0.193 0 0 -0.092 0 0zm0.473 0.168l0.091 0 0 0.085 0.002 0c0.003,-0.012 0.009,-0.023 0.017,-0.035 0.008,-0.011 0.018,-0.022 0.03,-0.031 0.011,-0.009 0.024,-0.016 0.038,-0.022 0.015,-0.006 0.029,-0.009 0.044,-0.009 0.011,0 0.019,0 0.024,0.001 0.004,0 0.008,0.001 0.013,0.002l0 0.093c-0.007,-0.001 -0.014,-0.002 -0.021,-0.003 -0.007,0 -0.014,-0.001 -0.021,-0.001 -0.017,0 -0.032,0.004 -0.047,0.01 -0.014,0.007 -0.027,0.016 -0.038,0.029 -0.01,0.013 -0.019,0.028 -0.026,0.047 -0.006,0.019 -0.009,0.041 -0.009,0.065l0 0.211 -0.097 0 0 -0.442 0 0zm0.706 0.442l-0.095 0 0 -0.062 -0.002 0c-0.012,0.023 -0.03,0.04 -0.053,0.054 -0.024,0.013 -0.048,0.02 -0.073,0.02 -0.058,0 -0.1,-0.014 -0.126,-0.043 -0.026,-0.029 -0.039,-0.072 -0.039,-0.131l0 -0.28 0.098 0 0 0.271c0,0.039 0.007,0.066 0.022,0.082 0.015,0.016 0.036,0.024 0.063,0.024 0.02,0 0.037,-0.003 0.051,-0.009 0.014,-0.007 0.025,-0.015 0.033,-0.026 0.009,-0.01 0.015,-0.023 0.019,-0.037 0.003,-0.015 0.005,-0.031 0.005,-0.048l0 -0.256 0.097 0 0 0.441zm0.166 -0.142c0.003,0.029 0.014,0.049 0.033,0.06 0.019,0.011 0.041,0.017 0.067,0.017 0.009,0 0.02,0 0.031,-0.002 0.012,-0.001 0.023,-0.004 0.033,-0.008 0.01,-0.004 0.018,-0.01 0.025,-0.018 0.007,-0.007 0.01,-0.017 0.009,-0.03 0,-0.012 -0.005,-0.023 -0.013,-0.03 -0.009,-0.009 -0.02,-0.015 -0.033,-0.02 -0.013,-0.004 -0.029,-0.009 -0.046,-0.012 -0.017,-0.004 -0.034,-0.008 -0.052,-0.011 -0.018,-0.004 -0.036,-0.009 -0.052,-0.015 -0.017,-0.006 -0.032,-0.013 -0.046,-0.023 -0.013,-0.01 -0.024,-0.022 -0.032,-0.037 -0.008,-0.015 -0.012,-0.034 -0.012,-0.056 0,-0.024 0.006,-0.044 0.018,-0.061 0.012,-0.016 0.027,-0.029 0.044,-0.039 0.019,-0.01 0.038,-0.017 0.06,-0.021 0.022,-0.004 0.043,-0.006 0.063,-0.006 0.023,0 0.045,0.003 0.066,0.007 0.02,0.005 0.039,0.013 0.056,0.024 0.017,0.011 0.031,0.025 0.042,0.042 0.011,0.017 0.018,0.039 0.021,0.063l-0.102 0c-0.004,-0.023 -0.015,-0.039 -0.032,-0.047 -0.016,-0.008 -0.036,-0.012 -0.057,-0.012 -0.007,0 -0.015,0.001 -0.025,0.002 -0.009,0.001 -0.018,0.003 -0.027,0.006 -0.008,0.003 -0.015,0.008 -0.021,0.014 -0.005,0.006 -0.008,0.014 -0.008,0.024 0,0.012 0.004,0.021 0.012,0.029 0.008,0.007 0.019,0.013 0.033,0.018 0.013,0.005 0.028,0.009 0.045,0.013 0.017,0.003 0.035,0.007 0.053,0.011 0.018,0.004 0.035,0.009 0.052,0.014 0.018,0.006 0.033,0.014 0.046,0.024 0.013,0.01 0.024,0.022 0.032,0.036 0.008,0.015 0.013,0.034 0.013,0.055 0,0.026 -0.006,0.048 -0.018,0.067 -0.012,0.018 -0.028,0.033 -0.047,0.044 -0.019,0.011 -0.04,0.02 -0.064,0.025 -0.023,0.005 -0.046,0.008 -0.069,0.008 -0.028,0 -0.054,-0.003 -0.077,-0.01 -0.024,-0.006 -0.045,-0.016 -0.062,-0.028 -0.017,-0.013 -0.031,-0.029 -0.041,-0.048 -0.01,-0.019 -0.015,-0.042 -0.016,-0.068l0.098 0 0 -0.001zm0.322 -0.3l0.073 0 0 -0.133 0.098 0 0 0.133 0.087 0 0 0.073 -0.087 0 0 0.236c0,0.01 0,0.019 0.001,0.027 0.001,0.007 0.003,0.013 0.006,0.019 0.003,0.005 0.008,0.009 0.014,0.011 0.007,0.003 0.015,0.004 0.026,0.004 0.007,0 0.014,0 0.021,0 0.007,-0.001 0.013,-0.002 0.02,-0.003l0 0.075c-0.01,0.001 -0.021,0.002 -0.031,0.003 -0.01,0.002 -0.021,0.002 -0.032,0.002 -0.025,0 -0.046,-0.002 -0.062,-0.007 -0.015,-0.005 -0.028,-0.012 -0.036,-0.022 -0.009,-0.009 -0.015,-0.021 -0.018,-0.035 -0.003,-0.014 -0.005,-0.031 -0.006,-0.049l0 -0.26 -0.074 0 0 -0.074 0 0zm0.327 0l0.093 0 0 0.06 0.001 0c0.014,-0.026 0.033,-0.044 0.058,-0.055 0.024,-0.011 0.05,-0.017 0.079,-0.017 0.035,0 0.065,0.006 0.091,0.019 0.026,0.012 0.047,0.028 0.065,0.05 0.017,0.021 0.029,0.046 0.038,0.075 0.009,0.028 0.013,0.059 0.013,0.091 0,0.03 -0.004,0.059 -0.012,0.086 -0.007,0.028 -0.019,0.053 -0.035,0.074 -0.015,0.022 -0.035,0.039 -0.059,0.052 -0.024,0.013 -0.052,0.019 -0.085,0.019 -0.014,0 -0.028,-0.001 -0.042,-0.004 -0.015,-0.002 -0.028,-0.007 -0.041,-0.012 -0.013,-0.006 -0.026,-0.013 -0.037,-0.022 -0.011,-0.009 -0.02,-0.02 -0.028,-0.031l-0.001 0 0 0.22 -0.098 0 0 -0.605zm0.341 0.221c0,-0.019 -0.003,-0.039 -0.008,-0.058 -0.005,-0.019 -0.013,-0.035 -0.023,-0.05 -0.011,-0.014 -0.024,-0.026 -0.039,-0.035 -0.015,-0.008 -0.033,-0.013 -0.053,-0.013 -0.041,0 -0.072,0.014 -0.092,0.043 -0.021,0.028 -0.031,0.066 -0.031,0.113 0,0.023 0.002,0.044 0.008,0.062 0.005,0.019 0.013,0.036 0.024,0.05 0.011,0.013 0.024,0.024 0.039,0.032 0.015,0.008 0.033,0.012 0.053,0.012 0.022,0 0.041,-0.005 0.056,-0.014 0.016,-0.009 0.028,-0.021 0.038,-0.035 0.01,-0.015 0.017,-0.031 0.022,-0.05 0.003,-0.018 0.006,-0.037 0.006,-0.057l0 0zm0.171 -0.389l0.098 0 0 0.092 -0.098 0 0 -0.092zm0 0.168l0.098 0 0 0.442 -0.098 0 0 -0.442zm0.185 -0.168l0.097 0 0 0.61 -0.097 0 0 -0.61zm0.396 0.622c-0.036,0 -0.067,-0.006 -0.095,-0.018 -0.027,-0.011 -0.051,-0.028 -0.07,-0.048 -0.019,-0.021 -0.034,-0.045 -0.043,-0.074 -0.01,-0.028 -0.015,-0.059 -0.015,-0.093 0,-0.034 0.005,-0.065 0.015,-0.093 0.009,-0.029 0.024,-0.053 0.043,-0.074 0.019,-0.021 0.043,-0.037 0.07,-0.048 0.028,-0.012 0.059,-0.018 0.095,-0.018 0.035,0 0.066,0.006 0.094,0.018 0.028,0.011 0.051,0.028 0.07,0.048 0.019,0.021 0.034,0.045 0.044,0.074 0.01,0.028 0.015,0.059 0.015,0.093 0,0.034 -0.005,0.065 -0.015,0.093 -0.01,0.029 -0.025,0.053 -0.044,0.074 -0.019,0.021 -0.042,0.037 -0.07,0.048 -0.028,0.012 -0.059,0.018 -0.094,0.018zm0 -0.077c0.021,0 0.04,-0.005 0.056,-0.014 0.016,-0.009 0.029,-0.021 0.039,-0.036 0.011,-0.014 0.018,-0.031 0.023,-0.05 0.005,-0.018 0.007,-0.037 0.007,-0.056 0,-0.019 -0.002,-0.038 -0.007,-0.057 -0.005,-0.019 -0.012,-0.035 -0.023,-0.05 -0.01,-0.014 -0.023,-0.026 -0.039,-0.035 -0.016,-0.009 -0.035,-0.014 -0.056,-0.014 -0.022,0 -0.041,0.005 -0.057,0.014 -0.016,0.009 -0.029,0.021 -0.039,0.035 -0.01,0.015 -0.018,0.031 -0.023,0.05 -0.005,0.019 -0.007,0.038 -0.007,0.057 0,0.019 0.002,0.038 0.007,0.056 0.005,0.019 0.013,0.036 0.023,0.05 0.01,0.015 0.023,0.027 0.039,0.036 0.016,0.01 0.035,0.014 0.057,0.014zm0.251 -0.377l0.074 0 0 -0.133 0.097 0 0 0.133 0.088 0 0 0.073 -0.088 0 0 0.236c0,0.01 0.001,0.019 0.001,0.027 0.001,0.007 0.003,0.013 0.006,0.019 0.003,0.005 0.008,0.009 0.015,0.011 0.006,0.003 0.014,0.004 0.026,0.004 0.006,0 0.013,0 0.02,0 0.007,-0.001 0.014,-0.002 0.021,-0.003l0 0.075c-0.011,0.001 -0.022,0.002 -0.032,0.003 -0.01,0.002 -0.02,0.002 -0.031,0.002 -0.026,0 -0.047,-0.002 -0.062,-0.007 -0.016,-0.005 -0.028,-0.012 -0.037,-0.022 -0.009,-0.009 -0.014,-0.021 -0.018,-0.035 -0.003,-0.014 -0.005,-0.031 -0.005,-0.049l0 -0.26 -0.074 0 0 -0.074 -0.001 0z"/>
   <polygon class="fil1" points="1.168,0.425 0.722,0.425 0.584,0 0.446,0.425 0,0.424 0.361,0.687 0.223,1.111 0.584,0.849 0.945,1.111 0.808,0.687 1.169,0.425 "/>
   <polygon class="fil2" points="0.839,0.783 0.808,0.687 0.584,0.849 "/>
  </g>
  <g id="_1639874810880">
   <polygon id="Rectangle-path" class="fil1" points="5.775,1.145 6.676,1.145 6.676,0.244 5.775,0.244 "/>
   <polygon class="fil1" points="6.751,1.145 7.652,1.145 7.652,0.244 6.751,0.244 "/>
   <polygon class="fil1" points="7.727,1.145 8.629,1.145 8.629,0.244 7.727,0.244 "/>
   <polygon class="fil1" points="8.704,1.145 9.605,1.145 9.605,0.244 8.704,0.244 "/>
   <g id="Half">
    <polygon class="fil3" points="10.13,1.145 10.581,1.145 10.581,0.244 10.13,0.244 "/>
    <polygon class="fil1" points="9.68,1.145 10.13,1.145 10.13,0.244 9.68,0.244 "/>
   </g>
   <path id="Shape" class="fil4" d="M6.226 0.851l0.137 -0.035 0.057 0.177 -0.194 -0.142zm0.315 -0.228l-0.241 0 -0.074 -0.227 -0.075 0.227 -0.241 0 0.195 0.141 -0.074 0.227 0.196 -0.141 0.12 -0.086 0.194 -0.141 0 0 0 0 0 0z"/>
   <path class="fil4" d="M7.202 0.851l0.137 -0.035 0.057 0.177 -0.194 -0.142zm0.315 -0.228l-0.241 0 -0.074 -0.227 -0.074 0.227 -0.242 0 0.196 0.141 -0.074 0.227 0.195 -0.141 0.12 -0.086 0.194 -0.141 0 0 0 0 0 0z"/>
   <path class="fil4" d="M8.178 0.851l0.137 -0.035 0.057 0.177 -0.194 -0.142zm0.315 -0.228l-0.241 0 -0.074 -0.227 -0.074 0.227 -0.241 0 0.195 0.141 -0.074 0.227 0.195 -0.141 0.12 -0.086 0.194 -0.141 0 0 0 0 0 0z"/>
   <path class="fil4" d="M9.154 0.851l0.137 -0.035 0.057 0.177 -0.194 -0.142zm0.316 -0.228l-0.242 0 -0.074 -0.227 -0.074 0.227 -0.241 0 0.195 0.141 -0.074 0.227 0.195 -0.141 0.12 -0.086 0.195 -0.141 0 0 0 0 0 0z"/>
   <path class="fil4" d="M10.13 0.851l0.137 -0.035 0.058 0.177 -0.195 -0.142zm0.316 -0.228l-0.241 0 -0.075 -0.227 -0.074 0.227 -0.241 0 0.195 0.141 -0.074 0.227 0.195 -0.141 0.12 -0.086 0.195 -0.141 0 0 0 0 0 0z"/>
  </g>
  <g id="_1639874784672">
   <path class="fil1" d="M16.282 0.223l0 0c0.026,-0.018 0.061,-0.012 0.08,0.013l0 0c0.016,0.019 0.041,0.027 0.064,0.02l0 0c0.03,-0.008 0.062,0.008 0.072,0.037l0 0c0.009,0.023 0.03,0.038 0.054,0.039l0 0c0.031,0.001 0.057,0.027 0.058,0.058l0 0c0.001,0.025 0.017,0.046 0.039,0.054l0 0c0.03,0.011 0.046,0.043 0.037,0.073l0 0c-0.007,0.023 0.002,0.048 0.021,0.063l0 0c0.024,0.019 0.03,0.055 0.013,0.081l0 0c-0.014,0.02 -0.014,0.046 0,0.067l0 0c0.017,0.026 0.012,0.061 -0.013,0.08l0 0c-0.02,0.015 -0.028,0.04 -0.021,0.064l0 0c0.009,0.03 -0.008,0.061 -0.037,0.072l0 0c-0.022,0.009 -0.038,0.03 -0.039,0.054l0 0c-0.001,0.031 -0.027,0.057 -0.058,0.058l0 0c-0.024,0.001 -0.045,0.016 -0.054,0.039l0 0c-0.01,0.03 -0.042,0.045 -0.072,0.037l0 0c-0.023,-0.007 -0.048,0.002 -0.064,0.02l0 0c-0.019,0.025 -0.054,0.03 -0.08,0.013l0 0c-0.021,-0.013 -0.047,-0.013 -0.067,0l0 0c-0.026,0.018 -0.061,0.012 -0.081,-0.013l0 0c-0.015,-0.019 -0.04,-0.027 -0.063,-0.02l0 0c-0.03,0.008 -0.062,-0.008 -0.073,-0.037l0 0c-0.008,-0.023 -0.03,-0.038 -0.054,-0.039l0 0c-0.031,-0.001 -0.056,-0.027 -0.057,-0.058l0 0c-0.002,-0.024 -0.017,-0.045 -0.04,-0.054l0 0c-0.029,-0.011 -0.045,-0.042 -0.036,-0.072l0 0c0.006,-0.024 -0.002,-0.049 -0.021,-0.064l0 0c-0.024,-0.019 -0.03,-0.054 -0.013,-0.08l0 0c0.014,-0.021 0.014,-0.047 0,-0.067l0 0c-0.017,-0.026 -0.012,-0.062 0.013,-0.081l0 0c0.019,-0.015 0.027,-0.04 0.021,-0.063l0 0c-0.009,-0.03 0.007,-0.062 0.036,-0.073l0 0c0.023,-0.008 0.038,-0.03 0.04,-0.054l0 0c0.001,-0.031 0.026,-0.057 0.057,-0.058l0 0c0.025,-0.001 0.046,-0.016 0.054,-0.039l0 0c0.011,-0.029 0.043,-0.045 0.073,-0.037l0 0c0.023,0.007 0.048,-0.001 0.063,-0.02l0 0c0.02,-0.024 0.055,-0.03 0.081,-0.013l0 0c0.02,0.013 0.047,0.013 0.067,0z"/>
   <path class="fil5" d="M15.928 0.724l0.084 -0.084 0.143 0.142 0.312 -0.311 0.084 0.084c-0.132,0.132 -0.264,0.264 -0.396,0.396l-0.227 -0.227z"/>
  </g>
  <path class="fil0" d="M17.178 0.964l-0.193 -0.54 0.118 0 0.137 0.4 0.132 -0.4 0.116 0 -0.192 0.54 -0.118 0zm0.549 -0.124l0.103 0.017c-0.013,0.038 -0.034,0.067 -0.063,0.087 -0.028,0.02 -0.064,0.03 -0.107,0.03 -0.068,0 -0.118,-0.023 -0.151,-0.067 -0.026,-0.036 -0.039,-0.081 -0.039,-0.135 0,-0.065 0.017,-0.116 0.051,-0.153 0.034,-0.036 0.077,-0.055 0.129,-0.055 0.058,0 0.104,0.019 0.137,0.058 0.034,0.038 0.05,0.097 0.048,0.177l-0.258 0c0.001,0.03 0.009,0.054 0.025,0.071 0.016,0.017 0.035,0.026 0.059,0.026 0.016,0 0.03,-0.005 0.041,-0.013 0.011,-0.009 0.019,-0.023 0.025,-0.043zm0.006 -0.105c-0.001,-0.03 -0.009,-0.053 -0.023,-0.068 -0.015,-0.016 -0.033,-0.024 -0.054,-0.024 -0.022,0 -0.041,0.009 -0.056,0.025 -0.014,0.017 -0.022,0.039 -0.021,0.067l0.154 0zm0.286 0.229l-0.104 0 0 -0.392 0.096 0 0 0.056c0.017,-0.026 0.031,-0.043 0.045,-0.052 0.013,-0.008 0.028,-0.012 0.044,-0.012 0.024,0 0.047,0.007 0.069,0.02l-0.032 0.09c-0.018,-0.011 -0.034,-0.017 -0.049,-0.017 -0.015,0 -0.027,0.004 -0.037,0.012 -0.01,0.008 -0.018,0.022 -0.024,0.043 -0.005,0.021 -0.008,0.065 -0.008,0.131l0 0.121zm0.194 -0.444l0 -0.096 0.104 0 0 0.096 -0.104 0zm0 0.444l0 -0.392 0.104 0 0 0.392 -0.104 0zm0.167 -0.392l0.057 0 0 -0.029c0,-0.033 0.004,-0.058 0.011,-0.074 0.007,-0.016 0.02,-0.029 0.038,-0.04 0.019,-0.01 0.043,-0.015 0.072,-0.015 0.03,0 0.059,0.005 0.087,0.014l-0.013 0.072c-0.017,-0.004 -0.033,-0.007 -0.049,-0.007 -0.015,0 -0.026,0.004 -0.033,0.011 -0.006,0.007 -0.01,0.02 -0.01,0.041l0 0.027 0.078 0 0 0.082 -0.078 0 0 0.31 -0.103 0 0 -0.31 -0.057 0 0 -0.082zm0.292 -0.052l0 -0.096 0.104 0 0 0.096 -0.104 0zm0 0.444l0 -0.392 0.104 0 0 0.392 -0.104 0zm0.552 -0.275l-0.102 0.018c-0.003,-0.021 -0.011,-0.036 -0.023,-0.046 -0.012,-0.01 -0.028,-0.015 -0.047,-0.015 -0.026,0 -0.047,0.009 -0.062,0.026 -0.015,0.018 -0.023,0.048 -0.023,0.09 0,0.046 0.008,0.079 0.023,0.098 0.016,0.02 0.037,0.029 0.063,0.029 0.019,0 0.035,-0.006 0.048,-0.017 0.012,-0.011 0.021,-0.03 0.026,-0.058l0.102 0.018c-0.01,0.047 -0.031,0.082 -0.06,0.106 -0.03,0.024 -0.07,0.036 -0.121,0.036 -0.057,0 -0.103,-0.019 -0.136,-0.055 -0.034,-0.036 -0.051,-0.086 -0.051,-0.15 0,-0.064 0.017,-0.115 0.051,-0.151 0.034,-0.036 0.08,-0.054 0.138,-0.054 0.048,0 0.085,0.01 0.113,0.031 0.029,0.02 0.049,0.052 0.061,0.094zm0.155 0.004l-0.093 -0.016c0.01,-0.039 0.029,-0.067 0.054,-0.085 0.026,-0.019 0.064,-0.028 0.115,-0.028 0.046,0 0.081,0.006 0.103,0.017 0.023,0.01 0.039,0.024 0.048,0.041 0.009,0.017 0.014,0.048 0.014,0.093l-0.002 0.12c0,0.035 0.002,0.06 0.005,0.076 0.003,0.017 0.01,0.034 0.019,0.053l-0.103 0c-0.002,-0.007 -0.006,-0.017 -0.01,-0.03 -0.001,-0.007 -0.003,-0.011 -0.003,-0.012 -0.018,0.017 -0.037,0.03 -0.057,0.038 -0.02,0.009 -0.041,0.014 -0.064,0.014 -0.04,0 -0.072,-0.011 -0.095,-0.033 -0.023,-0.022 -0.035,-0.05 -0.035,-0.083 0,-0.022 0.006,-0.042 0.016,-0.059 0.011,-0.017 0.025,-0.031 0.044,-0.04 0.019,-0.009 0.047,-0.017 0.083,-0.024 0.048,-0.009 0.081,-0.018 0.1,-0.025l0 -0.011c0,-0.02 -0.005,-0.034 -0.015,-0.043 -0.01,-0.008 -0.028,-0.013 -0.055,-0.013 -0.019,0 -0.033,0.004 -0.044,0.011 -0.01,0.008 -0.018,0.021 -0.025,0.039zm0.139 0.084c-0.013,0.004 -0.034,0.009 -0.063,0.016 -0.029,0.006 -0.047,0.012 -0.056,0.018 -0.014,0.009 -0.02,0.021 -0.02,0.036 0,0.015 0.005,0.027 0.016,0.038 0.011,0.01 0.024,0.015 0.041,0.015 0.019,0 0.036,-0.006 0.053,-0.018 0.013,-0.009 0.021,-0.021 0.025,-0.034 0.003,-0.009 0.004,-0.026 0.004,-0.051l0 -0.02zm0.382 -0.205l0 0.083 -0.071 0 0 0.158c0,0.032 0.001,0.051 0.003,0.056 0.001,0.006 0.004,0.01 0.009,0.013 0.005,0.004 0.01,0.006 0.017,0.006 0.01,0 0.024,-0.004 0.042,-0.01l0.009 0.08c-0.024,0.01 -0.051,0.016 -0.082,0.016 -0.018,0 -0.035,-0.004 -0.05,-0.01 -0.015,-0.006 -0.026,-0.014 -0.033,-0.024 -0.007,-0.01 -0.012,-0.024 -0.015,-0.041 -0.002,-0.012 -0.003,-0.036 -0.003,-0.073l0 -0.171 -0.047 0 0 -0.083 0.047 0 0 -0.077 0.103 -0.061 0 0.138 0.071 0zm0.049 0.191c0,-0.034 0.008,-0.067 0.025,-0.1 0.017,-0.032 0.041,-0.056 0.072,-0.073 0.031,-0.017 0.066,-0.026 0.104,-0.026 0.059,0 0.107,0.019 0.145,0.058 0.038,0.038 0.057,0.087 0.057,0.146 0,0.059 -0.019,0.108 -0.057,0.147 -0.038,0.039 -0.086,0.059 -0.144,0.059 -0.036,0 -0.07,-0.009 -0.103,-0.025 -0.032,-0.016 -0.057,-0.04 -0.074,-0.071 -0.017,-0.032 -0.025,-0.07 -0.025,-0.115zm0.106 0.006c0,0.039 0.009,0.068 0.027,0.089 0.019,0.021 0.042,0.031 0.069,0.031 0.026,0 0.049,-0.01 0.067,-0.031 0.018,-0.021 0.028,-0.051 0.028,-0.09 0,-0.038 -0.01,-0.068 -0.028,-0.088 -0.018,-0.021 -0.041,-0.031 -0.067,-0.031 -0.027,0 -0.05,0.01 -0.069,0.031 -0.018,0.02 -0.027,0.05 -0.027,0.089z"/>
  <path class="fil0" d="M11.34 0.492l0 -0.27 0.055 0 0 0.27 -0.055 0zm0.389 0l-0.051 0 0 -0.1c0,-0.021 -0.002,-0.035 -0.004,-0.041 -0.002,-0.006 -0.006,-0.011 -0.011,-0.015 -0.005,-0.003 -0.011,-0.005 -0.018,-0.005 -0.009,0 -0.017,0.003 -0.024,0.008 -0.007,0.005 -0.012,0.011 -0.015,0.019 -0.002,0.008 -0.004,0.023 -0.004,0.045l0 0.089 -0.051 0 0 -0.196 0.047 0 0 0.029c0.018,-0.022 0.039,-0.033 0.065,-0.033 0.012,0 0.022,0.002 0.032,0.006 0.009,0.004 0.016,0.009 0.021,0.016 0.005,0.006 0.008,0.013 0.01,0.021 0.002,0.008 0.003,0.02 0.003,0.035l0 0.122zm0.03 -0.101c0,-0.017 0.004,-0.034 0.013,-0.05 0.008,-0.016 0.02,-0.028 0.036,-0.036 0.015,-0.009 0.032,-0.013 0.052,-0.013 0.029,0 0.053,0.009 0.072,0.029 0.019,0.019 0.029,0.043 0.029,0.073 0,0.029 -0.01,0.054 -0.029,0.073 -0.019,0.02 -0.043,0.029 -0.072,0.029 -0.018,0 -0.035,-0.004 -0.051,-0.012 -0.016,-0.008 -0.029,-0.02 -0.037,-0.035 -0.009,-0.016 -0.013,-0.035 -0.013,-0.058zm0.053 0.003c0,0.02 0.005,0.034 0.014,0.045 0.009,0.01 0.02,0.015 0.034,0.015 0.013,0 0.025,-0.005 0.034,-0.015 0.009,-0.011 0.014,-0.026 0.014,-0.045 0,-0.019 -0.005,-0.034 -0.014,-0.045 -0.009,-0.01 -0.021,-0.015 -0.034,-0.015 -0.014,0 -0.025,0.005 -0.034,0.015 -0.009,0.011 -0.014,0.026 -0.014,0.045zm0.16 0.043l0.052 -0.008c0.003,0.01 0.007,0.017 0.014,0.022 0.007,0.006 0.016,0.008 0.028,0.008 0.014,0 0.024,-0.002 0.03,-0.007 0.005,-0.004 0.007,-0.008 0.007,-0.014 0,-0.004 -0.001,-0.007 -0.004,-0.01 -0.002,-0.002 -0.008,-0.005 -0.017,-0.007 -0.042,-0.009 -0.068,-0.017 -0.079,-0.025 -0.016,-0.011 -0.023,-0.025 -0.023,-0.044 0,-0.017 0.006,-0.031 0.02,-0.043 0.013,-0.011 0.034,-0.017 0.062,-0.017 0.027,0 0.046,0.004 0.06,0.013 0.013,0.009 0.021,0.022 0.026,0.039l-0.048 0.009c-0.002,-0.008 -0.006,-0.014 -0.012,-0.018 -0.006,-0.004 -0.014,-0.006 -0.025,-0.006 -0.014,0 -0.024,0.002 -0.03,0.006 -0.004,0.002 -0.006,0.006 -0.006,0.01 0,0.004 0.002,0.007 0.006,0.01 0.004,0.003 0.02,0.008 0.048,0.014 0.028,0.007 0.047,0.014 0.058,0.023 0.011,0.01 0.016,0.022 0.016,0.039 0,0.018 -0.007,0.033 -0.022,0.046 -0.015,0.013 -0.037,0.019 -0.067,0.019 -0.026,0 -0.048,-0.005 -0.063,-0.016 -0.016,-0.01 -0.026,-0.025 -0.031,-0.043zm0.307 -0.141l0 0.041 -0.035 0 0 0.079c0,0.016 0,0.026 0.001,0.028 0.001,0.003 0.002,0.005 0.005,0.007 0.002,0.002 0.005,0.002 0.008,0.002 0.005,0 0.012,-0.001 0.021,-0.005l0.004 0.041c-0.012,0.005 -0.025,0.007 -0.04,0.007 -0.01,0 -0.018,-0.001 -0.025,-0.004 -0.008,-0.003 -0.013,-0.008 -0.017,-0.012 -0.003,-0.005 -0.006,-0.012 -0.007,-0.021 -0.001,-0.006 -0.002,-0.018 -0.002,-0.036l0 -0.086 -0.023 0 0 -0.041 0.023 0 0 -0.039 0.052 -0.03 0 0.069 0.035 0zm0.075 0.196l-0.051 0 0 -0.196 0.048 0 0 0.028c0.008,-0.013 0.015,-0.022 0.022,-0.026 0.006,-0.004 0.014,-0.006 0.022,-0.006 0.012,0 0.023,0.003 0.034,0.009l-0.016 0.046c-0.008,-0.006 -0.016,-0.009 -0.024,-0.009 -0.007,0 -0.013,0.002 -0.018,0.006 -0.005,0.004 -0.009,0.011 -0.012,0.022 -0.003,0.01 -0.005,0.032 -0.005,0.065l0 0.061zm0.087 -0.222l0 -0.048 0.052 0 0 0.048 -0.052 0zm0 0.222l0 -0.196 0.052 0 0 0.196 -0.052 0zm0.205 0.012l0.059 0.007c0.001,0.007 0.003,0.012 0.007,0.015 0.005,0.003 0.012,0.005 0.023,0.005 0.014,0 0.024,-0.002 0.03,-0.006 0.005,-0.003 0.008,-0.007 0.011,-0.013 0.001,-0.004 0.002,-0.012 0.002,-0.024l0 -0.028c-0.015,0.021 -0.035,0.032 -0.058,0.032 -0.027,0 -0.048,-0.012 -0.063,-0.034 -0.012,-0.017 -0.018,-0.039 -0.018,-0.065 0,-0.033 0.008,-0.058 0.024,-0.075 0.015,-0.018 0.035,-0.026 0.059,-0.026 0.024,0 0.044,0.01 0.059,0.032l0 -0.028 0.049 0 0 0.175c0,0.023 -0.002,0.041 -0.006,0.052 -0.004,0.011 -0.009,0.02 -0.016,0.027 -0.007,0.006 -0.016,0.012 -0.028,0.015 -0.011,0.004 -0.026,0.006 -0.043,0.006 -0.033,0 -0.057,-0.006 -0.071,-0.017 -0.013,-0.012 -0.02,-0.026 -0.02,-0.044 0,-0.001 0,-0.004 0,-0.006zm0.046 -0.114c0,0.02 0.004,0.036 0.012,0.045 0.008,0.01 0.018,0.015 0.03,0.015 0.012,0 0.023,-0.005 0.032,-0.015 0.009,-0.01 0.013,-0.025 0.013,-0.044 0,-0.02 -0.004,-0.035 -0.013,-0.045 -0.008,-0.01 -0.018,-0.015 -0.031,-0.015 -0.013,0 -0.023,0.005 -0.031,0.015 -0.008,0.009 -0.012,0.024 -0.012,0.044zm0.178 -0.12l0 -0.048 0.052 0 0 0.048 -0.052 0zm0 0.222l0 -0.196 0.052 0 0 0.196 -0.052 0zm0.083 -0.101c0,-0.017 0.004,-0.034 0.012,-0.05 0.009,-0.016 0.021,-0.028 0.036,-0.036 0.016,-0.009 0.033,-0.013 0.052,-0.013 0.03,0 0.054,0.009 0.073,0.029 0.019,0.019 0.028,0.043 0.028,0.073 0,0.029 -0.009,0.054 -0.028,0.073 -0.019,0.02 -0.043,0.029 -0.072,0.029 -0.018,0 -0.035,-0.004 -0.052,-0.012 -0.016,-0.008 -0.028,-0.02 -0.037,-0.035 -0.008,-0.016 -0.012,-0.035 -0.012,-0.058zm0.053 0.003c0,0.02 0.004,0.034 0.014,0.045 0.009,0.01 0.02,0.015 0.034,0.015 0.013,0 0.024,-0.005 0.033,-0.015 0.01,-0.011 0.014,-0.026 0.014,-0.045 0,-0.019 -0.004,-0.034 -0.014,-0.045 -0.009,-0.01 -0.02,-0.015 -0.033,-0.015 -0.014,0 -0.025,0.005 -0.034,0.015 -0.01,0.011 -0.014,0.026 -0.014,0.045zm0.349 -0.04l-0.051 0.009c-0.002,-0.01 -0.006,-0.018 -0.012,-0.023 -0.006,-0.005 -0.014,-0.008 -0.023,-0.008 -0.013,0 -0.024,0.005 -0.031,0.014 -0.008,0.009 -0.012,0.024 -0.012,0.045 0,0.023 0.004,0.039 0.012,0.049 0.008,0.009 0.018,0.014 0.031,0.014 0.01,0 0.018,-0.003 0.024,-0.008 0.007,-0.006 0.011,-0.015 0.014,-0.029l0.05 0.009c-0.005,0.023 -0.015,0.041 -0.03,0.053 -0.015,0.011 -0.035,0.017 -0.06,0.017 -0.029,0 -0.051,-0.009 -0.068,-0.027 -0.017,-0.018 -0.026,-0.043 -0.026,-0.075 0,-0.032 0.009,-0.057 0.026,-0.075 0.017,-0.018 0.04,-0.027 0.069,-0.027 0.024,0 0.043,0.005 0.057,0.015 0.014,0.01 0.024,0.026 0.03,0.047zm0.067 0.002l-0.047 -0.008c0.006,-0.019 0.015,-0.033 0.028,-0.042 0.013,-0.01 0.032,-0.014 0.057,-0.014 0.023,0 0.04,0.002 0.052,0.008 0.011,0.005 0.019,0.012 0.023,0.021 0.005,0.008 0.007,0.024 0.007,0.046l0 0.06c0,0.017 0,0.03 0.002,0.038 0.002,0.009 0.005,0.017 0.009,0.027l-0.051 0c-0.001,-0.004 -0.003,-0.009 -0.005,-0.016 -0.001,-0.003 -0.001,-0.005 -0.002,-0.006 -0.009,0.009 -0.018,0.016 -0.028,0.02 -0.01,0.004 -0.021,0.006 -0.032,0.006 -0.02,0 -0.036,-0.005 -0.048,-0.016 -0.011,-0.011 -0.017,-0.025 -0.017,-0.041 0,-0.011 0.003,-0.021 0.008,-0.03 0.005,-0.009 0.013,-0.015 0.022,-0.02 0.01,-0.004 0.023,-0.008 0.041,-0.012 0.024,-0.004 0.041,-0.009 0.05,-0.012l0 -0.006c0,-0.01 -0.002,-0.017 -0.007,-0.021 -0.005,-0.005 -0.014,-0.007 -0.028,-0.007 -0.009,0 -0.016,0.002 -0.021,0.006 -0.006,0.004 -0.01,0.01 -0.013,0.019zm0.069 0.042c-0.006,0.002 -0.017,0.005 -0.031,0.008 -0.014,0.003 -0.024,0.006 -0.028,0.009 -0.007,0.005 -0.01,0.011 -0.01,0.018 0,0.007 0.002,0.014 0.008,0.019 0.005,0.005 0.012,0.008 0.02,0.008 0.01,0 0.019,-0.003 0.027,-0.009 0.006,-0.005 0.01,-0.011 0.012,-0.017 0.002,-0.005 0.002,-0.013 0.002,-0.026l0 -0.01zm0.181 -0.102l0 0.041 -0.035 0 0 0.079c0,0.016 0,0.026 0.001,0.028 0,0.003 0.002,0.005 0.004,0.007 0.003,0.002 0.006,0.002 0.009,0.002 0.005,0 0.012,-0.001 0.021,-0.005l0.004 0.041c-0.012,0.005 -0.025,0.007 -0.04,0.007 -0.01,0 -0.018,-0.001 -0.026,-0.004 -0.007,-0.003 -0.013,-0.008 -0.016,-0.012 -0.004,-0.005 -0.006,-0.012 -0.007,-0.021 -0.001,-0.006 -0.002,-0.018 -0.002,-0.036l0 -0.086 -0.024 0 0 -0.041 0.024 0 0 -0.039 0.052 -0.03 0 0.069 0.035 0zm0.014 0.095c0,-0.017 0.004,-0.034 0.012,-0.05 0.009,-0.016 0.021,-0.028 0.036,-0.036 0.016,-0.009 0.033,-0.013 0.052,-0.013 0.03,0 0.054,0.009 0.073,0.029 0.019,0.019 0.028,0.043 0.028,0.073 0,0.029 -0.009,0.054 -0.028,0.073 -0.019,0.02 -0.043,0.029 -0.072,0.029 -0.018,0 -0.035,-0.004 -0.051,-0.012 -0.017,-0.008 -0.029,-0.02 -0.038,-0.035 -0.008,-0.016 -0.012,-0.035 -0.012,-0.058zm0.053 0.003c0,0.02 0.005,0.034 0.014,0.045 0.009,0.01 0.02,0.015 0.034,0.015 0.013,0 0.025,-0.005 0.034,-0.015 0.009,-0.011 0.013,-0.026 0.013,-0.045 0,-0.019 -0.004,-0.034 -0.013,-0.045 -0.009,-0.01 -0.021,-0.015 -0.034,-0.015 -0.014,0 -0.025,0.005 -0.034,0.015 -0.009,0.011 -0.014,0.026 -0.014,0.045zm0.228 0.098l-0.052 0 0 -0.196 0.048 0 0 0.028c0.008,-0.013 0.016,-0.022 0.022,-0.026 0.007,-0.004 0.015,-0.006 0.023,-0.006 0.012,0 0.023,0.003 0.034,0.009l-0.016 0.046c-0.009,-0.006 -0.017,-0.009 -0.024,-0.009 -0.008,0 -0.014,0.002 -0.019,0.006 -0.005,0.004 -0.009,0.011 -0.012,0.022 -0.003,0.01 -0.004,0.032 -0.004,0.065l0 0.061zm0.087 -0.222l0 -0.048 0.051 0 0 0.048 -0.051 0zm0 0.222l0 -0.196 0.051 0 0 0.196 -0.051 0zm0.389 0l-0.048 0 0 -0.029c-0.008,0.011 -0.018,0.019 -0.029,0.025 -0.01,0.006 -0.021,0.008 -0.032,0.008 -0.023,0 -0.042,-0.009 -0.058,-0.027 -0.016,-0.018 -0.024,-0.043 -0.024,-0.076 0,-0.033 0.007,-0.058 0.023,-0.075 0.016,-0.018 0.035,-0.026 0.059,-0.026 0.022,0 0.041,0.009 0.057,0.027l0 -0.097 0.052 0 0 0.27zm-0.138 -0.102c0,0.021 0.003,0.036 0.008,0.045 0.009,0.014 0.02,0.021 0.035,0.021 0.012,0 0.022,-0.005 0.031,-0.016 0.008,-0.01 0.012,-0.025 0.012,-0.045 0,-0.023 -0.004,-0.039 -0.012,-0.049 -0.008,-0.01 -0.018,-0.015 -0.031,-0.015 -0.012,0 -0.023,0.005 -0.031,0.015 -0.008,0.01 -0.012,0.024 -0.012,0.044zm0.178 -0.12l0 -0.048 0.052 0 0 0.048 -0.052 0zm0 0.222l0 -0.196 0.052 0 0 0.196 -0.052 0zm0.265 -0.138l-0.051 0.009c-0.002,-0.01 -0.006,-0.018 -0.012,-0.023 -0.006,-0.005 -0.014,-0.008 -0.024,-0.008 -0.012,0 -0.023,0.005 -0.03,0.014 -0.008,0.009 -0.012,0.024 -0.012,0.045 0,0.023 0.004,0.039 0.012,0.049 0.008,0.009 0.018,0.014 0.031,0.014 0.01,0 0.018,-0.003 0.024,-0.008 0.006,-0.006 0.011,-0.015 0.013,-0.029l0.051 0.009c-0.005,0.023 -0.015,0.041 -0.03,0.053 -0.015,0.011 -0.035,0.017 -0.06,0.017 -0.029,0 -0.052,-0.009 -0.068,-0.027 -0.018,-0.018 -0.026,-0.043 -0.026,-0.075 0,-0.032 0.009,-0.057 0.026,-0.075 0.017,-0.018 0.04,-0.027 0.069,-0.027 0.023,0 0.042,0.005 0.056,0.015 0.014,0.01 0.025,0.026 0.031,0.047zm0.016 0.037c0,-0.017 0.005,-0.034 0.013,-0.05 0.009,-0.016 0.021,-0.028 0.036,-0.036 0.016,-0.009 0.033,-0.013 0.052,-0.013 0.03,0 0.054,0.009 0.073,0.029 0.019,0.019 0.028,0.043 0.028,0.073 0,0.029 -0.009,0.054 -0.029,0.073 -0.019,0.02 -0.043,0.029 -0.072,0.029 -0.017,0 -0.035,-0.004 -0.051,-0.012 -0.016,-0.008 -0.028,-0.02 -0.037,-0.035 -0.008,-0.016 -0.013,-0.035 -0.013,-0.058zm0.054 0.003c0,0.02 0.004,0.034 0.013,0.045 0.01,0.01 0.021,0.015 0.034,0.015 0.014,0 0.025,-0.005 0.034,-0.015 0.009,-0.011 0.014,-0.026 0.014,-0.045 0,-0.019 -0.005,-0.034 -0.014,-0.045 -0.009,-0.01 -0.02,-0.015 -0.034,-0.015 -0.013,0 -0.024,0.005 -0.034,0.015 -0.009,0.011 -0.013,0.026 -0.013,0.045zm0.356 0.098l-0.052 0 0 -0.1c0,-0.021 -0.001,-0.035 -0.003,-0.041 -0.002,-0.006 -0.006,-0.011 -0.011,-0.015 -0.005,-0.003 -0.011,-0.005 -0.018,-0.005 -0.009,0 -0.017,0.003 -0.024,0.008 -0.007,0.005 -0.012,0.011 -0.015,0.019 -0.003,0.008 -0.004,0.023 -0.004,0.045l0 0.089 -0.052 0 0 -0.196 0.048 0 0 0.029c0.018,-0.022 0.039,-0.033 0.065,-0.033 0.012,0 0.022,0.002 0.032,0.006 0.009,0.004 0.016,0.009 0.021,0.016 0.005,0.006 0.008,0.013 0.01,0.021 0.002,0.008 0.003,0.02 0.003,0.035l0 0.122zm0.03 -0.101c0,-0.017 0.004,-0.034 0.013,-0.05 0.008,-0.016 0.02,-0.028 0.036,-0.036 0.015,-0.009 0.032,-0.013 0.052,-0.013 0.029,0 0.053,0.009 0.072,0.029 0.019,0.019 0.029,0.043 0.029,0.073 0,0.029 -0.01,0.054 -0.029,0.073 -0.019,0.02 -0.043,0.029 -0.072,0.029 -0.018,0 -0.035,-0.004 -0.051,-0.012 -0.017,-0.008 -0.029,-0.02 -0.037,-0.035 -0.009,-0.016 -0.013,-0.035 -0.013,-0.058zm0.053 0.003c0,0.02 0.005,0.034 0.014,0.045 0.009,0.01 0.02,0.015 0.034,0.015 0.013,0 0.025,-0.005 0.034,-0.015 0.009,-0.011 0.013,-0.026 0.013,-0.045 0,-0.019 -0.004,-0.034 -0.013,-0.045 -0.009,-0.01 -0.021,-0.015 -0.034,-0.015 -0.014,0 -0.025,0.005 -0.034,0.015 -0.009,0.011 -0.014,0.026 -0.014,0.045z"/>
  <path class="fil0" d="M11.34 1.191l0 -0.557 0.412 0 0 0.094 -0.299 0 0 0.124 0.278 0 0 0.094 -0.278 0 0 0.15 0.31 0 0 0.095 -0.423 0zm0.869 -0.284l-0.104 0.018c-0.004,-0.02 -0.012,-0.036 -0.025,-0.047 -0.012,-0.01 -0.028,-0.016 -0.048,-0.016 -0.027,0 -0.048,0.01 -0.064,0.028 -0.016,0.018 -0.024,0.049 -0.024,0.092 0,0.048 0.008,0.082 0.025,0.102 0.016,0.02 0.037,0.03 0.064,0.03 0.02,0 0.037,-0.006 0.05,-0.018 0.013,-0.011 0.022,-0.031 0.027,-0.059l0.105 0.017c-0.011,0.049 -0.032,0.085 -0.063,0.11 -0.03,0.024 -0.072,0.037 -0.124,0.037 -0.059,0 -0.106,-0.019 -0.141,-0.056 -0.035,-0.038 -0.052,-0.089 -0.052,-0.155 0,-0.067 0.017,-0.119 0.053,-0.156 0.035,-0.037 0.082,-0.055 0.142,-0.055 0.049,0 0.088,0.01 0.117,0.031 0.029,0.021 0.05,0.054 0.062,0.097zm0.433 0l-0.105 0.018c-0.004,-0.02 -0.012,-0.036 -0.024,-0.047 -0.013,-0.01 -0.029,-0.016 -0.049,-0.016 -0.026,0 -0.048,0.01 -0.064,0.028 -0.015,0.018 -0.023,0.049 -0.023,0.092 0,0.048 0.008,0.082 0.024,0.102 0.016,0.02 0.037,0.03 0.064,0.03 0.021,0 0.037,-0.006 0.05,-0.018 0.013,-0.011 0.022,-0.031 0.027,-0.059l0.105 0.017c-0.011,0.049 -0.031,0.085 -0.062,0.11 -0.031,0.024 -0.072,0.037 -0.124,0.037 -0.059,0 -0.106,-0.019 -0.141,-0.056 -0.035,-0.038 -0.053,-0.089 -0.053,-0.155 0,-0.067 0.018,-0.119 0.053,-0.156 0.035,-0.037 0.083,-0.055 0.143,-0.055 0.049,0 0.088,0.01 0.117,0.031 0.028,0.021 0.049,0.054 0.062,0.097zm0.314 0.156l0.107 0.018c-0.014,0.039 -0.036,0.069 -0.065,0.089 -0.03,0.02 -0.067,0.031 -0.111,0.031 -0.07,0 -0.122,-0.023 -0.155,-0.069 -0.027,-0.037 -0.04,-0.083 -0.04,-0.139 0,-0.067 0.017,-0.12 0.052,-0.158 0.035,-0.038 0.079,-0.056 0.133,-0.056 0.059,0 0.107,0.019 0.141,0.059 0.035,0.04 0.052,0.1 0.05,0.182l-0.267 0c0.001,0.032 0.01,0.057 0.026,0.074 0.016,0.018 0.037,0.027 0.061,0.027 0.017,0 0.031,-0.005 0.042,-0.014 0.012,-0.009 0.02,-0.024 0.026,-0.044zm0.006 -0.108c0,-0.031 -0.008,-0.055 -0.024,-0.071 -0.015,-0.016 -0.033,-0.024 -0.055,-0.024 -0.023,0 -0.042,0.009 -0.057,0.026 -0.016,0.017 -0.023,0.04 -0.023,0.069l0.159 0zm0.193 0.236l0 -0.557 0.107 0 0 0.557 -0.107 0zm0.216 0l0 -0.557 0.107 0 0 0.557 -0.107 0zm0.449 -0.128l0.107 0.018c-0.014,0.039 -0.035,0.069 -0.065,0.089 -0.029,0.02 -0.066,0.031 -0.11,0.031 -0.07,0 -0.122,-0.023 -0.156,-0.069 -0.027,-0.037 -0.04,-0.083 -0.04,-0.139 0,-0.067 0.018,-0.12 0.052,-0.158 0.035,-0.038 0.079,-0.056 0.133,-0.056 0.06,0 0.107,0.019 0.142,0.059 0.034,0.04 0.051,0.1 0.049,0.182l-0.266 0c0,0.032 0.009,0.057 0.025,0.074 0.017,0.018 0.037,0.027 0.062,0.027 0.016,0 0.03,-0.005 0.042,-0.014 0.011,-0.009 0.02,-0.024 0.025,-0.044zm0.007 -0.108c-0.001,-0.031 -0.009,-0.055 -0.024,-0.071 -0.015,-0.016 -0.034,-0.024 -0.056,-0.024 -0.023,0 -0.042,0.009 -0.057,0.026 -0.015,0.017 -0.023,0.04 -0.022,0.069l0.159 0zm0.559 0.236l-0.106 0 0 -0.206c0,-0.044 -0.002,-0.072 -0.007,-0.084 -0.005,-0.013 -0.012,-0.023 -0.022,-0.03 -0.011,-0.007 -0.023,-0.011 -0.038,-0.011 -0.018,0 -0.035,0.005 -0.05,0.015 -0.015,0.01 -0.025,0.024 -0.03,0.04 -0.006,0.017 -0.009,0.048 -0.009,0.093l0 0.183 -0.106 0 0 -0.404 0.099 0 0 0.059c0.035,-0.045 0.08,-0.067 0.133,-0.067 0.024,0 0.046,0.004 0.065,0.012 0.02,0.009 0.035,0.02 0.045,0.033 0.01,0.013 0.017,0.028 0.021,0.044 0.004,0.017 0.005,0.041 0.005,0.072l0 0.251zm0.293 -0.404l0 0.085 -0.073 0 0 0.163c0,0.033 0,0.053 0.002,0.058 0.001,0.006 0.004,0.01 0.009,0.014 0.005,0.003 0.011,0.005 0.018,0.005 0.01,0 0.024,-0.003 0.043,-0.01l0.009 0.083c-0.025,0.01 -0.053,0.016 -0.084,0.016 -0.019,0 -0.036,-0.004 -0.052,-0.01 -0.015,-0.007 -0.026,-0.015 -0.034,-0.025 -0.007,-0.011 -0.012,-0.024 -0.015,-0.042 -0.002,-0.013 -0.003,-0.038 -0.003,-0.076l0 -0.176 -0.049 0 0 -0.085 0.049 0 0 -0.08 0.107 -0.063 0 0.143 0.073 0zm0.307 0.276l0.107 0.018c-0.014,0.039 -0.035,0.069 -0.065,0.089 -0.029,0.02 -0.066,0.031 -0.11,0.031 -0.07,0 -0.122,-0.023 -0.156,-0.069 -0.026,-0.037 -0.04,-0.083 -0.04,-0.139 0,-0.067 0.018,-0.12 0.053,-0.158 0.034,-0.038 0.079,-0.056 0.132,-0.056 0.06,0 0.107,0.019 0.142,0.059 0.034,0.04 0.051,0.1 0.049,0.182l-0.266 0c0.001,0.032 0.009,0.057 0.026,0.074 0.016,0.018 0.036,0.027 0.061,0.027 0.016,0 0.03,-0.005 0.042,-0.014 0.011,-0.009 0.02,-0.024 0.025,-0.044zm0.007 -0.108c-0.001,-0.031 -0.009,-0.055 -0.024,-0.071 -0.015,-0.016 -0.034,-0.024 -0.055,-0.024 -0.024,0 -0.043,0.009 -0.058,0.026 -0.015,0.017 -0.023,0.04 -0.022,0.069l0.159 0z"/>
 </g>
</svg>
