<?xml version="1.0" encoding="UTF-8"?>
<!DOCTYPE svg PUBLIC "-//W3C//DTD SVG 1.1//EN" "http://www.w3.org/Graphics/SVG/1.1/DTD/svg11.dtd">
<!-- Creator: CorelDRAW 2021 (64-Bit) -->
<svg xmlns="http://www.w3.org/2000/svg" xml:space="preserve" width="425px" height="29px" version="1.1" style="shape-rendering:geometricPrecision; text-rendering:geometricPrecision; image-rendering:optimizeQuality; fill-rule:evenodd; clip-rule:evenodd"
viewBox="0 0 19.703 1.35"
 xmlns:xlink="http://www.w3.org/1999/xlink"
 xmlns:xodm="http://www.corel.com/coreldraw/odm/2003">
 <defs>
  <style type="text/css">
   <![CDATA[
    .fil5 {fill:white}
    .fil0 {fill:black;fill-rule:nonzero}
    .fil2 {fill:#005128;fill-rule:nonzero}
    .fil1 {fill:#00B67A;fill-rule:nonzero}
    .fil3 {fill:#DCDCE6;fill-rule:nonzero}
    .fil4 {fill:white;fill-rule:nonzero}
   ]]>
  </style>
 </defs>
 <g id="Layer_x0020_1">
  <metadata id="CorelCorpID_0Corel-Layer"/>
  <g id="_1639881025264">
   <path class="fil0" d="M1.261 0.418l0.486 0 0 0.09 -0.191 0 0 0.51 -0.105 0 0 -0.51 -0.19 0 0 -0.09 0 0zm0.466 0.165l0.09 0 0 0.084 0.001 0c0.003,-0.012 0.009,-0.023 0.017,-0.034 0.008,-0.011 0.018,-0.022 0.029,-0.03 0.011,-0.01 0.024,-0.017 0.038,-0.023 0.014,-0.005 0.028,-0.008 0.043,-0.008 0.011,0 0.019,0 0.023,0 0.004,0.001 0.009,0.002 0.013,0.002l0 0.093c-0.006,-0.002 -0.013,-0.003 -0.02,-0.003 -0.008,-0.001 -0.014,-0.002 -0.021,-0.002 -0.016,0 -0.032,0.004 -0.046,0.01 -0.014,0.006 -0.027,0.016 -0.037,0.028 -0.011,0.013 -0.019,0.028 -0.026,0.047 -0.006,0.019 -0.009,0.04 -0.009,0.064l0 0.207 -0.096 0 0 -0.435 0.001 0zm0.695 0.435l-0.094 0 0 -0.06 -0.002 0c-0.012,0.022 -0.029,0.039 -0.053,0.052 -0.023,0.013 -0.047,0.02 -0.071,0.02 -0.057,0 -0.099,-0.014 -0.124,-0.042 -0.025,-0.029 -0.038,-0.071 -0.038,-0.129l0 -0.276 0.096 0 0 0.267c0,0.038 0.007,0.065 0.022,0.081 0.014,0.016 0.035,0.024 0.061,0.024 0.02,0 0.037,-0.003 0.05,-0.01 0.014,-0.006 0.025,-0.014 0.033,-0.025 0.009,-0.01 0.014,-0.023 0.018,-0.037 0.004,-0.014 0.006,-0.03 0.006,-0.047l0 -0.252 0.096 0 0 0.434zm0.163 -0.139c0.003,0.028 0.013,0.047 0.031,0.059 0.019,0.011 0.041,0.017 0.067,0.017 0.009,0 0.019,-0.001 0.031,-0.002 0.011,-0.002 0.022,-0.005 0.032,-0.009 0.01,-0.003 0.018,-0.009 0.025,-0.017 0.006,-0.008 0.009,-0.017 0.009,-0.03 -0.001,-0.012 -0.005,-0.022 -0.014,-0.03 -0.008,-0.008 -0.019,-0.014 -0.032,-0.019 -0.013,-0.004 -0.028,-0.009 -0.045,-0.012 -0.017,-0.003 -0.034,-0.007 -0.051,-0.011 -0.018,-0.004 -0.035,-0.009 -0.052,-0.014 -0.017,-0.006 -0.031,-0.014 -0.045,-0.023 -0.013,-0.01 -0.023,-0.022 -0.031,-0.037 -0.008,-0.015 -0.012,-0.033 -0.012,-0.055 0,-0.024 0.006,-0.043 0.018,-0.059 0.011,-0.016 0.026,-0.029 0.043,-0.039 0.018,-0.009 0.038,-0.016 0.059,-0.02 0.022,-0.004 0.043,-0.006 0.062,-0.006 0.023,0 0.044,0.002 0.064,0.007 0.021,0.004 0.039,0.012 0.056,0.023 0.016,0.011 0.03,0.025 0.041,0.042 0.011,0.017 0.018,0.037 0.021,0.061l-0.1 0c-0.005,-0.022 -0.015,-0.038 -0.032,-0.046 -0.016,-0.008 -0.035,-0.012 -0.056,-0.012 -0.007,0 -0.015,0.001 -0.024,0.002 -0.01,0.001 -0.018,0.004 -0.027,0.006 -0.008,0.003 -0.015,0.008 -0.02,0.014 -0.006,0.006 -0.009,0.014 -0.009,0.023 0,0.012 0.004,0.022 0.012,0.029 0.008,0.007 0.019,0.013 0.032,0.018 0.013,0.005 0.028,0.009 0.045,0.012 0.017,0.004 0.034,0.007 0.052,0.011 0.018,0.004 0.034,0.009 0.051,0.015 0.017,0.005 0.032,0.013 0.045,0.023 0.013,0.009 0.024,0.021 0.032,0.036 0.008,0.014 0.012,0.032 0.012,0.053 0,0.026 -0.006,0.048 -0.017,0.066 -0.012,0.018 -0.028,0.033 -0.046,0.044 -0.019,0.011 -0.04,0.019 -0.063,0.024 -0.023,0.005 -0.046,0.008 -0.068,0.008 -0.028,0 -0.053,-0.003 -0.076,-0.009 -0.024,-0.007 -0.044,-0.016 -0.061,-0.028 -0.017,-0.013 -0.03,-0.029 -0.04,-0.047 -0.01,-0.019 -0.015,-0.042 -0.016,-0.067l0.097 0 0 -0.001zm0.316 -0.296l0.072 0 0 -0.13 0.096 0 0 0.13 0.086 0 0 0.072 -0.086 0 0 0.232c0,0.01 0,0.019 0.001,0.027 0.001,0.007 0.003,0.013 0.006,0.018 0.003,0.005 0.008,0.009 0.014,0.012 0.007,0.002 0.015,0.003 0.026,0.003 0.006,0 0.013,0 0.02,0 0.007,0 0.014,-0.001 0.02,-0.003l0 0.074c-0.01,0.001 -0.021,0.002 -0.031,0.004 -0.01,0.001 -0.02,0.001 -0.031,0.001 -0.025,0 -0.045,-0.002 -0.061,-0.007 -0.015,-0.005 -0.027,-0.012 -0.036,-0.021 -0.008,-0.009 -0.014,-0.021 -0.017,-0.035 -0.003,-0.014 -0.005,-0.03 -0.006,-0.048l0 -0.256 -0.072 0 0 -0.073 -0.001 0zm0.322 0l0.091 0 0 0.059 0.002 0c0.013,-0.025 0.032,-0.043 0.056,-0.054 0.024,-0.011 0.05,-0.016 0.078,-0.016 0.035,0 0.064,0.006 0.09,0.018 0.025,0.012 0.046,0.028 0.063,0.049 0.017,0.022 0.03,0.046 0.038,0.074 0.009,0.028 0.013,0.058 0.013,0.09 0,0.029 -0.004,0.058 -0.012,0.085 -0.007,0.027 -0.019,0.051 -0.034,0.073 -0.015,0.021 -0.035,0.037 -0.058,0.05 -0.024,0.013 -0.052,0.019 -0.084,0.019 -0.014,0 -0.028,-0.001 -0.042,-0.004 -0.014,-0.002 -0.027,-0.007 -0.04,-0.012 -0.013,-0.006 -0.025,-0.013 -0.036,-0.022 -0.011,-0.009 -0.02,-0.019 -0.027,-0.03l-0.002 0 0 0.217 -0.096 0 0 -0.596zm0.335 0.218c0,-0.019 -0.003,-0.038 -0.008,-0.057 -0.005,-0.019 -0.012,-0.035 -0.023,-0.049 -0.01,-0.015 -0.022,-0.026 -0.037,-0.034 -0.015,-0.009 -0.033,-0.014 -0.052,-0.014 -0.041,0 -0.071,0.014 -0.091,0.042 -0.021,0.028 -0.031,0.066 -0.031,0.112 0,0.022 0.003,0.043 0.008,0.061 0.006,0.019 0.013,0.035 0.024,0.049 0.011,0.013 0.024,0.024 0.038,0.031 0.015,0.008 0.033,0.012 0.052,0.012 0.022,0 0.04,-0.004 0.056,-0.013 0.015,-0.009 0.027,-0.021 0.037,-0.035 0.01,-0.014 0.017,-0.031 0.021,-0.049 0.004,-0.018 0.006,-0.037 0.006,-0.056l0 0zm0.169 -0.383l0.096 0 0 0.09 -0.096 0 0 -0.09zm0 0.165l0.096 0 0 0.435 -0.096 0 0 -0.435zm0.181 -0.165l0.096 0 0 0.6 -0.096 0 0 -0.6zm0.39 0.612c-0.035,0 -0.066,-0.006 -0.093,-0.017 -0.027,-0.012 -0.05,-0.028 -0.069,-0.048 -0.019,-0.02 -0.033,-0.044 -0.043,-0.072 -0.01,-0.028 -0.015,-0.059 -0.015,-0.093 0,-0.033 0.005,-0.063 0.015,-0.091 0.01,-0.028 0.024,-0.052 0.043,-0.073 0.019,-0.02 0.042,-0.036 0.069,-0.047 0.027,-0.011 0.058,-0.017 0.093,-0.017 0.035,0 0.066,0.006 0.093,0.017 0.027,0.011 0.05,0.028 0.069,0.047 0.018,0.021 0.033,0.045 0.043,0.073 0.009,0.028 0.014,0.058 0.014,0.091 0,0.034 -0.005,0.065 -0.014,0.093 -0.01,0.028 -0.025,0.052 -0.043,0.072 -0.019,0.021 -0.042,0.036 -0.069,0.048 -0.027,0.011 -0.058,0.017 -0.093,0.017zm0 -0.076c0.021,0 0.04,-0.004 0.055,-0.013 0.016,-0.009 0.029,-0.021 0.039,-0.036 0.01,-0.014 0.017,-0.03 0.022,-0.049 0.005,-0.018 0.008,-0.037 0.008,-0.056 0,-0.018 -0.003,-0.036 -0.008,-0.055 -0.004,-0.019 -0.012,-0.035 -0.022,-0.049 -0.01,-0.015 -0.023,-0.026 -0.039,-0.035 -0.015,-0.009 -0.034,-0.014 -0.055,-0.014 -0.021,0 -0.04,0.005 -0.056,0.014 -0.015,0.009 -0.028,0.021 -0.038,0.035 -0.01,0.014 -0.018,0.03 -0.023,0.049 -0.004,0.019 -0.007,0.037 -0.007,0.055 0,0.019 0.003,0.038 0.007,0.056 0.005,0.019 0.013,0.035 0.023,0.049 0.01,0.015 0.023,0.027 0.038,0.036 0.016,0.009 0.035,0.013 0.056,0.013zm0.247 -0.371l0.073 0 0 -0.13 0.096 0 0 0.13 0.086 0 0 0.072 -0.086 0 0 0.232c0,0.01 0,0.019 0.001,0.027 0.001,0.007 0.003,0.013 0.006,0.018 0.003,0.005 0.007,0.009 0.014,0.012 0.006,0.002 0.014,0.003 0.025,0.003 0.007,0 0.014,0 0.02,0 0.007,0 0.014,-0.001 0.021,-0.003l0 0.074c-0.011,0.001 -0.021,0.002 -0.031,0.004 -0.01,0.001 -0.02,0.001 -0.031,0.001 -0.025,0 -0.046,-0.002 -0.061,-0.007 -0.015,-0.005 -0.028,-0.012 -0.036,-0.021 -0.009,-0.009 -0.015,-0.021 -0.018,-0.035 -0.003,-0.014 -0.005,-0.03 -0.005,-0.048l0 -0.256 -0.073 0 0 -0.073 -0.001 0z"/>
   <polygon class="fil1" points="1.15,0.418 0.711,0.418 0.575,0 0.439,0.418 0,0.417 0.356,0.676 0.219,1.093 0.575,0.835 0.93,1.093 0.794,0.676 1.15,0.418 "/>
   <polygon class="fil2" points="0.825,0.77 0.794,0.676 0.575,0.835 "/>
  </g>
  <g id="_1639881027568">
   <polygon id="Rectangle-path" class="fil1" points="5.681,1.126 6.568,1.126 6.568,0.24 5.681,0.24 "/>
   <polygon class="fil1" points="6.642,1.126 7.528,1.126 7.528,0.24 6.642,0.24 "/>
   <polygon class="fil1" points="7.602,1.126 8.489,1.126 8.489,0.24 7.602,0.24 "/>
   <polygon class="fil1" points="8.563,1.126 9.449,1.126 9.449,0.24 8.563,0.24 "/>
   <g id="Half">
    <polygon class="fil3" points="9.966,1.126 10.409,1.126 10.409,0.24 9.966,0.24 "/>
    <polygon class="fil1" points="9.523,1.126 9.966,1.126 9.966,0.24 9.523,0.24 "/>
   </g>
   <path id="Shape" class="fil4" d="M6.125 0.837l0.135 -0.034 0.056 0.174 -0.191 -0.14zm0.31 -0.224l-0.237 0 -0.073 -0.224 -0.073 0.224 -0.238 0 0.193 0.138 -0.073 0.224 0.192 -0.139 0.118 -0.085 0.191 -0.138 0 0 0 0 0 0z"/>
   <path class="fil4" d="M7.085 0.837l0.135 -0.034 0.056 0.174 -0.191 -0.14zm0.31 -0.224l-0.237 0 -0.073 -0.224 -0.073 0.224 -0.237 0 0.192 0.138 -0.073 0.224 0.192 -0.139 0.118 -0.085 0.191 -0.138 0 0 0 0 0 0z"/>
   <path class="fil4" d="M8.045 0.837l0.135 -0.034 0.057 0.174 -0.192 -0.14zm0.311 -0.224l-0.238 0 -0.073 -0.224 -0.072 0.224 -0.238 0 0.192 0.138 -0.073 0.224 0.192 -0.139 0.119 -0.085 0.191 -0.138 0 0 0 0 0 0z"/>
   <path class="fil4" d="M9.006 0.837l0.135 -0.034 0.056 0.174 -0.191 -0.14zm0.31 -0.224l-0.237 0 -0.073 -0.224 -0.073 0.224 -0.237 0 0.192 0.138 -0.073 0.224 0.192 -0.139 0.118 -0.085 0.191 -0.138 0 0 0 0 0 0z"/>
   <path class="fil4" d="M9.966 0.837l0.135 -0.034 0.056 0.174 -0.191 -0.14zm0.31 -0.224l-0.237 0 -0.073 -0.224 -0.073 0.224 -0.237 0 0.192 0.138 -0.073 0.224 0.192 -0.139 0.118 -0.085 0.191 -0.138 0 0 0 0 0 0z"/>
  </g>
  <g id="_1639880967760">
   <path class="fil1" d="M16.152 0.219l0 0c0.026,-0.017 0.06,-0.011 0.079,0.013l0 0c0.015,0.019 0.04,0.027 0.063,0.02l0 0c0.029,-0.008 0.061,0.008 0.071,0.036l0 0c0.009,0.023 0.03,0.038 0.053,0.039l0 0c0.031,0.001 0.056,0.026 0.057,0.057l0 0c0.001,0.024 0.016,0.044 0.039,0.053l0 0c0.029,0.01 0.044,0.042 0.036,0.071l0 0c-0.007,0.023 0.002,0.048 0.02,0.063l0 0c0.024,0.019 0.03,0.053 0.013,0.079l0 0c-0.014,0.02 -0.014,0.046 0,0.066l0 0c0.017,0.025 0.012,0.06 -0.013,0.079l0 0c-0.019,0.015 -0.027,0.04 -0.02,0.063l0 0c0.008,0.029 -0.008,0.06 -0.036,0.071l0 0c-0.023,0.008 -0.038,0.029 -0.039,0.053l0 0c-0.001,0.031 -0.026,0.056 -0.057,0.057l0 0c-0.024,0.001 -0.044,0.016 -0.053,0.038l0 0c-0.01,0.029 -0.042,0.045 -0.071,0.037l0 0c-0.023,-0.007 -0.048,0.001 -0.063,0.02l0 0c-0.019,0.024 -0.053,0.029 -0.079,0.012l0 0c-0.02,-0.013 -0.046,-0.013 -0.066,0l0 0c-0.025,0.018 -0.06,0.012 -0.079,-0.012l0 0c-0.015,-0.019 -0.04,-0.027 -0.062,-0.02l0 0c-0.03,0.008 -0.061,-0.008 -0.072,-0.037l0 0c-0.008,-0.022 -0.029,-0.037 -0.053,-0.038l0 0c-0.031,-0.001 -0.056,-0.026 -0.057,-0.057l0 0c-0.001,-0.024 -0.016,-0.045 -0.038,-0.053l0 0c-0.029,-0.011 -0.045,-0.042 -0.036,-0.071l0 0c0.006,-0.023 -0.002,-0.048 -0.021,-0.063l0 0c-0.024,-0.019 -0.029,-0.054 -0.012,-0.079l0 0c0.013,-0.02 0.013,-0.046 0,-0.066l0 0c-0.018,-0.026 -0.012,-0.06 0.012,-0.079l0 0c0.019,-0.015 0.027,-0.04 0.021,-0.063l0 0c-0.009,-0.029 0.007,-0.061 0.036,-0.071l0 0c0.022,-0.009 0.037,-0.03 0.038,-0.053l0 0c0.001,-0.031 0.026,-0.056 0.057,-0.057l0 0c0.024,-0.001 0.045,-0.016 0.053,-0.039l0 0c0.011,-0.029 0.042,-0.044 0.072,-0.036l0 0c0.022,0.007 0.047,-0.001 0.062,-0.02l0 0c0.019,-0.024 0.054,-0.029 0.079,-0.013l0 0c0.02,0.013 0.047,0.013 0.066,0z"/>
   <path class="fil5" d="M15.804 0.712l0.083 -0.083 0.14 0.141 0.307 -0.307 0.083 0.083c-0.13,0.13 -0.26,0.26 -0.39,0.39l-0.223 -0.224z"/>
  </g>
  <path class="fil0" d="M16.876 0.686c0,-0.054 0.008,-0.1 0.024,-0.137 0.012,-0.027 0.029,-0.051 0.05,-0.073 0.021,-0.021 0.043,-0.037 0.068,-0.048 0.033,-0.013 0.072,-0.021 0.115,-0.021 0.078,0 0.141,0.025 0.188,0.073 0.047,0.049 0.07,0.117 0.07,0.203 0,0.086 -0.023,0.153 -0.07,0.202 -0.046,0.049 -0.109,0.073 -0.187,0.073 -0.079,0 -0.142,-0.024 -0.188,-0.073 -0.047,-0.048 -0.07,-0.114 -0.07,-0.199zm0.11 -0.004c0,0.06 0.014,0.106 0.042,0.137 0.028,0.031 0.063,0.047 0.106,0.047 0.043,0 0.078,-0.016 0.106,-0.046 0.027,-0.031 0.041,-0.078 0.041,-0.139 0,-0.061 -0.013,-0.107 -0.04,-0.137 -0.027,-0.03 -0.062,-0.045 -0.107,-0.045 -0.044,0 -0.08,0.016 -0.107,0.046 -0.027,0.03 -0.041,0.076 -0.041,0.137zm0.574 0.266l-0.156 -0.385 0.107 0 0.073 0.197 0.021 0.065c0.005,-0.016 0.009,-0.027 0.01,-0.033 0.004,-0.011 0.007,-0.022 0.011,-0.032l0.074 -0.197 0.104 0 -0.153 0.385 -0.091 0zm0.508 -0.122l0.102 0.018c-0.013,0.037 -0.034,0.065 -0.062,0.085 -0.028,0.019 -0.063,0.029 -0.106,0.029 -0.066,0 -0.116,-0.022 -0.148,-0.066 -0.025,-0.035 -0.038,-0.079 -0.038,-0.133 0,-0.064 0.017,-0.114 0.05,-0.15 0.033,-0.036 0.075,-0.054 0.126,-0.054 0.057,0 0.102,0.019 0.136,0.057 0.033,0.038 0.048,0.096 0.047,0.174l-0.255 0c0.001,0.03 0.009,0.053 0.025,0.07 0.016,0.017 0.035,0.025 0.058,0.025 0.016,0 0.03,-0.004 0.04,-0.013 0.011,-0.008 0.02,-0.022 0.025,-0.042zm0.006 -0.103c-0.001,-0.029 -0.008,-0.052 -0.023,-0.067 -0.014,-0.015 -0.032,-0.023 -0.053,-0.023 -0.022,0 -0.04,0.008 -0.054,0.024 -0.015,0.016 -0.022,0.039 -0.022,0.066l0.152 0zm-0.196 -0.316l0.083 0 0.038 0.054 0.042 -0.054 0.082 0 -0.075 0.107 -0.094 0 -0.076 -0.107zm0.457 0.541l-0.102 0 0 -0.385 0.094 0 0 0.055c0.016,-0.026 0.031,-0.043 0.044,-0.051 0.013,-0.008 0.028,-0.012 0.044,-0.012 0.023,0 0.046,0.006 0.067,0.019l-0.031 0.089c-0.018,-0.011 -0.033,-0.017 -0.048,-0.017 -0.015,0 -0.027,0.004 -0.037,0.012 -0.009,0.008 -0.017,0.022 -0.023,0.043 -0.006,0.02 -0.008,0.063 -0.008,0.128l0 0.119zm-0.107 -0.541l0.082 0 0.039 0.054 0.042 -0.054 0.082 0 -0.075 0.107 -0.094 0 -0.076 -0.107zm0.5 0.419l0.102 0.018c-0.013,0.037 -0.034,0.065 -0.062,0.085 -0.028,0.019 -0.064,0.029 -0.106,0.029 -0.067,0 -0.116,-0.022 -0.148,-0.066 -0.025,-0.035 -0.038,-0.079 -0.038,-0.133 0,-0.064 0.016,-0.114 0.05,-0.15 0.033,-0.036 0.075,-0.054 0.126,-0.054 0.057,0 0.102,0.019 0.135,0.057 0.033,0.038 0.049,0.096 0.048,0.174l-0.255 0c0.001,0.03 0.009,0.053 0.025,0.07 0.016,0.017 0.035,0.025 0.058,0.025 0.016,0 0.03,-0.004 0.04,-0.013 0.011,-0.008 0.019,-0.022 0.025,-0.042zm0.006 -0.103c-0.001,-0.029 -0.008,-0.052 -0.023,-0.067 -0.014,-0.015 -0.032,-0.023 -0.053,-0.023 -0.022,0 -0.04,0.008 -0.055,0.024 -0.014,0.016 -0.021,0.039 -0.021,0.066l0.152 0zm0.513 0.225l-0.101 0 0 -0.196c0,-0.042 -0.002,-0.068 -0.007,-0.081 -0.004,-0.012 -0.011,-0.021 -0.021,-0.028 -0.01,-0.007 -0.022,-0.01 -0.036,-0.01 -0.018,0 -0.034,0.005 -0.048,0.014 -0.014,0.01 -0.023,0.023 -0.029,0.039 -0.005,0.016 -0.008,0.045 -0.008,0.088l0 0.174 -0.101 0 0 -0.385 0.094 0 0 0.057c0.034,-0.043 0.076,-0.065 0.127,-0.065 0.023,0 0.044,0.004 0.062,0.012 0.019,0.008 0.033,0.019 0.043,0.031 0.009,0.013 0.016,0.027 0.02,0.043 0.004,0.016 0.005,0.039 0.005,0.068l0 0.239zm0.059 -0.197c0,-0.034 0.008,-0.067 0.025,-0.098 0.017,-0.032 0.04,-0.056 0.071,-0.073 0.03,-0.017 0.064,-0.025 0.102,-0.025 0.058,0 0.106,0.019 0.143,0.057 0.037,0.038 0.056,0.085 0.056,0.143 0,0.059 -0.019,0.107 -0.056,0.145 -0.038,0.039 -0.085,0.058 -0.142,0.058 -0.035,0 -0.069,-0.008 -0.101,-0.024 -0.032,-0.016 -0.056,-0.04 -0.073,-0.07 -0.017,-0.031 -0.025,-0.069 -0.025,-0.113zm0.105 0.005c0,0.039 0.009,0.068 0.027,0.088 0.018,0.021 0.04,0.031 0.067,0.031 0.026,0 0.048,-0.01 0.066,-0.031 0.018,-0.02 0.027,-0.05 0.027,-0.088 0,-0.038 -0.009,-0.067 -0.027,-0.087 -0.018,-0.021 -0.04,-0.031 -0.066,-0.031 -0.027,0 -0.049,0.01 -0.067,0.031 -0.018,0.02 -0.027,0.049 -0.027,0.087z"/>
  <path class="fil0" d="M11.101 0.484l0 -0.249 0.05 0 0 0.098 0.098 0 0 -0.098 0.051 0 0 0.249 -0.051 0 0 -0.109 -0.098 0 0 0.109 -0.05 0zm0.23 -0.093c0,-0.016 0.004,-0.031 0.011,-0.046 0.008,-0.015 0.019,-0.026 0.034,-0.034 0.014,-0.008 0.03,-0.012 0.048,-0.012 0.027,0 0.049,0.009 0.067,0.027 0.017,0.018 0.026,0.04 0.026,0.067 0,0.028 -0.009,0.05 -0.027,0.068 -0.017,0.018 -0.039,0.027 -0.066,0.027 -0.017,0 -0.032,-0.004 -0.047,-0.011 -0.015,-0.008 -0.027,-0.019 -0.035,-0.033 -0.007,-0.014 -0.011,-0.032 -0.011,-0.053zm0.049 0.003c0,0.018 0.004,0.031 0.012,0.041 0.009,0.009 0.019,0.014 0.032,0.014 0.012,0 0.023,-0.005 0.031,-0.014 0.008,-0.01 0.013,-0.024 0.013,-0.042 0,-0.017 -0.005,-0.031 -0.013,-0.04 -0.008,-0.01 -0.019,-0.015 -0.031,-0.015 -0.013,0 -0.023,0.005 -0.032,0.015 -0.008,0.009 -0.012,0.023 -0.012,0.041zm0.33 0.09l-0.044 0 0 -0.027c-0.008,0.01 -0.016,0.018 -0.026,0.023 -0.01,0.005 -0.02,0.008 -0.031,0.008 -0.02,0 -0.038,-0.008 -0.053,-0.025 -0.015,-0.017 -0.022,-0.04 -0.022,-0.07 0,-0.031 0.007,-0.054 0.021,-0.07 0.015,-0.016 0.033,-0.024 0.055,-0.024 0.02,0 0.038,0.009 0.052,0.025l0 -0.089 0.048 0 0 0.249zm-0.127 -0.094c0,0.019 0.002,0.033 0.008,0.042 0.007,0.012 0.018,0.019 0.032,0.019 0.011,0 0.02,-0.005 0.028,-0.015 0.008,-0.009 0.011,-0.023 0.011,-0.042 0,-0.02 -0.003,-0.035 -0.011,-0.044 -0.007,-0.01 -0.017,-0.014 -0.028,-0.014 -0.012,0 -0.021,0.004 -0.029,0.013 -0.007,0.009 -0.011,0.023 -0.011,0.041zm0.328 0.094l-0.047 0 0 -0.092c0,-0.02 -0.001,-0.032 -0.003,-0.038 -0.003,-0.006 -0.006,-0.01 -0.01,-0.013 -0.005,-0.004 -0.011,-0.005 -0.017,-0.005 -0.008,0 -0.016,0.002 -0.023,0.007 -0.006,0.004 -0.011,0.01 -0.013,0.018 -0.003,0.007 -0.004,0.021 -0.004,0.041l0 0.082 -0.048 0 0 -0.181 0.045 0 0 0.027c0.015,-0.021 0.035,-0.031 0.059,-0.031 0.011,0 0.021,0.002 0.029,0.006 0.009,0.004 0.016,0.009 0.02,0.014 0.005,0.006 0.008,0.013 0.01,0.021 0.001,0.007 0.002,0.018 0.002,0.032l0 0.112zm0.028 -0.093c0,-0.016 0.004,-0.031 0.011,-0.046 0.008,-0.015 0.019,-0.026 0.034,-0.034 0.014,-0.008 0.03,-0.012 0.048,-0.012 0.027,0 0.049,0.009 0.067,0.027 0.017,0.018 0.026,0.04 0.026,0.067 0,0.028 -0.009,0.05 -0.027,0.068 -0.017,0.018 -0.039,0.027 -0.066,0.027 -0.017,0 -0.032,-0.004 -0.047,-0.011 -0.015,-0.008 -0.027,-0.019 -0.035,-0.033 -0.007,-0.014 -0.011,-0.032 -0.011,-0.053zm0.049 0.003c0,0.018 0.004,0.031 0.012,0.041 0.009,0.009 0.019,0.014 0.032,0.014 0.012,0 0.023,-0.005 0.031,-0.014 0.008,-0.01 0.013,-0.024 0.013,-0.042 0,-0.017 -0.005,-0.031 -0.013,-0.04 -0.008,-0.01 -0.019,-0.015 -0.031,-0.015 -0.013,0 -0.023,0.005 -0.032,0.015 -0.008,0.009 -0.012,0.023 -0.012,0.041zm0.322 -0.037l-0.047 0.008c-0.002,-0.009 -0.005,-0.016 -0.011,-0.021 -0.006,-0.005 -0.013,-0.007 -0.022,-0.007 -0.012,0 -0.021,0.004 -0.028,0.012 -0.007,0.008 -0.011,0.022 -0.011,0.041 0,0.022 0.004,0.037 0.011,0.046 0.007,0.009 0.017,0.013 0.029,0.013 0.009,0 0.016,-0.002 0.022,-0.008 0.006,-0.005 0.01,-0.014 0.012,-0.026l0.047 0.008c-0.005,0.021 -0.014,0.038 -0.028,0.049 -0.014,0.011 -0.032,0.016 -0.055,0.016 -0.027,0 -0.048,-0.008 -0.063,-0.025 -0.016,-0.017 -0.024,-0.04 -0.024,-0.069 0,-0.03 0.008,-0.053 0.024,-0.07 0.015,-0.016 0.037,-0.025 0.064,-0.025 0.021,0 0.039,0.005 0.052,0.015 0.013,0.009 0.022,0.023 0.028,0.043zm0.131 0.07l0.047 0.008c-0.006,0.017 -0.016,0.03 -0.029,0.039 -0.013,0.01 -0.029,0.014 -0.049,0.014 -0.032,0 -0.055,-0.01 -0.07,-0.031 -0.012,-0.016 -0.018,-0.037 -0.018,-0.062 0,-0.03 0.008,-0.053 0.024,-0.07 0.015,-0.017 0.035,-0.026 0.059,-0.026 0.027,0 0.048,0.009 0.063,0.027 0.016,0.018 0.023,0.045 0.023,0.081l-0.12 0c0.001,0.015 0.005,0.026 0.012,0.033 0.007,0.008 0.016,0.012 0.027,0.012 0.008,0 0.014,-0.002 0.019,-0.006 0.005,-0.004 0.009,-0.01 0.012,-0.019zm0.002 -0.049c0,-0.014 -0.004,-0.024 -0.01,-0.031 -0.007,-0.008 -0.015,-0.011 -0.025,-0.011 -0.01,0 -0.019,0.004 -0.026,0.011 -0.007,0.008 -0.01,0.018 -0.01,0.031l0.071 0zm0.241 0.106l-0.048 0 0 -0.092c0,-0.02 -0.001,-0.032 -0.003,-0.038 -0.002,-0.006 -0.005,-0.01 -0.01,-0.013 -0.004,-0.004 -0.01,-0.005 -0.016,-0.005 -0.009,0 -0.016,0.002 -0.023,0.007 -0.006,0.004 -0.011,0.01 -0.013,0.018 -0.003,0.007 -0.004,0.021 -0.004,0.041l0 0.082 -0.048 0 0 -0.181 0.044 0 0 0.027c0.016,-0.021 0.036,-0.031 0.06,-0.031 0.011,0 0.02,0.002 0.029,0.006 0.009,0.004 0.016,0.009 0.02,0.014 0.004,0.006 0.008,0.013 0.009,0.021 0.002,0.007 0.003,0.018 0.003,0.032l0 0.112zm0.039 0l0 -0.181 0.047 0 0 0.181 -0.047 0zm-0.008 -0.204l0.023 -0.051 0.053 0 -0.046 0.051 -0.03 0zm0.19 0.111c0,-0.016 0.004,-0.031 0.011,-0.046 0.008,-0.015 0.019,-0.026 0.034,-0.034 0.014,-0.008 0.03,-0.012 0.047,-0.012 0.028,0 0.05,0.009 0.068,0.027 0.017,0.018 0.026,0.04 0.026,0.067 0,0.028 -0.009,0.05 -0.027,0.068 -0.017,0.018 -0.039,0.027 -0.066,0.027 -0.017,0 -0.032,-0.004 -0.047,-0.011 -0.015,-0.008 -0.027,-0.019 -0.035,-0.033 -0.007,-0.014 -0.011,-0.032 -0.011,-0.053zm0.049 0.003c0,0.018 0.004,0.031 0.012,0.041 0.009,0.009 0.019,0.014 0.032,0.014 0.012,0 0.023,-0.005 0.031,-0.014 0.008,-0.01 0.013,-0.024 0.013,-0.042 0,-0.017 -0.005,-0.031 -0.013,-0.04 -0.008,-0.01 -0.019,-0.015 -0.031,-0.015 -0.013,0 -0.023,0.005 -0.032,0.015 -0.008,0.009 -0.012,0.023 -0.012,0.041zm0.33 0.09l-0.044 0 0 -0.027c-0.008,0.01 -0.016,0.018 -0.026,0.023 -0.01,0.005 -0.02,0.008 -0.031,0.008 -0.02,0 -0.038,-0.008 -0.053,-0.025 -0.015,-0.017 -0.022,-0.04 -0.022,-0.07 0,-0.031 0.007,-0.054 0.021,-0.07 0.015,-0.016 0.033,-0.024 0.055,-0.024 0.02,0 0.038,0.009 0.052,0.025l0 -0.089 0.048 0 0 0.249zm-0.127 -0.094c0,0.019 0.002,0.033 0.008,0.042 0.007,0.012 0.018,0.019 0.032,0.019 0.011,0 0.02,-0.005 0.028,-0.015 0.008,-0.009 0.011,-0.023 0.011,-0.042 0,-0.02 -0.003,-0.035 -0.011,-0.044 -0.007,-0.01 -0.017,-0.014 -0.028,-0.014 -0.012,0 -0.021,0.004 -0.029,0.013 -0.007,0.009 -0.011,0.023 -0.011,0.041zm0.435 0.094l-0.048 0 0 -0.092c0,-0.02 -0.001,-0.032 -0.003,-0.038 -0.002,-0.006 -0.006,-0.01 -0.01,-0.013 -0.005,-0.004 -0.01,-0.005 -0.017,-0.005 -0.008,0 -0.016,0.002 -0.022,0.007 -0.007,0.004 -0.012,0.01 -0.014,0.018 -0.002,0.007 -0.004,0.021 -0.004,0.041l0 0.082 -0.047 0 0 -0.181 0.044 0 0 0.027c0.016,-0.021 0.036,-0.031 0.06,-0.031 0.01,0 0.02,0.002 0.029,0.006 0.008,0.004 0.015,0.009 0.019,0.014 0.005,0.006 0.008,0.013 0.01,0.021 0.002,0.007 0.003,0.018 0.003,0.032l0 0.112zm0.074 -0.125l-0.044 -0.008c0.005,-0.017 0.014,-0.031 0.026,-0.039 0.011,-0.008 0.029,-0.013 0.053,-0.013 0.021,0 0.037,0.003 0.047,0.008 0.011,0.005 0.018,0.011 0.022,0.019 0.004,0.008 0.006,0.022 0.006,0.043l0 0.055c0,0.016 0.001,0.028 0.002,0.035 0.002,0.008 0.004,0.016 0.009,0.025l-0.048 0c-0.001,-0.004 -0.003,-0.008 -0.004,-0.014 -0.001,-0.003 -0.002,-0.005 -0.002,-0.006 -0.008,0.008 -0.017,0.014 -0.026,0.018 -0.009,0.004 -0.019,0.006 -0.03,0.006 -0.018,0 -0.033,-0.005 -0.043,-0.015 -0.011,-0.01 -0.016,-0.023 -0.016,-0.038 0,-0.01 0.002,-0.019 0.007,-0.027 0.005,-0.008 0.012,-0.015 0.02,-0.019 0.009,-0.004 0.022,-0.008 0.038,-0.011 0.022,-0.004 0.038,-0.008 0.047,-0.012l0 -0.004c0,-0.01 -0.003,-0.016 -0.007,-0.02 -0.005,-0.004 -0.013,-0.006 -0.026,-0.006 -0.008,0 -0.015,0.001 -0.02,0.005 -0.005,0.003 -0.008,0.009 -0.011,0.018zm0.064 0.038c-0.007,0.002 -0.016,0.005 -0.029,0.008 -0.014,0.002 -0.022,0.005 -0.026,0.008 -0.007,0.004 -0.01,0.01 -0.01,0.017 0,0.006 0.003,0.012 0.008,0.017 0.005,0.005 0.011,0.007 0.019,0.007 0.008,0 0.016,-0.002 0.024,-0.008 0.006,-0.004 0.01,-0.01 0.012,-0.016 0.001,-0.004 0.002,-0.012 0.002,-0.023l0 -0.01zm0.067 0.036l0.048 -0.007c0.002,0.009 0.006,0.016 0.012,0.02 0.006,0.005 0.015,0.008 0.026,0.008 0.013,0 0.022,-0.003 0.028,-0.007 0.004,-0.003 0.006,-0.008 0.006,-0.013 0,-0.004 -0.001,-0.007 -0.003,-0.009 -0.002,-0.002 -0.008,-0.004 -0.016,-0.006 -0.038,-0.009 -0.063,-0.016 -0.073,-0.024 -0.015,-0.009 -0.022,-0.023 -0.022,-0.04 0,-0.016 0.007,-0.029 0.019,-0.04 0.012,-0.01 0.031,-0.016 0.057,-0.016 0.025,0 0.043,0.004 0.055,0.012 0.012,0.009 0.021,0.02 0.025,0.036l-0.045 0.009c-0.002,-0.007 -0.005,-0.013 -0.011,-0.017 -0.005,-0.003 -0.013,-0.005 -0.023,-0.005 -0.012,0 -0.022,0.001 -0.027,0.005 -0.004,0.002 -0.005,0.006 -0.005,0.01 0,0.003 0.001,0.006 0.004,0.008 0.005,0.004 0.019,0.008 0.045,0.014 0.025,0.006 0.043,0.013 0.053,0.021 0.01,0.009 0.015,0.02 0.015,0.036 0,0.016 -0.007,0.03 -0.02,0.042 -0.014,0.012 -0.035,0.018 -0.062,0.018 -0.024,0 -0.044,-0.005 -0.058,-0.015 -0.014,-0.01 -0.024,-0.023 -0.028,-0.04zm0.028 -0.203l0.038 0 0.019 0.025 0.019 -0.025 0.039 0 -0.035 0.05 -0.045 0 -0.035 -0.05zm0.172 0.049l0 -0.044 0.048 0 0 0.044 -0.048 0zm0 0.205l0 -0.181 0.048 0 0 0.181 -0.048 0zm0.245 -0.127l-0.047 0.008c-0.002,-0.009 -0.006,-0.016 -0.011,-0.021 -0.006,-0.005 -0.013,-0.007 -0.022,-0.007 -0.012,0 -0.021,0.004 -0.028,0.012 -0.007,0.008 -0.011,0.022 -0.011,0.041 0,0.022 0.004,0.037 0.011,0.046 0.007,0.009 0.017,0.013 0.029,0.013 0.009,0 0.016,-0.002 0.022,-0.008 0.006,-0.005 0.01,-0.014 0.012,-0.026l0.047 0.008c-0.005,0.021 -0.014,0.038 -0.028,0.049 -0.014,0.011 -0.032,0.016 -0.056,0.016 -0.026,0 -0.047,-0.008 -0.062,-0.025 -0.016,-0.017 -0.024,-0.04 -0.024,-0.069 0,-0.03 0.008,-0.053 0.024,-0.07 0.015,-0.016 0.037,-0.025 0.063,-0.025 0.022,0 0.04,0.005 0.053,0.015 0.013,0.009 0.022,0.023 0.028,0.043zm0.073 -0.122l0 0.092c0.015,-0.018 0.034,-0.028 0.056,-0.028 0.011,0 0.021,0.002 0.029,0.006 0.009,0.005 0.016,0.01 0.02,0.016 0.005,0.006 0.008,0.013 0.01,0.021 0.001,0.008 0.002,0.02 0.002,0.036l0 0.106 -0.047 0 0 -0.096c0,-0.018 -0.001,-0.03 -0.003,-0.036 -0.002,-0.005 -0.005,-0.009 -0.01,-0.012 -0.005,-0.003 -0.01,-0.004 -0.017,-0.004 -0.008,0 -0.015,0.002 -0.022,0.006 -0.006,0.003 -0.011,0.009 -0.014,0.017 -0.003,0.008 -0.004,0.019 -0.004,0.034l0 0.091 -0.048 0 0 -0.249 0.048 0zm0.309 0l0 0.092c0.015,-0.018 0.034,-0.028 0.055,-0.028 0.012,0 0.021,0.002 0.03,0.006 0.009,0.005 0.016,0.01 0.02,0.016 0.005,0.006 0.008,0.013 0.01,0.021 0.001,0.008 0.002,0.02 0.002,0.036l0 0.106 -0.048 0 0 -0.096c0,-0.018 0,-0.03 -0.002,-0.036 -0.002,-0.005 -0.005,-0.009 -0.01,-0.012 -0.005,-0.003 -0.01,-0.004 -0.017,-0.004 -0.008,0 -0.016,0.002 -0.022,0.006 -0.006,0.003 -0.011,0.009 -0.014,0.017 -0.003,0.008 -0.004,0.019 -0.004,0.034l0 0.091 -0.048 0 0 -0.249 0.048 0zm0.201 0.249l-0.047 0 0 -0.181 0.044 0 0 0.026c0.007,-0.012 0.014,-0.02 0.02,-0.024 0.006,-0.004 0.013,-0.006 0.021,-0.006 0.011,0 0.021,0.003 0.031,0.009l-0.014 0.042c-0.008,-0.005 -0.016,-0.008 -0.023,-0.008 -0.006,0 -0.012,0.002 -0.017,0.006 -0.004,0.003 -0.008,0.01 -0.011,0.02 -0.002,0.009 -0.004,0.029 -0.004,0.06l0 0.056zm0.116 -0.125l-0.043 -0.008c0.005,-0.017 0.013,-0.031 0.025,-0.039 0.012,-0.008 0.029,-0.013 0.053,-0.013 0.021,0 0.037,0.003 0.047,0.008 0.011,0.005 0.018,0.011 0.022,0.019 0.005,0.008 0.007,0.022 0.007,0.043l-0.001 0.055c0,0.016 0.001,0.028 0.002,0.035 0.002,0.008 0.005,0.016 0.009,0.025l-0.047 0c-0.002,-0.004 -0.003,-0.008 -0.005,-0.014 -0.001,-0.003 -0.001,-0.005 -0.002,-0.006 -0.008,0.008 -0.017,0.014 -0.026,0.018 -0.009,0.004 -0.019,0.006 -0.029,0.006 -0.019,0 -0.034,-0.005 -0.044,-0.015 -0.011,-0.01 -0.016,-0.023 -0.016,-0.038 0,-0.01 0.002,-0.019 0.007,-0.027 0.005,-0.008 0.012,-0.015 0.021,-0.019 0.008,-0.004 0.021,-0.008 0.037,-0.011 0.023,-0.004 0.038,-0.008 0.047,-0.012l0 -0.004c0,-0.01 -0.002,-0.016 -0.007,-0.02 -0.005,-0.004 -0.013,-0.006 -0.026,-0.006 -0.008,0 -0.015,0.001 -0.02,0.005 -0.004,0.003 -0.008,0.009 -0.011,0.018zm0.064 0.038c-0.006,0.002 -0.016,0.005 -0.029,0.008 -0.013,0.002 -0.022,0.005 -0.026,0.008 -0.006,0.004 -0.01,0.01 -0.01,0.017 0,0.006 0.003,0.012 0.008,0.017 0.005,0.005 0.011,0.007 0.019,0.007 0.009,0 0.017,-0.002 0.025,-0.008 0.005,-0.004 0.009,-0.01 0.011,-0.016 0.001,-0.004 0.002,-0.012 0.002,-0.023l0 -0.01zm-0.059 -0.117l0.024 -0.051 0.053 0 -0.047 0.051 -0.03 0zm0.3 0.077l-0.047 0.008c-0.001,-0.009 -0.005,-0.016 -0.011,-0.021 -0.005,-0.005 -0.012,-0.007 -0.021,-0.007 -0.012,0 -0.022,0.004 -0.029,0.012 -0.007,0.008 -0.01,0.022 -0.01,0.041 0,0.022 0.003,0.037 0.01,0.046 0.008,0.009 0.017,0.013 0.029,0.013 0.009,0 0.017,-0.002 0.022,-0.008 0.006,-0.005 0.01,-0.014 0.013,-0.026l0.047 0.008c-0.005,0.021 -0.015,0.038 -0.028,0.049 -0.014,0.011 -0.033,0.016 -0.056,0.016 -0.026,0 -0.047,-0.008 -0.063,-0.025 -0.016,-0.017 -0.023,-0.04 -0.023,-0.069 0,-0.03 0.007,-0.053 0.023,-0.07 0.016,-0.016 0.037,-0.025 0.064,-0.025 0.022,0 0.039,0.005 0.052,0.015 0.013,0.009 0.022,0.023 0.028,0.043zm-0.139 -0.127l0.039 0 0.018 0.025 0.02 -0.025 0.038 0 -0.035 0.05 -0.044 0 -0.036 -0.05zm0.285 0.254l0 -0.027c-0.007,0.009 -0.015,0.017 -0.026,0.023 -0.011,0.005 -0.022,0.008 -0.034,0.008 -0.012,0 -0.023,-0.003 -0.033,-0.008 -0.009,-0.005 -0.016,-0.013 -0.02,-0.022 -0.005,-0.01 -0.007,-0.023 -0.007,-0.04l0 -0.115 0.048 0 0 0.083c0,0.026 0.001,0.041 0.002,0.047 0.002,0.006 0.005,0.01 0.01,0.014 0.005,0.003 0.01,0.005 0.018,0.005 0.008,0 0.015,-0.003 0.022,-0.007 0.006,-0.005 0.011,-0.01 0.013,-0.017 0.002,-0.006 0.003,-0.023 0.003,-0.049l0 -0.076 0.048 0 0 0.181 -0.044 0zm-0.002 -0.237c0,0.009 -0.004,0.017 -0.01,0.023 -0.007,0.007 -0.014,0.01 -0.023,0.01 -0.01,0 -0.017,-0.003 -0.024,-0.01 -0.006,-0.006 -0.01,-0.014 -0.01,-0.023 0,-0.009 0.004,-0.017 0.01,-0.024 0.007,-0.006 0.014,-0.009 0.024,-0.009 0.009,0 0.016,0.003 0.023,0.009 0.006,0.007 0.01,0.015 0.01,0.024zm-0.019 0c0,-0.004 -0.001,-0.008 -0.004,-0.011 -0.003,-0.003 -0.006,-0.004 -0.01,-0.004 -0.005,0 -0.008,0.001 -0.011,0.004 -0.003,0.003 -0.004,0.007 -0.004,0.011 0,0.004 0.001,0.007 0.004,0.01 0.003,0.003 0.006,0.005 0.011,0.005 0.004,0 0.007,-0.002 0.01,-0.005 0.003,-0.003 0.004,-0.006 0.004,-0.01z"/>
  <path class="fil0" d="M11.302 1.194l-0.19 -0.531 0.116 0 0.135 0.393 0.129 -0.393 0.114 0 -0.188 0.531 -0.116 0zm0.261 -0.385l0.108 0 0.092 0.273 0.09 -0.273 0.106 0 -0.136 0.371 -0.024 0.067c-0.009,0.022 -0.018,0.039 -0.026,0.051 -0.008,0.012 -0.018,0.021 -0.028,0.028 -0.011,0.008 -0.024,0.014 -0.039,0.018 -0.015,0.004 -0.033,0.006 -0.052,0.006 -0.02,0 -0.039,-0.002 -0.058,-0.006l-0.009 -0.08c0.016,0.003 0.031,0.005 0.043,0.005 0.024,0 0.042,-0.007 0.053,-0.021 0.011,-0.014 0.02,-0.032 0.026,-0.053l-0.146 -0.386zm0.791 0.385l-0.102 0 0 -0.196c0,-0.042 -0.002,-0.068 -0.007,-0.081 -0.004,-0.012 -0.011,-0.021 -0.021,-0.028 -0.01,-0.007 -0.022,-0.01 -0.036,-0.01 -0.017,0 -0.033,0.005 -0.047,0.014 -0.015,0.01 -0.024,0.023 -0.029,0.039 -0.006,0.016 -0.008,0.045 -0.008,0.088l0 0.174 -0.102 0 0 -0.385 0.094 0 0 0.057c0.034,-0.043 0.076,-0.065 0.128,-0.065 0.022,0 0.043,0.004 0.061,0.012 0.019,0.008 0.033,0.019 0.043,0.031 0.01,0.013 0.016,0.027 0.02,0.043 0.004,0.016 0.006,0.039 0.006,0.068l0 0.239zm0.082 -0.437l0 -0.094 0.102 0 0 0.094 -0.102 0zm0 0.437l0 -0.385 0.102 0 0 0.385 -0.102 0zm0.182 0l0 -0.531 0.101 0 0 0.282 0.119 -0.136 0.126 0 -0.132 0.141 0.141 0.244 -0.109 0 -0.098 -0.174 -0.047 0.051 0 0.123 -0.101 0zm0.471 -0.266l-0.092 -0.016c0.01,-0.038 0.028,-0.066 0.054,-0.084 0.025,-0.018 0.063,-0.027 0.113,-0.027 0.045,0 0.079,0.005 0.101,0.016 0.022,0.011 0.038,0.024 0.047,0.041 0.009,0.017 0.013,0.047 0.013,0.091l-0.001 0.119c0,0.034 0.002,0.058 0.005,0.075 0.003,0.016 0.009,0.033 0.018,0.051l-0.101 0c-0.002,-0.007 -0.006,-0.016 -0.01,-0.03 -0.001,-0.006 -0.002,-0.01 -0.003,-0.011 -0.018,0.017 -0.036,0.029 -0.056,0.038 -0.02,0.008 -0.041,0.013 -0.063,0.013 -0.039,0 -0.071,-0.011 -0.093,-0.033 -0.023,-0.021 -0.034,-0.048 -0.034,-0.081 0,-0.022 0.005,-0.041 0.015,-0.058 0.011,-0.017 0.025,-0.03 0.044,-0.039 0.018,-0.009 0.045,-0.017 0.081,-0.024 0.047,-0.009 0.08,-0.017 0.098,-0.025l0 -0.01c0,-0.02 -0.004,-0.034 -0.014,-0.042 -0.01,-0.009 -0.028,-0.013 -0.055,-0.013 -0.018,0 -0.032,0.003 -0.042,0.011 -0.011,0.007 -0.019,0.02 -0.025,0.038zm0.136 0.082c-0.013,0.004 -0.033,0.01 -0.062,0.016 -0.028,0.006 -0.046,0.012 -0.055,0.017 -0.013,0.01 -0.02,0.022 -0.02,0.036 0,0.015 0.005,0.027 0.016,0.037 0.011,0.011 0.024,0.016 0.041,0.016 0.018,0 0.036,-0.006 0.052,-0.018 0.012,-0.01 0.021,-0.021 0.024,-0.034 0.003,-0.009 0.004,-0.025 0.004,-0.05l0 -0.02zm0.178 -0.253l0 -0.094 0.102 0 0 0.094 -0.102 0zm0.102 0.052l0 0.373c0,0.049 -0.004,0.083 -0.01,0.104 -0.006,0.02 -0.019,0.036 -0.037,0.047 -0.018,0.011 -0.042,0.017 -0.07,0.017 -0.01,0 -0.021,-0.001 -0.033,-0.003 -0.011,-0.002 -0.024,-0.004 -0.037,-0.008l0.017 -0.087c0.005,0.001 0.009,0.002 0.014,0.003 0.004,0 0.008,0.001 0.012,0.001 0.01,0 0.019,-0.003 0.025,-0.007 0.007,-0.004 0.011,-0.01 0.014,-0.016 0.002,-0.007 0.003,-0.025 0.003,-0.057l0 -0.367 0.102 0zm0.086 0.385l0 -0.385 0.101 0 0 0.385 -0.101 0zm-0.017 -0.434l0.05 -0.109 0.113 0 -0.1 0.109 -0.063 0zm0.537 0.163l-0.1 0.018c-0.003,-0.02 -0.011,-0.035 -0.023,-0.045 -0.012,-0.01 -0.027,-0.015 -0.046,-0.015 -0.026,0 -0.046,0.009 -0.061,0.026 -0.015,0.018 -0.023,0.047 -0.023,0.088 0,0.046 0.008,0.078 0.023,0.097 0.016,0.019 0.036,0.029 0.062,0.029 0.019,0 0.035,-0.006 0.047,-0.017 0.013,-0.011 0.021,-0.03 0.026,-0.057l0.1 0.017c-0.01,0.046 -0.03,0.081 -0.059,0.105 -0.03,0.023 -0.069,0.035 -0.119,0.035 -0.056,0 -0.101,-0.018 -0.134,-0.054 -0.034,-0.035 -0.05,-0.084 -0.05,-0.147 0,-0.064 0.017,-0.113 0.05,-0.149 0.034,-0.035 0.079,-0.053 0.136,-0.053 0.047,0 0.084,0.01 0.112,0.03 0.027,0.02 0.047,0.051 0.059,0.092zm0.057 0.271l0 -0.385 0.102 0 0 0.385 -0.102 0zm-0.017 -0.434l0.05 -0.109 0.114 0 -0.1 0.109 -0.064 0z"/>
 </g>
</svg>
