<?xml version="1.0" encoding="UTF-8"?>
<!DOCTYPE svg PUBLIC "-//W3C//DTD SVG 1.1//EN" "http://www.w3.org/Graphics/SVG/1.1/DTD/svg11.dtd">
<!-- Creator: CorelDRAW 2021 (64-Bit) -->
<svg xmlns="http://www.w3.org/2000/svg" xml:space="preserve" width="440px" height="26px" version="1.1" style="shape-rendering:geometricPrecision; text-rendering:geometricPrecision; image-rendering:optimizeQuality; fill-rule:evenodd; clip-rule:evenodd"
viewBox="0 0 21.106 1.247"
 xmlns:xlink="http://www.w3.org/1999/xlink"
 xmlns:xodm="http://www.corel.com/coreldraw/odm/2003">
 <defs>
  <style type="text/css">
   <![CDATA[
    .fil5 {fill:white}
    .fil0 {fill:black;fill-rule:nonzero}
    .fil2 {fill:#005128;fill-rule:nonzero}
    .fil1 {fill:#00B67A;fill-rule:nonzero}
    .fil3 {fill:#DCDCE6;fill-rule:nonzero}
    .fil4 {fill:white;fill-rule:nonzero}
   ]]>
  </style>
 </defs>
 <g id="Layer_x0020_1">
  <metadata id="CorelCorpID_0Corel-Layer"/>
  <g id="_1639603495024">
   <path class="fil0" d="M1.306 0.433l0.503 0 0 0.093 -0.198 0 0 0.528 -0.109 0 0 -0.528 -0.196 0 0 -0.093 0 0zm0.482 0.171l0.093 0 0 0.087 0.001 0c0.003,-0.012 0.009,-0.024 0.017,-0.036 0.009,-0.011 0.019,-0.022 0.031,-0.031 0.012,-0.01 0.025,-0.017 0.039,-0.023 0.015,-0.006 0.03,-0.009 0.045,-0.009 0.011,0 0.019,0 0.024,0.001 0.004,0 0.008,0.001 0.013,0.001l0 0.096c-0.007,-0.001 -0.014,-0.002 -0.021,-0.003 -0.008,-0.001 -0.015,-0.001 -0.022,-0.001 -0.016,0 -0.032,0.003 -0.047,0.01 -0.015,0.006 -0.028,0.016 -0.039,0.029 -0.011,0.013 -0.019,0.029 -0.026,0.048 -0.007,0.02 -0.01,0.042 -0.01,0.067l0 0.214 -0.099 0 0 -0.45 0.001 0zm0.719 0.45l-0.097 0 0 -0.063 -0.002 0c-0.012,0.023 -0.03,0.041 -0.054,0.055 -0.025,0.013 -0.049,0.02 -0.074,0.02 -0.059,0 -0.102,-0.014 -0.129,-0.043 -0.026,-0.03 -0.039,-0.074 -0.039,-0.133l0 -0.286 0.099 0 0 0.276c0,0.039 0.007,0.068 0.023,0.084 0.015,0.016 0.036,0.024 0.063,0.024 0.021,0 0.039,-0.003 0.053,-0.009 0.014,-0.007 0.025,-0.015 0.033,-0.026 0.009,-0.011 0.015,-0.024 0.019,-0.039 0.004,-0.015 0.006,-0.031 0.006,-0.048l0 -0.262 0.099 0 0 0.45zm0.169 -0.144c0.003,0.029 0.014,0.049 0.033,0.061 0.019,0.011 0.042,0.017 0.069,0.017 0.009,0 0.019,-0.001 0.031,-0.002 0.012,-0.001 0.024,-0.004 0.034,-0.008 0.01,-0.004 0.018,-0.01 0.026,-0.018 0.006,-0.008 0.009,-0.018 0.009,-0.031 -0.001,-0.013 -0.006,-0.023 -0.014,-0.031 -0.009,-0.008 -0.02,-0.015 -0.034,-0.02 -0.013,-0.005 -0.029,-0.009 -0.046,-0.012 -0.018,-0.004 -0.035,-0.008 -0.053,-0.012 -0.019,-0.004 -0.037,-0.009 -0.054,-0.015 -0.017,-0.006 -0.032,-0.013 -0.046,-0.024 -0.013,-0.009 -0.024,-0.022 -0.032,-0.037 -0.009,-0.016 -0.013,-0.034 -0.013,-0.057 0,-0.025 0.007,-0.045 0.018,-0.062 0.012,-0.016 0.028,-0.03 0.046,-0.04 0.018,-0.01 0.038,-0.017 0.061,-0.021 0.022,-0.004 0.043,-0.006 0.064,-0.006 0.023,0 0.045,0.002 0.066,0.007 0.021,0.005 0.041,0.013 0.058,0.024 0.017,0.011 0.031,0.026 0.042,0.043 0.012,0.018 0.019,0.039 0.022,0.064l-0.104 0c-0.005,-0.023 -0.015,-0.04 -0.032,-0.047 -0.017,-0.009 -0.037,-0.013 -0.059,-0.013 -0.007,0 -0.015,0.001 -0.025,0.002 -0.01,0.001 -0.018,0.004 -0.027,0.007 -0.008,0.003 -0.015,0.008 -0.022,0.014 -0.005,0.006 -0.008,0.014 -0.008,0.024 0,0.012 0.004,0.022 0.012,0.029 0.009,0.008 0.02,0.014 0.033,0.019 0.014,0.005 0.029,0.009 0.047,0.013 0.017,0.003 0.035,0.007 0.054,0.011 0.018,0.004 0.035,0.009 0.053,0.015 0.017,0.006 0.033,0.014 0.046,0.024 0.014,0.01 0.025,0.022 0.033,0.037 0.008,0.015 0.013,0.034 0.013,0.056 0,0.027 -0.006,0.049 -0.019,0.068 -0.012,0.018 -0.028,0.034 -0.047,0.045 -0.019,0.011 -0.041,0.02 -0.065,0.025 -0.024,0.006 -0.047,0.008 -0.07,0.008 -0.029,0 -0.055,-0.003 -0.079,-0.009 -0.025,-0.007 -0.046,-0.017 -0.063,-0.029 -0.018,-0.013 -0.032,-0.03 -0.042,-0.049 -0.01,-0.019 -0.015,-0.043 -0.016,-0.069l0.1 0 0 -0.001zm0.327 -0.306l0.075 0 0 -0.135 0.099 0 0 0.135 0.09 0 0 0.074 -0.09 0 0 0.241c0,0.01 0.001,0.019 0.002,0.027 0.001,0.007 0.003,0.014 0.006,0.019 0.003,0.005 0.008,0.009 0.014,0.012 0.007,0.003 0.015,0.004 0.027,0.004 0.007,0 0.014,0 0.021,-0.001 0.007,0 0.014,-0.001 0.021,-0.003l0 0.077c-0.011,0.001 -0.022,0.002 -0.032,0.004 -0.011,0.001 -0.021,0.001 -0.032,0.001 -0.027,0 -0.048,-0.002 -0.064,-0.007 -0.015,-0.005 -0.028,-0.012 -0.037,-0.022 -0.009,-0.01 -0.015,-0.021 -0.018,-0.036 -0.003,-0.014 -0.005,-0.031 -0.006,-0.05l0 -0.265 -0.075 0 0 -0.075 -0.001 0zm0.334 0l0.094 0 0 0.061 0.002 0c0.014,-0.026 0.033,-0.045 0.058,-0.056 0.025,-0.012 0.052,-0.017 0.081,-0.017 0.036,0 0.066,0.006 0.093,0.019 0.026,0.012 0.048,0.029 0.066,0.051 0.017,0.022 0.03,0.047 0.039,0.076 0.008,0.029 0.013,0.06 0.013,0.093 0,0.031 -0.004,0.06 -0.012,0.088 -0.008,0.029 -0.02,0.054 -0.036,0.075 -0.015,0.022 -0.036,0.04 -0.06,0.053 -0.025,0.013 -0.053,0.019 -0.087,0.019 -0.014,0 -0.029,-0.001 -0.043,-0.004 -0.015,-0.002 -0.029,-0.007 -0.042,-0.012 -0.013,-0.006 -0.026,-0.013 -0.037,-0.023 -0.011,-0.009 -0.02,-0.019 -0.028,-0.031l-0.002 0 0 0.224 -0.099 0 0 -0.616zm0.347 0.226c0,-0.021 -0.003,-0.04 -0.008,-0.06 -0.006,-0.019 -0.013,-0.036 -0.024,-0.051 -0.011,-0.014 -0.024,-0.026 -0.039,-0.035 -0.016,-0.009 -0.034,-0.014 -0.054,-0.014 -0.042,0 -0.073,0.015 -0.094,0.044 -0.021,0.029 -0.032,0.067 -0.032,0.116 0,0.022 0.003,0.043 0.008,0.063 0.006,0.019 0.014,0.036 0.025,0.05 0.011,0.014 0.025,0.025 0.04,0.033 0.015,0.008 0.033,0.012 0.053,0.012 0.023,0 0.042,-0.005 0.058,-0.014 0.016,-0.009 0.028,-0.022 0.039,-0.036 0.01,-0.015 0.017,-0.032 0.021,-0.051 0.004,-0.018 0.007,-0.038 0.007,-0.057l0 0zm0.175 -0.397l0.099 0 0 0.093 -0.099 0 0 -0.093zm0 0.171l0.099 0 0 0.45 -0.099 0 0 -0.45zm0.187 -0.171l0.1 0 0 0.621 -0.1 0 0 -0.621zm0.404 0.633c-0.036,0 -0.068,-0.006 -0.097,-0.018 -0.028,-0.011 -0.051,-0.028 -0.071,-0.049 -0.019,-0.021 -0.034,-0.046 -0.044,-0.075 -0.01,-0.029 -0.016,-0.061 -0.016,-0.095 0,-0.035 0.006,-0.066 0.016,-0.095 0.01,-0.029 0.025,-0.054 0.044,-0.075 0.019,-0.021 0.043,-0.037 0.071,-0.049 0.029,-0.012 0.061,-0.018 0.097,-0.018 0.035,0 0.068,0.006 0.096,0.018 0.028,0.012 0.051,0.028 0.071,0.049 0.019,0.021 0.034,0.046 0.044,0.075 0.01,0.029 0.016,0.06 0.016,0.095 0,0.034 -0.006,0.066 -0.016,0.095 -0.01,0.029 -0.025,0.054 -0.044,0.075 -0.019,0.021 -0.043,0.038 -0.071,0.049 -0.028,0.012 -0.061,0.018 -0.096,0.018zm0 -0.078c0.021,0 0.041,-0.005 0.057,-0.014 0.016,-0.009 0.029,-0.022 0.04,-0.037 0.01,-0.014 0.018,-0.032 0.023,-0.05 0.005,-0.019 0.008,-0.039 0.008,-0.058 0,-0.02 -0.003,-0.038 -0.008,-0.058 -0.005,-0.019 -0.013,-0.036 -0.023,-0.051 -0.011,-0.015 -0.024,-0.026 -0.04,-0.036 -0.016,-0.009 -0.036,-0.014 -0.057,-0.014 -0.022,0 -0.042,0.005 -0.058,0.014 -0.016,0.01 -0.029,0.022 -0.04,0.036 -0.01,0.015 -0.018,0.032 -0.023,0.051 -0.005,0.02 -0.008,0.038 -0.008,0.058 0,0.019 0.003,0.039 0.008,0.058 0.005,0.018 0.013,0.036 0.023,0.05 0.011,0.015 0.024,0.028 0.04,0.037 0.016,0.01 0.036,0.014 0.058,0.014zm0.256 -0.384l0.075 0 0 -0.135 0.099 0 0 0.135 0.089 0 0 0.074 -0.089 0 0 0.241c0,0.01 0,0.019 0.001,0.027 0.001,0.007 0.003,0.014 0.006,0.019 0.003,0.005 0.008,0.009 0.015,0.012 0.006,0.003 0.015,0.004 0.026,0.004 0.007,0 0.014,0 0.021,-0.001 0.007,0 0.014,-0.001 0.021,-0.003l0 0.077c-0.011,0.001 -0.022,0.002 -0.032,0.004 -0.01,0.001 -0.021,0.001 -0.032,0.001 -0.026,0 -0.047,-0.002 -0.063,-0.007 -0.016,-0.005 -0.028,-0.012 -0.037,-0.022 -0.009,-0.01 -0.015,-0.021 -0.019,-0.036 -0.003,-0.014 -0.005,-0.031 -0.005,-0.05l0 -0.265 -0.075 0 0 -0.075 -0.001 0z"/>
   <polygon class="fil1" points="1.19,0.433 0.736,0.433 0.595,0 0.454,0.433 0,0.432 0.368,0.7 0.227,1.132 0.595,0.865 0.963,1.132 0.823,0.7 1.19,0.433 "/>
   <polygon class="fil2" points="0.854,0.798 0.823,0.7 0.595,0.865 "/>
  </g>
  <g id="_1639603496944">
   <polygon id="Rectangle-path" class="fil1" points="5.882,1.166 6.8,1.166 6.8,0.248 5.882,0.248 "/>
   <polygon class="fil1" points="6.876,1.166 7.794,1.166 7.794,0.248 6.876,0.248 "/>
   <polygon class="fil1" points="7.871,1.166 8.788,1.166 8.788,0.248 7.871,0.248 "/>
   <polygon class="fil1" points="8.865,1.166 9.783,1.166 9.783,0.248 8.865,0.248 "/>
   <g id="Half">
    <polygon class="fil3" points="10.318,1.166 10.777,1.166 10.777,0.248 10.318,0.248 "/>
    <polygon class="fil1" points="9.859,1.166 10.318,1.166 10.318,0.248 9.859,0.248 "/>
   </g>
   <path id="Shape" class="fil4" d="M6.341 0.867l0.139 -0.036 0.059 0.18 -0.198 -0.144zm0.321 -0.233l-0.246 0 -0.075 -0.231 -0.076 0.231 -0.245 0 0.199 0.144 -0.076 0.231 0.199 -0.143 0.122 -0.088 0.198 -0.144 0 0 0 0 0 0z"/>
   <path class="fil4" d="M7.335 0.867l0.14 -0.036 0.058 0.18 -0.198 -0.144zm0.321 -0.233l-0.245 0 -0.076 -0.231 -0.075 0.231 -0.246 0 0.199 0.144 -0.076 0.231 0.199 -0.143 0.122 -0.088 0.198 -0.144 0 0 0 0 0 0z"/>
   <path class="fil4" d="M8.329 0.867l0.14 -0.036 0.058 0.18 -0.198 -0.144zm0.322 -0.233l-0.246 0 -0.076 -0.231 -0.075 0.231 -0.246 0 0.199 0.144 -0.075 0.231 0.198 -0.143 0.123 -0.088 0.198 -0.144 0 0 0 0 0 0z"/>
   <path class="fil4" d="M9.324 0.867l0.139 -0.036 0.059 0.18 -0.198 -0.144zm0.321 -0.233l-0.246 0 -0.075 -0.231 -0.076 0.231 -0.246 0 0.199 0.144 -0.075 0.231 0.199 -0.143 0.122 -0.088 0.198 -0.144 0 0 0 0 0 0z"/>
   <path class="fil4" d="M10.318 0.867l0.14 -0.036 0.058 0.18 -0.198 -0.144zm0.321 -0.233l-0.246 0 -0.075 -0.231 -0.076 0.231 -0.245 0 0.199 0.144 -0.076 0.231 0.199 -0.143 0.122 -0.088 0.198 -0.144 0 0 0 0 0 0z"/>
  </g>
  <g id="_1640189808512">
   <path class="fil1" d="M16.747 0.227l0 0c0.026,-0.018 0.062,-0.012 0.082,0.013l0 0c0.015,0.02 0.041,0.028 0.065,0.021l0 0c0.03,-0.009 0.062,0.008 0.073,0.038l0 0c0.009,0.023 0.031,0.038 0.055,0.039l0 0c0.032,0.002 0.058,0.028 0.059,0.059l0 0c0.001,0.025 0.017,0.047 0.04,0.055l0 0c0.03,0.011 0.046,0.044 0.038,0.074l0 0c-0.007,0.024 0.001,0.049 0.02,0.065l0 0c0.025,0.02 0.031,0.055 0.014,0.082l0 0c-0.014,0.021 -0.014,0.047 0,0.068l0 0c0.018,0.027 0.012,0.062 -0.014,0.082l0 0c-0.019,0.016 -0.027,0.041 -0.02,0.065l0 0c0.008,0.03 -0.008,0.063 -0.038,0.074l0 0c-0.023,0.008 -0.039,0.03 -0.04,0.055l0 0c-0.001,0.031 -0.027,0.057 -0.059,0.058l0 0c-0.025,0.002 -0.046,0.017 -0.055,0.04l0 0c-0.011,0.03 -0.043,0.047 -0.073,0.038l0 0c-0.024,-0.007 -0.05,0.002 -0.065,0.021l0 0c-0.02,0.025 -0.056,0.03 -0.082,0.013l0 0c-0.021,-0.014 -0.048,-0.014 -0.068,0l0 0c-0.027,0.018 -0.063,0.012 -0.082,-0.013l0 0c-0.016,-0.02 -0.041,-0.028 -0.065,-0.021l0 0c-0.031,0.009 -0.063,-0.008 -0.074,-0.038l0 0c-0.009,-0.023 -0.031,-0.038 -0.055,-0.04l0 0c-0.032,-0.001 -0.058,-0.027 -0.059,-0.058l0 0c-0.001,-0.025 -0.017,-0.047 -0.04,-0.055l0 0c-0.03,-0.011 -0.046,-0.044 -0.037,-0.074l0 0c0.007,-0.024 -0.002,-0.049 -0.021,-0.065l0 0c-0.025,-0.02 -0.031,-0.055 -0.013,-0.082l0 0c0.014,-0.021 0.014,-0.047 0,-0.068l0 0c-0.018,-0.027 -0.012,-0.062 0.013,-0.082l0 0c0.02,-0.016 0.028,-0.041 0.021,-0.065l0 0c-0.009,-0.03 0.008,-0.063 0.037,-0.074l0 0c0.023,-0.008 0.039,-0.03 0.04,-0.055l0 0c0.001,-0.031 0.027,-0.057 0.059,-0.059l0 0c0.025,-0.001 0.046,-0.016 0.055,-0.039l0 0c0.011,-0.03 0.043,-0.047 0.074,-0.038l0 0c0.024,0.007 0.049,-0.002 0.065,-0.021l0 0c0.019,-0.025 0.055,-0.03 0.082,-0.013l0 0c0.02,0.013 0.048,0.013 0.068,0z"/>
   <path class="fil5" d="M16.386 0.737l0.086 -0.086 0.146 0.146 0.317 -0.318 0.086 0.086c-0.134,0.135 -0.269,0.269 -0.403,0.404l-0.232 -0.232z"/>
  </g>
  <path class="fil0" d="M11.55 1.236l0 -0.567 0.42 0 0 0.096 -0.305 0 0 0.126 0.284 0 0 0.096 -0.284 0 0 0.153 0.316 0 0 0.096 -0.431 0zm0.475 0l0.148 -0.211 -0.142 -0.2 0.133 0 0.072 0.113 0.078 -0.113 0.127 0 -0.139 0.195 0.151 0.216 -0.132 0 -0.085 -0.127 -0.084 0.127 -0.127 0zm0.851 -0.289l-0.107 0.019c-0.003,-0.021 -0.012,-0.037 -0.024,-0.048 -0.013,-0.01 -0.03,-0.016 -0.05,-0.016 -0.027,0 -0.049,0.009 -0.065,0.028 -0.016,0.019 -0.024,0.05 -0.024,0.094 0,0.049 0.008,0.083 0.025,0.104 0.016,0.02 0.038,0.03 0.065,0.03 0.021,0 0.038,-0.006 0.051,-0.018 0.013,-0.012 0.022,-0.032 0.028,-0.061l0.107 0.019c-0.012,0.049 -0.033,0.086 -0.064,0.111 -0.032,0.025 -0.074,0.038 -0.127,0.038 -0.06,0 -0.107,-0.019 -0.143,-0.057 -0.036,-0.038 -0.054,-0.091 -0.054,-0.158 0,-0.068 0.018,-0.121 0.054,-0.159 0.036,-0.038 0.084,-0.056 0.145,-0.056 0.05,0 0.09,0.01 0.119,0.032 0.03,0.021 0.051,0.054 0.064,0.098zm0.32 0.159l0.108 0.019c-0.013,0.039 -0.035,0.07 -0.065,0.09 -0.03,0.021 -0.068,0.032 -0.113,0.032 -0.071,0 -0.124,-0.024 -0.159,-0.071 -0.027,-0.037 -0.04,-0.084 -0.04,-0.141 0,-0.069 0.018,-0.122 0.053,-0.16 0.036,-0.039 0.081,-0.058 0.135,-0.058 0.061,0 0.109,0.02 0.144,0.06 0.036,0.041 0.053,0.102 0.051,0.186l-0.272 0c0.001,0.032 0.01,0.057 0.027,0.075 0.016,0.018 0.037,0.027 0.062,0.027 0.017,0 0.031,-0.005 0.043,-0.014 0.011,-0.009 0.02,-0.024 0.026,-0.045zm0.006 -0.11c0,-0.031 -0.009,-0.055 -0.024,-0.072 -0.015,-0.016 -0.034,-0.024 -0.056,-0.024 -0.024,0 -0.043,0.008 -0.059,0.026 -0.015,0.017 -0.023,0.041 -0.023,0.07l0.162 0zm0.197 0.24l0 -0.567 0.108 0 0 0.567 -0.108 0zm0.22 0l0 -0.567 0.108 0 0 0.567 -0.108 0zm0.457 -0.13l0.109 0.019c-0.014,0.039 -0.036,0.07 -0.066,0.09 -0.03,0.021 -0.068,0.032 -0.113,0.032 -0.071,0 -0.124,-0.024 -0.158,-0.071 -0.027,-0.037 -0.041,-0.084 -0.041,-0.141 0,-0.069 0.018,-0.122 0.053,-0.16 0.036,-0.039 0.081,-0.058 0.135,-0.058 0.061,0 0.109,0.02 0.145,0.06 0.035,0.041 0.052,0.102 0.05,0.186l-0.271 0c0.001,0.032 0.009,0.057 0.026,0.075 0.017,0.018 0.038,0.027 0.062,0.027 0.017,0 0.032,-0.005 0.043,-0.014 0.012,-0.009 0.02,-0.024 0.026,-0.045zm0.007 -0.11c-0.001,-0.031 -0.009,-0.055 -0.025,-0.072 -0.015,-0.016 -0.034,-0.024 -0.056,-0.024 -0.024,0 -0.043,0.008 -0.059,0.026 -0.015,0.017 -0.023,0.041 -0.022,0.07l0.162 0zm0.57 0.24l-0.109 0 0 -0.209c0,-0.045 -0.002,-0.073 -0.007,-0.086 -0.004,-0.013 -0.012,-0.023 -0.022,-0.03 -0.011,-0.008 -0.024,-0.011 -0.038,-0.011 -0.019,0 -0.036,0.005 -0.051,0.015 -0.016,0.01 -0.026,0.024 -0.031,0.041 -0.006,0.017 -0.009,0.049 -0.009,0.094l0 0.186 -0.108 0 0 -0.411 0.1 0 0 0.061c0.036,-0.046 0.081,-0.069 0.136,-0.069 0.024,0 0.046,0.004 0.066,0.013 0.02,0.008 0.035,0.019 0.045,0.033 0.011,0.013 0.018,0.028 0.022,0.045 0.004,0.017 0.006,0.041 0.006,0.073l0 0.255zm0.297 -0.411l0 0.087 -0.074 0 0 0.166c0,0.034 0.001,0.053 0.002,0.059 0.002,0.006 0.005,0.01 0.01,0.014 0.005,0.003 0.011,0.005 0.018,0.005 0.01,0 0.025,-0.003 0.044,-0.01l0.009 0.084c-0.025,0.011 -0.054,0.017 -0.085,0.017 -0.02,0 -0.038,-0.004 -0.053,-0.01 -0.016,-0.007 -0.027,-0.016 -0.035,-0.026 -0.007,-0.011 -0.012,-0.025 -0.015,-0.043 -0.002,-0.012 -0.003,-0.038 -0.003,-0.077l0 -0.179 -0.05 0 0 -0.087 0.05 0 0 -0.081 0.108 -0.064 0 0.145 0.074 0zm0.314 0.281l0.109 0.019c-0.014,0.039 -0.036,0.07 -0.066,0.09 -0.03,0.021 -0.068,0.032 -0.113,0.032 -0.071,0 -0.124,-0.024 -0.159,-0.071 -0.027,-0.037 -0.04,-0.084 -0.04,-0.141 0,-0.069 0.018,-0.122 0.053,-0.16 0.036,-0.039 0.081,-0.058 0.135,-0.058 0.061,0 0.109,0.02 0.145,0.06 0.035,0.041 0.052,0.102 0.05,0.186l-0.272 0c0.001,0.032 0.01,0.057 0.027,0.075 0.016,0.018 0.037,0.027 0.062,0.027 0.017,0 0.031,-0.005 0.043,-0.014 0.011,-0.009 0.02,-0.024 0.026,-0.045zm0.006 -0.11c0,-0.031 -0.008,-0.055 -0.024,-0.072 -0.015,-0.016 -0.034,-0.024 -0.056,-0.024 -0.024,0 -0.043,0.008 -0.059,0.026 -0.015,0.017 -0.023,0.041 -0.023,0.07l0.162 0z"/>
  <path class="fil0" d="M11.55 0.501l0 -0.275 0.054 0 0.113 0.184 0 -0.184 0.052 0 0 0.275 -0.056 0 -0.111 -0.181 0 0.181 -0.052 0zm0.254 -0.102c0,-0.018 0.005,-0.035 0.013,-0.051 0.009,-0.017 0.021,-0.029 0.037,-0.038 0.016,-0.008 0.033,-0.013 0.053,-0.013 0.03,0 0.055,0.01 0.074,0.03 0.019,0.019 0.029,0.044 0.029,0.074 0,0.03 -0.01,0.055 -0.029,0.075 -0.02,0.02 -0.044,0.03 -0.074,0.03 -0.018,0 -0.035,-0.005 -0.052,-0.013 -0.017,-0.008 -0.029,-0.02 -0.038,-0.036 -0.008,-0.016 -0.013,-0.036 -0.013,-0.058zm0.054 0.002c0,0.02 0.005,0.035 0.014,0.046 0.01,0.01 0.021,0.016 0.035,0.016 0.014,0 0.025,-0.006 0.035,-0.016 0.009,-0.011 0.014,-0.026 0.014,-0.046 0,-0.02 -0.005,-0.035 -0.014,-0.045 -0.01,-0.011 -0.021,-0.016 -0.035,-0.016 -0.014,0 -0.025,0.005 -0.035,0.016 -0.009,0.01 -0.014,0.026 -0.014,0.045zm0.164 0.044l0.053 -0.008c0.002,0.01 0.006,0.017 0.013,0.023 0.007,0.005 0.017,0.008 0.029,0.008 0.014,0 0.024,-0.003 0.031,-0.008 0.004,-0.003 0.007,-0.008 0.007,-0.014 0,-0.004 -0.001,-0.007 -0.004,-0.01 -0.003,-0.002 -0.008,-0.005 -0.018,-0.007 -0.042,-0.009 -0.069,-0.018 -0.08,-0.026 -0.016,-0.01 -0.024,-0.025 -0.024,-0.045 0,-0.017 0.007,-0.031 0.02,-0.043 0.014,-0.012 0.035,-0.018 0.064,-0.018 0.027,0 0.047,0.005 0.06,0.014 0.014,0.008 0.023,0.022 0.028,0.039l-0.05 0.009c-0.002,-0.007 -0.006,-0.013 -0.012,-0.018 -0.006,-0.004 -0.014,-0.006 -0.025,-0.006 -0.014,0 -0.024,0.002 -0.03,0.006 -0.004,0.003 -0.006,0.006 -0.006,0.011 0,0.003 0.001,0.007 0.005,0.009 0.005,0.004 0.021,0.009 0.049,0.015 0.028,0.007 0.048,0.014 0.059,0.024 0.011,0.009 0.017,0.022 0.017,0.039 0,0.018 -0.008,0.034 -0.023,0.047 -0.015,0.013 -0.038,0.02 -0.068,0.02 -0.027,0 -0.049,-0.006 -0.064,-0.017 -0.016,-0.011 -0.027,-0.026 -0.031,-0.044zm0.202 0l0.053 -0.008c0.003,0.01 0.007,0.017 0.014,0.023 0.007,0.005 0.017,0.008 0.029,0.008 0.014,0 0.024,-0.003 0.031,-0.008 0.004,-0.003 0.007,-0.008 0.007,-0.014 0,-0.004 -0.002,-0.007 -0.004,-0.01 -0.003,-0.002 -0.009,-0.005 -0.018,-0.007 -0.042,-0.009 -0.069,-0.018 -0.081,-0.026 -0.015,-0.01 -0.023,-0.025 -0.023,-0.045 0,-0.017 0.007,-0.031 0.02,-0.043 0.014,-0.012 0.035,-0.018 0.064,-0.018 0.027,0 0.047,0.005 0.06,0.014 0.014,0.008 0.023,0.022 0.028,0.039l-0.05 0.009c-0.002,-0.007 -0.006,-0.013 -0.012,-0.018 -0.006,-0.004 -0.014,-0.006 -0.025,-0.006 -0.014,0 -0.024,0.002 -0.031,0.006 -0.004,0.003 -0.006,0.006 -0.006,0.011 0,0.003 0.002,0.007 0.006,0.009 0.005,0.004 0.021,0.009 0.049,0.015 0.028,0.007 0.048,0.014 0.059,0.024 0.011,0.009 0.017,0.022 0.017,0.039 0,0.018 -0.008,0.034 -0.023,0.047 -0.016,0.013 -0.038,0.02 -0.068,0.02 -0.027,0 -0.049,-0.006 -0.065,-0.017 -0.015,-0.011 -0.026,-0.026 -0.031,-0.044zm0.21 -0.046c0,-0.018 0.004,-0.035 0.013,-0.051 0.008,-0.017 0.021,-0.029 0.036,-0.038 0.016,-0.008 0.034,-0.013 0.053,-0.013 0.03,0 0.055,0.01 0.074,0.03 0.02,0.019 0.029,0.044 0.029,0.074 0,0.03 -0.01,0.055 -0.029,0.075 -0.019,0.02 -0.044,0.03 -0.073,0.03 -0.019,0 -0.036,-0.005 -0.053,-0.013 -0.016,-0.008 -0.029,-0.02 -0.037,-0.036 -0.009,-0.016 -0.013,-0.036 -0.013,-0.058zm0.054 0.002c0,0.02 0.005,0.035 0.014,0.046 0.009,0.01 0.021,0.016 0.035,0.016 0.013,0 0.025,-0.006 0.034,-0.016 0.009,-0.011 0.014,-0.026 0.014,-0.046 0,-0.02 -0.005,-0.035 -0.014,-0.045 -0.009,-0.011 -0.021,-0.016 -0.034,-0.016 -0.014,0 -0.026,0.005 -0.035,0.016 -0.009,0.01 -0.014,0.026 -0.014,0.045zm0.163 0.044l0.053 -0.008c0.002,0.01 0.007,0.017 0.014,0.023 0.007,0.005 0.016,0.008 0.029,0.008 0.013,0 0.024,-0.003 0.03,-0.008 0.005,-0.003 0.007,-0.008 0.007,-0.014 0,-0.004 -0.001,-0.007 -0.003,-0.01 -0.003,-0.002 -0.009,-0.005 -0.018,-0.007 -0.043,-0.009 -0.07,-0.018 -0.081,-0.026 -0.016,-0.01 -0.024,-0.025 -0.024,-0.045 0,-0.017 0.007,-0.031 0.021,-0.043 0.014,-0.012 0.035,-0.018 0.063,-0.018 0.027,0 0.048,0.005 0.061,0.014 0.013,0.008 0.022,0.022 0.027,0.039l-0.049 0.009c-0.002,-0.007 -0.006,-0.013 -0.012,-0.018 -0.006,-0.004 -0.015,-0.006 -0.026,-0.006 -0.014,0 -0.024,0.002 -0.03,0.006 -0.004,0.003 -0.006,0.006 -0.006,0.011 0,0.003 0.002,0.007 0.005,0.009 0.005,0.004 0.022,0.009 0.05,0.015 0.028,0.007 0.048,0.014 0.059,0.024 0.011,0.009 0.016,0.022 0.016,0.039 0,0.018 -0.007,0.034 -0.023,0.047 -0.015,0.013 -0.037,0.02 -0.067,0.02 -0.027,0 -0.049,-0.006 -0.065,-0.017 -0.016,-0.011 -0.026,-0.026 -0.031,-0.044zm0.338 -0.17l0 -0.049 0.053 0 0 0.049 -0.053 0zm0.053 0.026l0 0.193c0,0.026 -0.002,0.044 -0.005,0.054 -0.004,0.01 -0.01,0.019 -0.02,0.024 -0.009,0.006 -0.021,0.009 -0.036,0.009 -0.005,0 -0.011,0 -0.017,-0.001 -0.006,-0.001 -0.012,-0.002 -0.019,-0.004l0.009 -0.045c0.002,0 0.005,0.001 0.007,0.001 0.002,0 0.004,0 0.006,0 0.005,0 0.01,-0.001 0.013,-0.003 0.004,-0.002 0.006,-0.005 0.007,-0.008 0.001,-0.004 0.002,-0.013 0.002,-0.03l0 -0.19 0.053 0zm0.032 0.098c0,-0.018 0.004,-0.035 0.013,-0.051 0.008,-0.017 0.021,-0.029 0.036,-0.038 0.016,-0.008 0.034,-0.013 0.053,-0.013 0.03,0 0.055,0.01 0.074,0.03 0.02,0.019 0.029,0.044 0.029,0.074 0,0.03 -0.01,0.055 -0.029,0.075 -0.019,0.02 -0.044,0.03 -0.073,0.03 -0.019,0 -0.036,-0.005 -0.053,-0.013 -0.016,-0.008 -0.029,-0.02 -0.037,-0.036 -0.009,-0.016 -0.013,-0.036 -0.013,-0.058zm0.054 0.002c0,0.02 0.005,0.035 0.014,0.046 0.009,0.01 0.021,0.016 0.035,0.016 0.013,0 0.025,-0.006 0.034,-0.016 0.009,-0.011 0.014,-0.026 0.014,-0.046 0,-0.02 -0.005,-0.035 -0.014,-0.045 -0.009,-0.011 -0.021,-0.016 -0.034,-0.016 -0.014,0 -0.026,0.005 -0.035,0.016 -0.009,0.01 -0.014,0.026 -0.014,0.045zm0.177 0.112l0.06 0.008c0.001,0.007 0.004,0.012 0.007,0.014 0.005,0.004 0.013,0.006 0.024,0.006 0.014,0 0.024,-0.002 0.031,-0.006 0.004,-0.003 0.008,-0.007 0.01,-0.014 0.002,-0.004 0.003,-0.012 0.003,-0.024l0 -0.029c-0.016,0.022 -0.036,0.033 -0.06,0.033 -0.027,0 -0.048,-0.012 -0.064,-0.034 -0.012,-0.018 -0.018,-0.04 -0.018,-0.067 0,-0.033 0.008,-0.059 0.024,-0.076 0.016,-0.018 0.036,-0.027 0.06,-0.027 0.025,0 0.045,0.011 0.061,0.033l0 -0.029 0.049 0 0 0.179c0,0.024 -0.002,0.041 -0.006,0.053 -0.003,0.011 -0.009,0.02 -0.016,0.027 -0.007,0.007 -0.016,0.012 -0.028,0.016 -0.012,0.003 -0.026,0.005 -0.044,0.005 -0.034,0 -0.058,-0.006 -0.072,-0.017 -0.014,-0.012 -0.021,-0.026 -0.021,-0.044 0,-0.002 0,-0.004 0,-0.007zm0.047 -0.116c0,0.021 0.004,0.037 0.012,0.046 0.009,0.01 0.019,0.015 0.031,0.015 0.012,0 0.023,-0.005 0.032,-0.015 0.009,-0.01 0.013,-0.025 0.013,-0.045 0,-0.02 -0.004,-0.036 -0.012,-0.046 -0.009,-0.01 -0.019,-0.015 -0.032,-0.015 -0.013,0 -0.023,0.005 -0.032,0.015 -0.008,0.01 -0.012,0.025 -0.012,0.045zm0.221 -0.034l-0.048 -0.009c0.006,-0.019 0.015,-0.033 0.028,-0.043 0.013,-0.009 0.033,-0.014 0.059,-0.014 0.023,0 0.041,0.003 0.052,0.008 0.012,0.006 0.02,0.013 0.024,0.022 0.005,0.008 0.007,0.024 0.007,0.047l0 0.061c0,0.018 0,0.031 0.002,0.039 0.002,0.008 0.005,0.017 0.01,0.027l-0.053 0c-0.001,-0.004 -0.003,-0.009 -0.005,-0.016 -0.001,-0.003 -0.001,-0.005 -0.002,-0.006 -0.009,0.009 -0.018,0.016 -0.028,0.02 -0.011,0.004 -0.021,0.007 -0.033,0.007 -0.02,0 -0.037,-0.006 -0.048,-0.017 -0.012,-0.011 -0.018,-0.025 -0.018,-0.042 0,-0.011 0.003,-0.021 0.008,-0.03 0.005,-0.009 0.013,-0.016 0.023,-0.021 0.009,-0.004 0.023,-0.008 0.041,-0.012 0.025,-0.004 0.042,-0.009 0.052,-0.013l0 -0.005c0,-0.01 -0.003,-0.018 -0.008,-0.022 -0.005,-0.004 -0.014,-0.007 -0.028,-0.007 -0.01,0 -0.017,0.002 -0.022,0.006 -0.006,0.004 -0.01,0.01 -0.013,0.02zm0.071 0.042c-0.007,0.003 -0.018,0.005 -0.032,0.008 -0.015,0.004 -0.025,0.007 -0.029,0.01 -0.007,0.005 -0.01,0.011 -0.01,0.018 0,0.008 0.002,0.014 0.008,0.019 0.005,0.006 0.012,0.008 0.021,0.008 0.009,0 0.018,-0.003 0.027,-0.009 0.006,-0.005 0.011,-0.011 0.013,-0.017 0.001,-0.005 0.002,-0.013 0.002,-0.026l0 -0.011zm0.275 0.096l-0.048 0 0 -0.03c-0.009,0.012 -0.018,0.02 -0.029,0.026 -0.011,0.006 -0.023,0.009 -0.034,0.009 -0.023,0 -0.042,-0.01 -0.059,-0.028 -0.016,-0.019 -0.024,-0.044 -0.024,-0.077 0,-0.034 0.008,-0.06 0.024,-0.077 0.016,-0.018 0.036,-0.027 0.06,-0.027 0.022,0 0.042,0.009 0.058,0.028l0 -0.099 0.052 0 0 0.275zm-0.14 -0.104c0,0.021 0.003,0.037 0.009,0.046 0.008,0.014 0.02,0.021 0.035,0.021 0.012,0 0.023,-0.005 0.031,-0.015 0.009,-0.011 0.013,-0.026 0.013,-0.047 0,-0.023 -0.004,-0.039 -0.013,-0.049 -0.008,-0.01 -0.018,-0.016 -0.031,-0.016 -0.013,0 -0.023,0.005 -0.032,0.015 -0.008,0.01 -0.012,0.025 -0.012,0.045zm0.169 0.002c0,-0.018 0.004,-0.035 0.013,-0.051 0.009,-0.017 0.021,-0.029 0.037,-0.038 0.016,-0.008 0.033,-0.013 0.053,-0.013 0.03,0 0.054,0.01 0.074,0.03 0.019,0.019 0.029,0.044 0.029,0.074 0,0.03 -0.01,0.055 -0.03,0.075 -0.019,0.02 -0.043,0.03 -0.073,0.03 -0.018,0 -0.036,-0.005 -0.052,-0.013 -0.017,-0.008 -0.029,-0.02 -0.038,-0.036 -0.009,-0.016 -0.013,-0.036 -0.013,-0.058zm0.054 0.002c0,0.02 0.005,0.035 0.014,0.046 0.01,0.01 0.021,0.016 0.035,0.016 0.014,0 0.025,-0.006 0.034,-0.016 0.01,-0.011 0.014,-0.026 0.014,-0.046 0,-0.02 -0.004,-0.035 -0.014,-0.045 -0.009,-0.011 -0.02,-0.016 -0.034,-0.016 -0.014,0 -0.025,0.005 -0.035,0.016 -0.009,0.01 -0.014,0.026 -0.014,0.045zm0.233 0.1l-0.053 0 0 -0.2 0.049 0 0 0.029c0.008,-0.014 0.016,-0.022 0.022,-0.027 0.007,-0.004 0.015,-0.006 0.023,-0.006 0.012,0 0.024,0.003 0.035,0.01l-0.016 0.046c-0.009,-0.006 -0.017,-0.009 -0.025,-0.009 -0.008,0 -0.014,0.002 -0.019,0.006 -0.005,0.005 -0.009,0.012 -0.012,0.022 -0.003,0.011 -0.004,0.033 -0.004,0.067l0 0.062zm0.203 -0.063l0.053 0.009c-0.007,0.019 -0.018,0.033 -0.032,0.044 -0.015,0.01 -0.033,0.015 -0.055,0.015 -0.034,0 -0.06,-0.012 -0.077,-0.034 -0.013,-0.019 -0.019,-0.041 -0.019,-0.069 0,-0.033 0.008,-0.059 0.026,-0.078 0.017,-0.018 0.039,-0.028 0.065,-0.028 0.029,0 0.053,0.01 0.07,0.03 0.017,0.019 0.025,0.049 0.024,0.09l-0.131 0c0,0.015 0.004,0.027 0.013,0.036 0.008,0.009 0.018,0.013 0.03,0.013 0.008,0 0.015,-0.002 0.02,-0.007 0.006,-0.004 0.01,-0.011 0.013,-0.021zm0.003 -0.054c0,-0.015 -0.004,-0.027 -0.011,-0.035 -0.008,-0.008 -0.017,-0.012 -0.028,-0.012 -0.011,0 -0.021,0.005 -0.028,0.013 -0.008,0.008 -0.011,0.02 -0.011,0.034l0.078 0zm0.066 0.061l0.053 -0.008c0.002,0.01 0.007,0.017 0.014,0.023 0.007,0.005 0.016,0.008 0.029,0.008 0.013,0 0.023,-0.003 0.03,-0.008 0.005,-0.003 0.007,-0.008 0.007,-0.014 0,-0.004 -0.001,-0.007 -0.003,-0.01 -0.003,-0.002 -0.009,-0.005 -0.018,-0.007 -0.043,-0.009 -0.07,-0.018 -0.081,-0.026 -0.016,-0.01 -0.024,-0.025 -0.024,-0.045 0,-0.017 0.007,-0.031 0.021,-0.043 0.013,-0.012 0.035,-0.018 0.063,-0.018 0.027,0 0.048,0.005 0.061,0.014 0.013,0.008 0.022,0.022 0.027,0.039l-0.049 0.009c-0.002,-0.007 -0.006,-0.013 -0.012,-0.018 -0.006,-0.004 -0.015,-0.006 -0.026,-0.006 -0.014,0 -0.024,0.002 -0.03,0.006 -0.004,0.003 -0.006,0.006 -0.006,0.011 0,0.003 0.002,0.007 0.005,0.009 0.005,0.004 0.022,0.009 0.05,0.015 0.028,0.007 0.048,0.014 0.059,0.024 0.011,0.009 0.016,0.022 0.016,0.039 0,0.018 -0.007,0.034 -0.023,0.047 -0.015,0.013 -0.037,0.02 -0.067,0.02 -0.028,0 -0.049,-0.006 -0.065,-0.017 -0.016,-0.011 -0.026,-0.026 -0.031,-0.044zm0.378 -0.082l-0.047 -0.009c0.005,-0.019 0.014,-0.033 0.027,-0.043 0.014,-0.009 0.033,-0.014 0.059,-0.014 0.023,0 0.041,0.003 0.052,0.008 0.012,0.006 0.02,0.013 0.025,0.022 0.004,0.008 0.007,0.024 0.007,0.047l-0.001 0.061c0,0.018 0.001,0.031 0.002,0.039 0.002,0.008 0.005,0.017 0.01,0.027l-0.052 0c-0.002,-0.004 -0.003,-0.009 -0.005,-0.016 -0.001,-0.003 -0.002,-0.005 -0.002,-0.006 -0.009,0.009 -0.019,0.016 -0.029,0.02 -0.01,0.004 -0.021,0.007 -0.033,0.007 -0.02,0 -0.036,-0.006 -0.048,-0.017 -0.012,-0.011 -0.018,-0.025 -0.018,-0.042 0,-0.011 0.003,-0.021 0.008,-0.03 0.006,-0.009 0.013,-0.016 0.023,-0.021 0.01,-0.004 0.023,-0.008 0.042,-0.012 0.024,-0.004 0.041,-0.009 0.051,-0.013l0 -0.005c0,-0.01 -0.003,-0.018 -0.008,-0.022 -0.005,-0.004 -0.014,-0.007 -0.028,-0.007 -0.009,0 -0.017,0.002 -0.022,0.006 -0.005,0.004 -0.01,0.01 -0.013,0.02zm0.071 0.042c-0.007,0.003 -0.018,0.005 -0.032,0.008 -0.015,0.004 -0.024,0.007 -0.029,0.01 -0.007,0.005 -0.01,0.011 -0.01,0.018 0,0.008 0.003,0.014 0.008,0.019 0.006,0.006 0.013,0.008 0.021,0.008 0.01,0 0.019,-0.003 0.027,-0.009 0.007,-0.005 0.011,-0.011 0.013,-0.017 0.001,-0.005 0.002,-0.013 0.002,-0.026l0 -0.011zm0.266 -0.044l-0.051 0.009c-0.002,-0.011 -0.006,-0.018 -0.012,-0.024 -0.007,-0.005 -0.015,-0.007 -0.024,-0.007 -0.013,0 -0.024,0.004 -0.032,0.013 -0.008,0.009 -0.011,0.025 -0.011,0.046 0,0.023 0.003,0.04 0.011,0.05 0.008,0.01 0.019,0.015 0.032,0.015 0.01,0 0.018,-0.003 0.025,-0.009 0.006,-0.006 0.011,-0.015 0.013,-0.029l0.052 0.008c-0.005,0.024 -0.016,0.042 -0.031,0.054 -0.015,0.013 -0.035,0.019 -0.061,0.019 -0.029,0 -0.052,-0.01 -0.07,-0.028 -0.017,-0.018 -0.026,-0.044 -0.026,-0.076 0,-0.033 0.009,-0.059 0.026,-0.077 0.018,-0.019 0.041,-0.028 0.071,-0.028 0.024,0 0.043,0.005 0.058,0.016 0.014,0.01 0.024,0.026 0.03,0.048zm0.082 -0.135l0 0.102c0.017,-0.021 0.037,-0.031 0.061,-0.031 0.012,0 0.023,0.002 0.033,0.007 0.01,0.004 0.017,0.01 0.022,0.017 0.005,0.007 0.008,0.015 0.01,0.023 0.002,0.009 0.003,0.022 0.003,0.04l0 0.117 -0.053 0 0 -0.105c0,-0.021 -0.001,-0.035 -0.003,-0.04 -0.002,-0.006 -0.005,-0.01 -0.01,-0.014 -0.006,-0.003 -0.012,-0.005 -0.02,-0.005 -0.008,0 -0.016,0.003 -0.023,0.007 -0.007,0.004 -0.012,0.01 -0.016,0.019 -0.003,0.009 -0.004,0.021 -0.004,0.038l0 0.1 -0.053 0 0 -0.275 0.053 0zm0.211 0.137l-0.048 -0.009c0.006,-0.019 0.015,-0.033 0.028,-0.043 0.013,-0.009 0.033,-0.014 0.058,-0.014 0.024,0 0.041,0.003 0.053,0.008 0.011,0.006 0.02,0.013 0.024,0.022 0.005,0.008 0.007,0.024 0.007,0.047l-0.001 0.061c0,0.018 0.001,0.031 0.003,0.039 0.002,0.008 0.005,0.017 0.009,0.027l-0.052 0c-0.001,-0.004 -0.003,-0.009 -0.005,-0.016 -0.001,-0.003 -0.001,-0.005 -0.002,-0.006 -0.009,0.009 -0.018,0.016 -0.029,0.02 -0.01,0.004 -0.021,0.007 -0.032,0.007 -0.021,0 -0.037,-0.006 -0.049,-0.017 -0.011,-0.011 -0.017,-0.025 -0.017,-0.042 0,-0.011 0.002,-0.021 0.008,-0.03 0.005,-0.009 0.013,-0.016 0.022,-0.021 0.01,-0.004 0.024,-0.008 0.042,-0.012 0.025,-0.004 0.042,-0.009 0.051,-0.013l0 -0.005c0,-0.01 -0.002,-0.018 -0.007,-0.022 -0.005,-0.004 -0.015,-0.007 -0.029,-0.007 -0.009,0 -0.016,0.002 -0.021,0.006 -0.006,0.004 -0.01,0.01 -0.013,0.02zm0.07 0.042c-0.006,0.003 -0.017,0.005 -0.032,0.008 -0.014,0.004 -0.024,0.007 -0.028,0.01 -0.007,0.005 -0.011,0.011 -0.011,0.018 0,0.008 0.003,0.014 0.009,0.019 0.005,0.006 0.012,0.008 0.021,0.008 0.009,0 0.018,-0.003 0.027,-0.009 0.006,-0.005 0.01,-0.011 0.012,-0.017 0.002,-0.005 0.002,-0.013 0.002,-0.026l0 -0.011zm0.09 -0.104l0.048 0 0 0.028c0.017,-0.021 0.038,-0.032 0.062,-0.032 0.013,0 0.024,0.003 0.033,0.008 0.01,0.005 0.017,0.013 0.023,0.024 0.009,-0.011 0.018,-0.019 0.028,-0.024 0.011,-0.005 0.021,-0.008 0.033,-0.008 0.015,0 0.027,0.003 0.037,0.009 0.01,0.006 0.018,0.015 0.023,0.026 0.003,0.009 0.005,0.022 0.005,0.041l0 0.128 -0.052 0 0 -0.114c0,-0.02 -0.002,-0.033 -0.006,-0.038 -0.005,-0.008 -0.012,-0.012 -0.022,-0.012 -0.008,0 -0.015,0.003 -0.021,0.007 -0.007,0.005 -0.011,0.011 -0.014,0.02 -0.003,0.009 -0.005,0.022 -0.005,0.041l0 0.096 -0.052 0 0 -0.109c0,-0.02 -0.001,-0.032 -0.003,-0.038 -0.002,-0.005 -0.005,-0.01 -0.009,-0.012 -0.004,-0.003 -0.009,-0.005 -0.016,-0.005 -0.008,0 -0.015,0.003 -0.022,0.007 -0.006,0.004 -0.011,0.011 -0.014,0.019 -0.002,0.008 -0.004,0.022 -0.004,0.041l0 0.097 -0.052 0 0 -0.2z"/>
  <path class="fil0" d="M17.66 0.982l-0.197 -0.55 0.12 0 0.14 0.407 0.134 -0.407 0.118 0 -0.195 0.55 -0.12 0zm0.559 -0.126l0.105 0.017c-0.014,0.039 -0.035,0.068 -0.064,0.088 -0.029,0.02 -0.066,0.031 -0.109,0.031 -0.07,0 -0.121,-0.023 -0.154,-0.068 -0.026,-0.037 -0.04,-0.083 -0.04,-0.138 0,-0.066 0.018,-0.118 0.052,-0.155 0.035,-0.038 0.078,-0.056 0.131,-0.056 0.059,0 0.106,0.019 0.14,0.058 0.034,0.04 0.051,0.1 0.049,0.18l-0.263 0c0.001,0.032 0.009,0.056 0.025,0.073 0.016,0.018 0.037,0.026 0.061,0.026 0.016,0 0.03,-0.004 0.041,-0.013 0.011,-0.009 0.02,-0.023 0.026,-0.043zm0.006 -0.107c-0.001,-0.031 -0.009,-0.054 -0.024,-0.07 -0.015,-0.016 -0.033,-0.024 -0.055,-0.024 -0.022,0 -0.041,0.009 -0.056,0.025 -0.015,0.017 -0.023,0.04 -0.022,0.069l0.157 0zm0.291 0.233l-0.105 0 0 -0.399 0.097 0 0 0.057c0.017,-0.027 0.032,-0.045 0.045,-0.053 0.014,-0.008 0.029,-0.012 0.046,-0.012 0.024,0 0.047,0.006 0.07,0.019l-0.033 0.092c-0.018,-0.011 -0.034,-0.017 -0.05,-0.017 -0.014,0 -0.027,0.004 -0.037,0.012 -0.01,0.008 -0.018,0.023 -0.024,0.044 -0.006,0.021 -0.009,0.066 -0.009,0.134l0 0.123zm0.198 -0.453l0 -0.097 0.105 0 0 0.097 -0.105 0zm0 0.453l0 -0.399 0.105 0 0 0.399 -0.105 0zm0.17 -0.399l0.058 0 0 -0.03c0,-0.034 0.004,-0.059 0.011,-0.075 0.007,-0.017 0.02,-0.03 0.039,-0.041 0.02,-0.01 0.044,-0.015 0.073,-0.015 0.03,0 0.06,0.004 0.089,0.014l-0.014 0.073c-0.017,-0.004 -0.033,-0.007 -0.049,-0.007 -0.016,0 -0.027,0.004 -0.034,0.011 -0.006,0.007 -0.01,0.021 -0.01,0.042l0 0.028 0.079 0 0 0.083 -0.079 0 0 0.316 -0.105 0 0 -0.316 -0.058 0 0 -0.083zm0.297 -0.054l0 -0.097 0.106 0 0 0.097 -0.106 0zm0 0.453l0 -0.399 0.106 0 0 0.399 -0.106 0zm0.562 -0.281l-0.103 0.019c-0.004,-0.021 -0.012,-0.036 -0.024,-0.047 -0.012,-0.01 -0.028,-0.015 -0.048,-0.015 -0.026,0 -0.047,0.009 -0.063,0.027 -0.016,0.018 -0.023,0.048 -0.023,0.091 0,0.047 0.008,0.081 0.023,0.1 0.016,0.02 0.037,0.03 0.064,0.03 0.02,0 0.036,-0.006 0.049,-0.018 0.013,-0.011 0.022,-0.031 0.027,-0.058l0.104 0.017c-0.011,0.048 -0.032,0.084 -0.062,0.108 -0.03,0.024 -0.071,0.037 -0.123,0.037 -0.058,0 -0.104,-0.019 -0.139,-0.056 -0.034,-0.036 -0.052,-0.087 -0.052,-0.153 0,-0.065 0.018,-0.117 0.052,-0.153 0.035,-0.037 0.082,-0.055 0.141,-0.055 0.049,0 0.087,0.01 0.116,0.031 0.028,0.021 0.049,0.053 0.061,0.095zm0.159 0.005l-0.096 -0.017c0.011,-0.039 0.03,-0.068 0.056,-0.086 0.026,-0.019 0.065,-0.028 0.117,-0.028 0.047,0 0.082,0.005 0.105,0.016 0.023,0.011 0.039,0.025 0.049,0.043 0.009,0.017 0.014,0.048 0.014,0.094l-0.002 0.123c0,0.035 0.002,0.061 0.005,0.077 0.003,0.017 0.01,0.035 0.019,0.054l-0.105 0c-0.002,-0.007 -0.006,-0.018 -0.01,-0.031 -0.001,-0.006 -0.003,-0.011 -0.003,-0.012 -0.018,0.017 -0.037,0.03 -0.058,0.039 -0.02,0.009 -0.042,0.014 -0.065,0.014 -0.041,0 -0.073,-0.012 -0.097,-0.034 -0.023,-0.022 -0.035,-0.05 -0.035,-0.084 0,-0.023 0.005,-0.043 0.016,-0.06 0.011,-0.018 0.026,-0.031 0.045,-0.041 0.019,-0.009 0.047,-0.017 0.084,-0.024 0.049,-0.01 0.083,-0.018 0.102,-0.026l0 -0.011c0,-0.02 -0.005,-0.035 -0.015,-0.044 -0.01,-0.008 -0.029,-0.013 -0.057,-0.013 -0.019,0 -0.033,0.004 -0.044,0.012 -0.01,0.007 -0.019,0.02 -0.025,0.039zm0.141 0.085c-0.013,0.005 -0.035,0.01 -0.064,0.016 -0.029,0.007 -0.049,0.013 -0.057,0.019 -0.014,0.009 -0.021,0.022 -0.021,0.037 0,0.015 0.005,0.027 0.016,0.038 0.011,0.011 0.025,0.016 0.042,0.016 0.019,0 0.038,-0.006 0.055,-0.019 0.012,-0.009 0.021,-0.021 0.025,-0.035 0.003,-0.008 0.004,-0.026 0.004,-0.051l0 -0.021zm0.573 0.191l-0.098 0 0 -0.059c-0.016,0.023 -0.035,0.04 -0.057,0.051 -0.022,0.012 -0.045,0.018 -0.067,0.018 -0.046,0 -0.086,-0.019 -0.118,-0.056 -0.033,-0.037 -0.049,-0.088 -0.049,-0.154 0,-0.068 0.015,-0.119 0.047,-0.155 0.032,-0.035 0.072,-0.052 0.121,-0.052 0.045,0 0.083,0.018 0.116,0.055l0 -0.198 0.105 0 0 0.55zm-0.281 -0.207c0,0.042 0.006,0.073 0.017,0.092 0.017,0.028 0.041,0.042 0.072,0.042 0.024,0 0.044,-0.011 0.061,-0.031 0.017,-0.021 0.026,-0.052 0.026,-0.093 0,-0.046 -0.008,-0.079 -0.025,-0.099 -0.017,-0.021 -0.037,-0.031 -0.063,-0.031 -0.025,0 -0.046,0.01 -0.063,0.03 -0.017,0.02 -0.025,0.05 -0.025,0.09zm0.36 0.002c0,-0.035 0.008,-0.069 0.026,-0.101 0.017,-0.033 0.041,-0.058 0.073,-0.075 0.032,-0.018 0.067,-0.026 0.106,-0.026 0.06,0 0.109,0.019 0.148,0.058 0.038,0.04 0.058,0.089 0.058,0.149 0,0.06 -0.02,0.11 -0.059,0.15 -0.039,0.04 -0.087,0.06 -0.146,0.06 -0.037,0 -0.072,-0.009 -0.105,-0.025 -0.033,-0.017 -0.058,-0.041 -0.075,-0.073 -0.018,-0.032 -0.026,-0.071 -0.026,-0.117zm0.108 0.006c0,0.04 0.009,0.07 0.028,0.091 0.019,0.021 0.042,0.032 0.069,0.032 0.028,0 0.051,-0.011 0.069,-0.032 0.019,-0.021 0.028,-0.052 0.028,-0.092 0,-0.039 -0.009,-0.069 -0.028,-0.09 -0.018,-0.021 -0.041,-0.031 -0.069,-0.031 -0.027,0 -0.05,0.01 -0.069,0.031 -0.019,0.021 -0.028,0.052 -0.028,0.091z"/>
 </g>
</svg>
